<svg id="Flat" height="512" viewBox="0 0 512 512" width="512" xmlns="http://www.w3.org/2000/svg"><path d="m328 40h64v128h-64z" fill="#f7cc38"/><path d="m208 472a24 24 0 0 0 0-48c-.52 0-1 .12-1.517.153a23.888 23.888 0 0 0 -38.648-25.788 23.819 23.819 0 0 0 -39.835-16.136 23.819 23.819 0 0 0 -39.835 16.136 23.858 23.858 0 0 0 -38.648 25.788c-.512-.033-1-.153-1.517-.153a24 24 0 0 0 0 48z" fill="#2e9163"/><path d="m464 472a24 24 0 0 0 0-48c-.52 0-1 .12-1.517.153a23.888 23.888 0 0 0 -38.648-25.788 23.819 23.819 0 0 0 -39.835-16.136 23.819 23.819 0 0 0 -39.835 16.136 23.858 23.858 0 0 0 -38.648 25.788c-.512-.033-1-.153-1.517-.153a24 24 0 0 0 0 48z" fill="#2e9163"/><path d="m432 232-176-128-176 128-32-24 208-152 208 152z" fill="#95573a"/><path d="m432 472h-352v-240l176-128 176 128z" fill="#f7cc38"/><path d="m272 280h112v192h-112z" fill="#e9eef2"/><path d="m128 280h96v112h-96z" fill="#dcdee0"/><circle cx="304" cy="368" fill="#95573a" r="8"/><path d="m320 24h80v32h-80z" fill="#95573a"/><path d="m224 280h-104v112h112v-112zm-8 16v32h-32v-32zm-48 0v32h-32v-32zm-32 80v-32h32v32zm48 0v-32h32v32z" fill="#e9eef2"/></svg>