<?xml version="1.0"?>
<svg xmlns="http://www.w3.org/2000/svg" xmlns:xlink="http://www.w3.org/1999/xlink" version="1.1" id="Layer_1_1_" x="0px" y="0px" viewBox="0 0 64 64" style="enable-background:new 0 0 64 64;" xml:space="preserve" width="512px" height="512px" class=""><g><g>
	<rect x="37" y="46" style="fill:#FFCE00" width="8" height="5" data-original="#F0BC5E" class="" data-old_color="#F0BC5E"/>
	<rect x="19" y="46" style="fill:#FFCE00" width="8" height="5" data-original="#F0BC5E" class="" data-old_color="#F0BC5E"/>
	<rect x="37" y="57" style="fill:#FFCE00" width="8" height="5" data-original="#F0BC5E" class="" data-old_color="#F0BC5E"/>
	<rect x="28" y="30" style="fill:#FFCE00" width="8" height="5" data-original="#F0BC5E" class="" data-old_color="#F0BC5E"/>
	<rect x="28" y="41" style="fill:#FFCE00" width="8" height="5" data-original="#F0BC5E" class="" data-old_color="#F0BC5E"/>
	<rect x="19" y="57" style="fill:#FFCE00" width="8" height="5" data-original="#F0BC5E" class="" data-old_color="#F0BC5E"/>
	<g>
		<path d="M57,21.588h-2V61h-4v-1V48V26.816c1.161-0.414,2-1.514,2-2.816c0-1.654-1.346-3-3-3H14c-1.654,0-3,1.346-3,3    c0,1.302,0.839,2.402,2,2.816V48v12v1H9V21.588H7V61H5v2h11h14h4h14h11v-2h-2V21.588z M30,45h-5c-0.552,0-1-0.448-1-1V32    c0-0.552,0.448-1,1-1h14c0.552,0,1,0.448,1,1v12c0,0.552-0.448,1-1,1h-5H30z M39,29H25c-1.654,0-3,1.346-3,3v12    c0,0.352,0.072,0.686,0.184,1H16c-0.352,0-0.686,0.072-1,0.184V27h34v18.184C48.686,45.072,48.352,45,48,45h-6.184    C41.928,44.686,42,44.352,42,44V32C42,30.346,40.654,29,39,29z M14,23h36c0.552,0,1,0.448,1,1s-0.448,1-1,1H14    c-0.552,0-1-0.448-1-1S13.448,23,14,23z M16,61c-0.552,0-1-0.448-1-1V48c0-0.552,0.448-1,1-1h9h5c0.552,0,1,0.448,1,1v12    c0,0.552-0.448,1-1,1H16z M34,61c-0.552,0-1-0.448-1-1V48c0-0.552,0.448-1,1-1h5h9c0.552,0,1,0.448,1,1v12c0,0.552-0.448,1-1,1H34    z" data-original="#000000" class="active-path" style="fill:#5F7D95" data-old_color="#000000"/>
		<rect x="61" y="61" width="2" height="2" data-original="#000000" class="active-path" style="fill:#5F7D95" data-old_color="#000000"/>
		<rect x="1" y="61" width="2" height="2" data-original="#000000" class="active-path" style="fill:#5F7D95" data-old_color="#000000"/>
		<path d="M32,19c2.206,0,4-1.794,4-4s-1.794-4-4-4s-4,1.794-4,4S29.794,19,32,19z M32,13c1.103,0,2,0.897,2,2s-0.897,2-2,2    s-2-0.897-2-2S30.897,13,32,13z" data-original="#000000" class="active-path" style="fill:#5F7D95" data-old_color="#000000"/>
	</g>
	<g>
		<path style="fill:#FFCE00" d="M59.855,24.363c-0.557,0-1.113-0.151-1.617-0.454L32,8.166L5.762,23.909    c-0.984,0.593-2.168,0.606-3.167,0.04C1.596,23.384,1,22.361,1,21.214c0-1.099,0.585-2.132,1.527-2.695L32,0.834l29.474,17.685    C62.415,19.082,63,20.115,63,21.214c0,1.147-0.596,2.17-1.595,2.735C60.918,24.226,60.387,24.363,59.855,24.363z" data-original="#F0BC5E" class="" data-old_color="#F0BC5E"/>
	</g>
</g></g> </svg>
