<svg xmlns="http://www.w3.org/2000/svg" width="189.729" height="215.408" viewBox="0 0 189.729 215.408">
  <g id="Group_334" data-name="Group 334" transform="translate(275.108 -5.974)">
    <path id="Path_1517" data-name="Path 1517" d="M26.561,162.177c-5.176,0-9.705-4.231-9.705-12.25l.359-111.862s.216.375,0-15.63C17.15,10.362,22.2-.027,41.047-.307c4.529.09-2.839.281,6.988,0s19.093,5.9,21.9,14.039c1.684,2.527,14.472,32.8,14.472,32.8h21.825s8.431,16.932,6.67,18.746c-1.172,1.194-13.846.916-33.548,2A13.266,13.266,0,0,1,67.4,59.209c-2.261-4.522-5.9-13.468-5.9-13.468l-.614-7.676s-4.335,31.1-2.84,45.389c.5.5,15.783,12.959,15.95,13.125,4.485,3.489,6.978,7.809,8.473,14.122.167.5,8.806,39.226,8.806,39.226.831,5.133-1.994,10.616-6.869,12.25-7.419.692-11.905-3.794-12.736-8.113-.166-.831-8.141-36.385-8.141-36.385s-3.821-6.479-4.32-6.978S36.733,93.271,36.733,93.271v56.777C36.482,157.986,31.773,162.177,26.561,162.177Z" transform="translate(-291.964 59.133)" fill="#353a40"/>
    <path id="Icon_awesome-dolly" data-name="Icon awesome-dolly" d="M114.218,97.269l-2.088-6.224a3.269,3.269,0,0,0-4.135-2.068L63.285,101.554a19.562,19.562,0,0,0-15.047-7.575l-29-98.637c-.9-2.682-13.865-.116-13.865-.116L35.81,98.2a19.517,19.517,0,0,0-7.37,18.528,19.646,19.646,0,0,0,39.042-2.743L112.15,101.4A3.277,3.277,0,0,0,114.218,97.269ZM47.869,120.44c-5.425,0-6.827-1.4-6.827-6.827s1.4-6.827,6.827-6.827,6.827,1.4,6.827,6.827S53.294,120.44,47.869,120.44Z" transform="translate(-199.766 80.708)" fill="#353a40"/>
    <path id="Path_1518" data-name="Path 1518" d="M34.379,40.008h-.086A19.442,19.442,0,1,1,53.82,20.567,19.489,19.489,0,0,1,34.379,40.008Z" transform="translate(-275.342 4.849)" fill="#353a40"/>
  </g>
</svg>
