<?xml version="1.0"?>
<svg xmlns="http://www.w3.org/2000/svg" height="512px" viewBox="0 0 464 464" width="512px" class=""><g><path d="m40 112h384v352h-384zm0 0" fill="#5e5e5e" data-original="#5E5E5E" class="" style="fill:#E3E9ED" data-old_color="#5e5e5e"/><path d="m232 0-232 80v384h40v-352h384v352h40v-384zm0 0" fill="#4398d1" data-original="#4398D1" class="" style="fill:#FFCE00" data-old_color="#4398d1"/><path d="m288 112h136v352h40v-384l-107.078125-36.921875zm0 0" fill="#3e8dc2" data-original="#3E8DC2" class="" style="fill:#FFE529" data-old_color="#3e8dc2"/><path d="m72 384h96v80h-96zm0 0" fill="#ffb254" data-original="#FFB254" class=""/><path d="m72 304h96v80h-96zm0 0" fill="#fca62d" data-original="#FCA62D" class="" style="fill:#374957" data-old_color="#fca62d"/><path d="m168 384h96v80h-96zm0 0" fill="#fca62d" data-original="#FCA62D" class="" style="fill:#374957" data-old_color="#fca62d"/><path d="m168 304h96v80h-96zm0 0" fill="#ffb254" data-original="#FFB254" class=""/><path d="m72 224h96v80h-96zm0 0" fill="#ffc24f" data-original="#FFC24F" class="" style="fill:#5F7D95" data-old_color="#ffc24f"/><path d="m168 224h96v80h-96zm0 0" fill="#fca62d" data-original="#FCA62D" class="" style="fill:#374957" data-old_color="#fca62d"/><path d="m264 384h96v80h-96zm0 0" fill="#ffb254" data-original="#FFB254" class=""/><path d="m264 304h96v80h-96zm0 0" fill="#ffc24f" data-original="#FFC24F" class="" style="fill:#5F7D95" data-old_color="#ffc24f"/><g fill="#ff7230"><path d="m104 384h32v32h-32zm0 0" data-original="#FF7230" class="active-path" style="fill:#E3E9ED" data-old_color="#FF7230"/><path d="m104 304h32v32h-32zm0 0" data-original="#FF7230" class="active-path" style="fill:#E3E9ED" data-old_color="#FF7230"/><path d="m200 384h32v32h-32zm0 0" data-original="#FF7230" class="active-path" style="fill:#E3E9ED" data-old_color="#FF7230"/><path d="m200 304h32v32h-32zm0 0" data-original="#FF7230" class="active-path" style="fill:#E3E9ED" data-old_color="#FF7230"/><path d="m104 224h32v32h-32zm0 0" data-original="#FF7230" class="active-path" style="fill:#E3E9ED" data-old_color="#FF7230"/><path d="m200 224h32v32h-32zm0 0" data-original="#FF7230" class="active-path" style="fill:#E3E9ED" data-old_color="#FF7230"/><path d="m296 384h32v32h-32zm0 0" data-original="#FF7230" class="active-path" style="fill:#E3E9ED" data-old_color="#FF7230"/><path d="m296 304h32v32h-32zm0 0" data-original="#FF7230" class="active-path" style="fill:#E3E9ED" data-old_color="#FF7230"/></g><path d="m40 112v64h384v-64zm0 0" fill="#b8bbbd" data-original="#B8BBBD" class=""/><path d="m256 176h168v-64h-104zm0 0" fill="#aeb1b3" data-original="#AEB1B3" class=""/><path d="m40 136h384v16h-384zm0 0" fill="#999c9e" data-original="#999C9E" class=""/></g> </svg>
