<svg xmlns="http://www.w3.org/2000/svg" xmlns:xlink="http://www.w3.org/1999/xlink" width="499.918" height="386.883" viewBox="0 0 499.918 386.883"><defs><style>.a{fill:#e6e6e6;}.b{fill:#3f3d56;}.c,.y{fill:#fff;}.d{fill:#ffc107;}.e{fill:#2f2e41;}.f{fill:#fbbebe;}.g,.h{fill:#6c63ff;}.h,.k,.o{opacity:0.1;}.i{opacity:0.7;}.j{fill:#65617d;}.l{fill:url(#a);}.m{fill:#e1e100;}.n{fill:#9291a1;}.p{fill:#f5f5f5;}.q{fill:#ededf4;}.r{fill:#1a2246;}.s{fill:url(#b);}.t{fill:#59495d;}.u{fill:#f0b9bb;}.v{fill:#524d64;}.w{fill:#e2e8f0;}.x{fill:#575168;}.y{font-size:20px;font-family:SegoeUI-Bold, Segoe UI;font-weight:700;}.ah,.z{fill:none;}.z{stroke:#707070;}.aa{fill:#b4b4b4;}.ab{fill:#ffd036;}.ac{fill:#ff6f3a;}.ad{fill:#05ae21;}.ae,.al{opacity:0.2;}.af{fill:#e2e2e2;}.ag{fill:#ccc;}.ai{fill:#4f4f52;}.aj{fill:#f2f2f2;}.ak{fill:#cfcce0;}.am{fill:#ffb8b8;}.an{fill:#575a89;}.ao{fill:#9b9a9f;}.ap{fill:#41412e;}</style><linearGradient id="a" x1="0.5" y1="1" x2="0.5" gradientUnits="objectBoundingBox"><stop offset="0" stop-color="gray" stop-opacity="0.251"/><stop offset="0.54" stop-color="gray" stop-opacity="0.122"/><stop offset="1" stop-color="gray" stop-opacity="0.102"/></linearGradient><linearGradient id="b" x1="-5.321" y1="1" x2="-5.321" y2="0" xlink:href="#a"/></defs><g transform="translate(-848.082 -2108.849)"><g transform="translate(-26 1336)"><g transform="translate(1223 949.979)"><path class="a" d="M460.892,524.6h-1.263l.421-24.689h.421Z" transform="translate(-381.471 -414.903)"/><path class="a" d="M589.951,475.65l2.035-3.144a47.13,47.13,0,0,0-2.087-4.886l-1.316,1.063,1.042-1.61c-.993-1.954-1.774-3.185-1.774-3.185a45.179,45.179,0,0,0-5.444,13.238l2.611,4.035-2.89-2.334a19.071,19.071,0,0,0-.159,2.391c0,8.063,2.633,14.6,5.882,14.6s5.882-6.536,5.882-14.6a25.11,25.11,0,0,0-1.346-7.534Z" transform="translate(-509.535 -406.208)"/><path class="a" d="M272.854,524.6h-1.262l.421-24.689h.421Z" transform="translate(-225.409 -414.903)"/><path class="a" d="M404.7,475.65l2.035-3.144a47.132,47.132,0,0,0-2.087-4.886l-1.316,1.063,1.042-1.61c-.993-1.954-1.774-3.185-1.774-3.185a45.176,45.176,0,0,0-5.444,13.238l2.611,4.035-2.89-2.334a19.059,19.059,0,0,0-.159,2.391c0,8.063,2.633,14.6,5.882,14.6s5.882-6.536,5.882-14.6a25.108,25.108,0,0,0-1.346-7.534Z" transform="translate(-355.783 -406.208)"/><path class="a" d="M358.961,396.8h-2.525l.842-50.781h.842Z" transform="translate(-295.826 -287.183)"/><path class="a" d="M459.863,164.049l4.2-6.483a97.2,97.2,0,0,0-4.3-10.075l-2.713,2.191,2.148-3.319c-2.047-4.029-3.658-6.568-3.658-6.568s-8.413,13.258-11.224,27.3l5.383,8.32-5.96-4.813a39.325,39.325,0,0,0-.327,4.931c0,16.625,5.43,30.1,12.127,30.1s12.127-13.477,12.127-30.1a51.772,51.772,0,0,0-2.774-15.534Z" transform="translate(-394.532 -137.227)"/><circle class="a" cx="11.643" cy="11.643" r="11.643" transform="translate(39.234 0)"/><rect class="b" width="151" height="0.381" transform="translate(0 109.55)"/><path class="b" d="M683.591,351.547a.48.48,0,0,0,.48-.48V345.95a.475.475,0,0,0-.64-.45v-5.787a1.6,1.6,0,0,0-1.6-1.6h-52.3a1.6,1.6,0,0,0-1.6,1.6v70.209a1.6,1.6,0,0,0,1.6,1.6h52.3a1.6,1.6,0,0,0,1.6-1.6V358.715a.475.475,0,0,0,.64-.45v-5.118a.475.475,0,0,0-.64-.45v-1.178A.474.474,0,0,0,683.591,351.547Z" transform="translate(-547.686 -301.822)"/><path class="c" d="M694.245,356.453a1.6,1.6,0,0,1,1.6,1.6v63.971a1.6,1.6,0,0,1-1.6,1.6h-45.9a1.6,1.6,0,0,1-1.6-1.6V358.052a1.6,1.6,0,0,1,1.6-1.6h45.9" transform="translate(-563.297 -317.043)"/><circle class="c" cx="0.64" cy="0.64" r="0.64" transform="translate(107.358 37.25)"/><rect class="d" width="39.309" height="3.906" transform="translate(87.682 47.801)"/><rect class="a" width="39.309" height="1.48" transform="translate(87.682 57.003)"/><rect class="a" width="39.309" height="1.48" transform="translate(87.682 61.519)"/><rect class="a" width="20.311" height="1.48" transform="translate(87.682 66.093)"/><rect class="a" width="39.309" height="1.48" transform="translate(87.682 70.747)"/><rect class="a" width="39.309" height="1.48" transform="translate(87.682 75.402)"/><rect class="a" width="19.631" height="1.48" transform="translate(87.682 80.056)"/><rect class="a" width="39.309" height="1.48" transform="translate(87.682 84.711)"/><rect class="a" width="39.309" height="1.48" transform="translate(87.682 89.365)"/><rect class="d" width="12.413" height="4.081" transform="translate(114.625 95.074)"/><path class="b" d="M272.894,418.89h-.28v-9.314a5.414,5.414,0,0,0-5.414-5.414H247.36a5.414,5.414,0,0,0-5.414,5.414v51.348a5.414,5.414,0,0,0,5.414,5.414H267.2a5.414,5.414,0,0,0,5.414-5.414V425.509h.28Z" transform="translate(-227.331 -356.64)"/><path class="c" d="M278.682,416.029v51.6a4.043,4.043,0,0,1-4.043,4.043H254.76a4.043,4.043,0,0,1-4.043-4.043v-51.6a3.644,3.644,0,0,1,3.644-3.644h2.807a1.973,1.973,0,0,0,.086,1.651,1.929,1.929,0,0,0,1.578.959H270.4a1.928,1.928,0,0,0,1.578-.959,1.973,1.973,0,0,0,.086-1.651h2.977a3.644,3.644,0,0,1,3.644,3.644Z" transform="translate(-234.611 -363.464)"/><path class="e" d="M516.812,348.926s-2.109-.753-3.465,2.26a59.412,59.412,0,0,1-3.465,6.327l1.205.3s.3-2.109,1.054-2.41l-.3,2.711s9.038,3.163,13.105-.3l-.151-1.054s.6.151.6,1.054l.452-.452a8.1,8.1,0,0,0-1.808-2.109,5.315,5.315,0,0,1-1.3-3.237,4.018,4.018,0,0,0-5.93-3.09Z" transform="translate(-449.706 -310.366)"/><path class="f" d="M321.794,375.252l1.972,2.51,1.255-1.434-1.076-1.793Z" transform="translate(-267.075 -310.847)"/><path class="f" d="M314.077,605.429l-.717,3.765,1.793.9,1.255-.9v-3.765Z" transform="translate(-260.075 -502.479)"/><path class="f" d="M380,605.429l.717,3.765-1.793.9-1.255-.9v-3.765Z" transform="translate(-313.451 -502.479)"/><path class="e" d="M318.4,406.165l-2.51,17.928L312.3,440.408l4.3.538,3.406-15.239,4.3-12.908-.538,15.418-.9,12.729h3.227l2.331-17.211,2.577-12.8-.067-4.773Z" transform="translate(-259.199 -337.099)"/><path class="e" d="M453.91,746.795s-.9-1.076-1.434-.538a22.681,22.681,0,0,0-1.793,2.689s-2.868,1.613-.538,1.972,3.048,0,3.048-.179a2.627,2.627,0,0,1,.359-.717l.9.179,1.255-.359s.538-3.3,0-3.175S454.089,747.333,453.91,746.795Z" transform="translate(-399.369 -640.438)"/><path class="e" d="M534.3,746.795s.9-1.076,1.434-.538a22.679,22.679,0,0,1,1.793,2.689s2.868,1.613.538,1.972-3.048,0-3.048-.179a2.627,2.627,0,0,0-.359-.717l-.9.179-1.255-.359s-.538-3.3,0-3.175S534.12,747.333,534.3,746.795Z" transform="translate(-468.285 -640.438)"/><circle class="f" cx="3.586" cy="3.586" r="3.586" transform="translate(64.132 40.65)"/><path class="f" d="M542.214,398.016a21.816,21.816,0,0,0-.179,3.765c.179.717.538,1.793.538,1.793l-5.737-1.076s1.614-3.406,1.255-3.944S542.214,398.016,542.214,398.016Z" transform="translate(-472.076 -351.539)"/><path class="g" d="M526.127,417.194l-5.916-1.255-3.406,20.8a7.767,7.767,0,0,1,4.661.179c2.51.9,5.916,0,5.916,0l-.717-19.542Z" transform="translate(-455.451 -366.414)"/><path class="e" d="M491.664,406.253l-2.1,1.109-2.689.538-2.868,6.813.359,4.841s-3.048,5.558-3.406,8.605c0,0,.359,4.661,6.275,4.482l3.944-10.936s1.614-8.247,0-10.578C491.176,411.127,492.331,406.757,491.664,406.253Z" transform="translate(-425.7 -358.375)"/><path class="e" d="M470.413,415.456l-.581-.1-.5.1a5.79,5.79,0,0,0-2.689,1.434c-1.434,1.255-6.275,5.2-6.633,6.275a6.023,6.023,0,0,0,.359,3.944,20.915,20.915,0,0,0,1.613,2.51l.538,1.255,3.048-.9s-1.972-3.765-1.793-5.378l3.586-2.868Z" transform="translate(-408.164 -365.931)"/><path class="e" d="M562.911,411.019l2.708,3.346,1.434,1.793-1.793,6.1-.9,5.2s2.151,8.247.359,10.757c0,0-1.076,1.255-1.434-.179a75.478,75.478,0,0,1-.359-8.247s-1.434-8.964-.717-11.295S562.174,411.438,562.911,411.019Z" transform="translate(-492.972 -362.331)"/><path class="f" d="M582.028,562.667v1.793s-.359,5.916,1.434,5.2.538-5.2.538-5.2l-.179-1.972Z" transform="translate(-509.56 -488.043)"/><path class="e" d="M530.047,363.569a10.547,10.547,0,0,0,3.2-3.476s2.5,2.78,4.032,2.919.139-3.336.139-3.336l-2.78-.7-2.641.278-2.085,1.39Z" transform="translate(-466.327 -319.142)"/><path class="e" d="M417.6,313.385l1.434.538.179,1.793.717,10.936-.359,8.247-2.689.179-.9-9.143-.358-10.04Z" transform="translate(-344.952 -260.095)"/><rect class="d" width="21.792" height="2.166" transform="translate(19.154 63.544)"/><rect class="a" width="21.792" height="0.82" transform="translate(19.154 68.645)"/><rect class="a" width="21.792" height="0.82" transform="translate(19.154 71.149)"/><rect class="a" width="11.26" height="0.82" transform="translate(19.154 73.684)"/><rect class="a" width="21.792" height="0.82" transform="translate(19.154 76.264)"/><rect class="a" width="21.792" height="0.82" transform="translate(19.154 78.845)"/><rect class="a" width="10.883" height="0.82" transform="translate(19.154 81.425)"/><rect class="a" width="21.792" height="0.82" transform="translate(19.154 84.005)"/><rect class="a" width="21.792" height="0.82" transform="translate(19.154 86.586)"/><rect class="d" width="6.882" height="2.262" transform="translate(34.09 89.751)"/></g><g transform="translate(1092.679 1072.8)"><path class="h" d="M166.669,206.739a21.887,21.887,0,0,1-3.166,11.38,14.3,14.3,0,0,1-5.13,10.772,17.55,17.55,0,0,1-2.555,1.856c-.036.023-.074.045-.112.067l-.2.121-.064.038h0a19.954,19.954,0,0,1-9.828,2.524H54.324A24.75,24.75,0,0,1,38.2,227.762a18.246,18.246,0,0,1-6.673-13.85A21.879,21.879,0,0,1,28,201.952a21.608,21.608,0,0,1,21.455-21.759c.419,0,.835.015,1.249.038,7.435-12.679,24.207-21.52,43.691-21.52,11.978,0,22.928,3.339,31.314,8.857a21.113,21.113,0,0,1,10.415-2.733,21.61,21.61,0,0,1,21.455,21.759,22.423,22.423,0,0,1-.121,2.276A21.818,21.818,0,0,1,166.669,206.739Z" transform="translate(-28 -154.547)"/><ellipse class="h" cx="47.516" cy="1.273" rx="47.516" ry="1.273" transform="translate(2.545 56.518)"/><g class="i" transform="translate(17.212 22.335)"><rect class="j" width="15.152" height="8.364" transform="translate(0 26.061)"/><rect class="k" width="4.606" height="0.97" transform="translate(5.333 27.516)"/><rect class="k" width="3.455" height="0.727" transform="translate(5.909 27.637)"/><rect class="j" width="15.152" height="8.364" transform="translate(15.394 26.061)"/><rect class="k" width="4.606" height="0.97" transform="translate(20.728 27.516)"/><rect class="k" width="3.455" height="0.727" transform="translate(21.303 27.637)"/><rect class="j" width="15.152" height="8.364" transform="translate(0 17.455)"/><rect class="k" width="4.606" height="0.97" transform="translate(5.333 18.909)"/><rect class="k" width="3.455" height="0.727" transform="translate(5.909 19.031)"/><rect class="j" width="15.152" height="8.364" transform="translate(15.394 17.455)"/><rect class="k" width="4.606" height="0.97" transform="translate(20.728 18.909)"/><rect class="k" width="3.455" height="0.727" transform="translate(21.303 19.031)"/><rect class="j" width="15.152" height="8.364" transform="translate(0 8.727)"/><rect class="k" width="4.606" height="0.97" transform="translate(5.333 10.182)"/><rect class="k" width="3.455" height="0.727" transform="translate(5.909 10.303)"/><rect class="j" width="15.152" height="8.364" transform="translate(15.394 8.727)"/><rect class="k" width="4.606" height="0.97" transform="translate(20.728 10.182)"/><rect class="k" width="3.455" height="0.727" transform="translate(21.303 10.303)"/><rect class="j" width="15.152" height="8.364" transform="translate(15.394)"/><rect class="k" width="4.606" height="0.97" transform="translate(20.728 1.455)"/><rect class="k" width="3.455" height="0.727" transform="translate(21.303 1.576)"/></g><g class="i" transform="translate(48.001 22.214)"><rect class="j" width="15.152" height="8.364" transform="translate(0 26.061)"/><rect class="k" width="4.606" height="0.97" transform="translate(5.333 27.516)"/><rect class="k" width="3.455" height="0.727" transform="translate(5.909 27.637)"/><rect class="j" width="15.152" height="8.364" transform="translate(15.394 26.061)"/><rect class="k" width="4.606" height="0.97" transform="translate(20.728 27.516)"/><rect class="k" width="3.455" height="0.727" transform="translate(21.303 27.637)"/><rect class="j" width="15.152" height="8.364" transform="translate(0 17.455)"/><rect class="k" width="4.606" height="0.97" transform="translate(5.333 18.909)"/><rect class="k" width="3.455" height="0.727" transform="translate(5.909 19.031)"/><rect class="j" width="15.152" height="8.364" transform="translate(15.394 17.455)"/><rect class="k" width="4.606" height="0.97" transform="translate(20.728 18.909)"/><rect class="k" width="3.455" height="0.727" transform="translate(21.303 19.031)"/><rect class="j" width="15.152" height="8.364" transform="translate(0 8.727)"/><rect class="k" width="4.606" height="0.97" transform="translate(5.333 10.182)"/><rect class="k" width="3.455" height="0.727" transform="translate(5.909 10.303)"/><rect class="j" width="15.152" height="8.364" transform="translate(15.394 8.727)"/><rect class="k" width="4.606" height="0.97" transform="translate(20.728 10.182)"/><rect class="k" width="3.455" height="0.727" transform="translate(21.303 10.303)"/><rect class="j" width="15.152" height="8.364" transform="translate(15.394)"/><rect class="k" width="4.606" height="0.97" transform="translate(20.728 1.455)"/><rect class="k" width="3.455" height="0.727" transform="translate(21.303 1.576)"/></g><path class="h" d="M840.294,124.384s-10.205-.616-9.005,6.536a1.738,1.738,0,0,0,.907,1.838s.018-.53,1.047-.349a4.79,4.79,0,0,0,1.109.053,2.311,2.311,0,0,0,1.355-.56h0s2.869-1.185,3.984-5.874c0,0,.825-1.023.793-1.286l-1.723.736a3.072,3.072,0,0,1,.121,2.275s-.056-2.23-.387-2.182c-.067.011-.895.43-.895.43s1.012,2.164.248,3.737c0,0,.29-2.667-.565-3.581l-1.212.708s1.183,2.235.381,4.059c0,0,.206-2.8-.636-3.887l-1.1.857s1.112,2.2.434,3.716c0,0-.089-3.257-.672-3.5a6.755,6.755,0,0,0-1.108,1.2s.761,1.6.288,2.444c0,0-.29-2.17-.527-2.182a7.2,7.2,0,0,0-1.057,2.424,5.227,5.227,0,0,1,.826-2.561,2.882,2.882,0,0,0-1.467.76s.149-1.017,1.7-1.105a6.713,6.713,0,0,1,1-1.158,6.308,6.308,0,0,0-2.481.286,2.786,2.786,0,0,1,2.765-.522l1.085-.886a8.978,8.978,0,0,0-2.9.029s.993-.848,3.189-.229l1.183-.7a10.831,10.831,0,0,0-2.767-.242,4.244,4.244,0,0,1,3.114.05l.849-.379s-1.27-.25-1.643-.29-.391-.142-.391-.142a4.406,4.406,0,0,1,2.387.265A10.69,10.69,0,0,0,840.294,124.384Z" transform="translate(-733.833 -124.37)"/><path class="h" d="M772.648,139.446s-4.606-.279-4.067,2.954a.789.789,0,0,0,.409.83s.008-.242.474-.159a2.12,2.12,0,0,0,.5.024,1.039,1.039,0,0,0,.612-.253h0a3.656,3.656,0,0,0,1.8-2.653s.372-.463.358-.582l-.778.332a1.4,1.4,0,0,1,.057,1.029s-.026-1.009-.175-.984c-.03,0-.4.194-.4.194a2.3,2.3,0,0,1,.113,1.69s.131-1.2-.256-1.618l-.548.32a2.411,2.411,0,0,1,.172,1.834,3.437,3.437,0,0,0-.287-1.756l-.5.387a2.372,2.372,0,0,1,.2,1.68s-.04-1.473-.3-1.583a3.03,3.03,0,0,0-.5.541s.344.727.131,1.1c0,0-.131-.981-.242-.984a3.288,3.288,0,0,0-.478,1.091,2.37,2.37,0,0,1,.373-1.158,1.3,1.3,0,0,0-.663.343s.068-.458.77-.5a3.309,3.309,0,0,1,.453-.522,2.842,2.842,0,0,0-1.121.13,1.258,1.258,0,0,1,1.25-.236l.485-.4a4.185,4.185,0,0,0-1.309.013,1.594,1.594,0,0,1,1.441-.1l.533-.319a4.793,4.793,0,0,0-1.251-.108,1.913,1.913,0,0,1,1.407.022l.382-.171s-.574-.114-.743-.131-.177-.064-.177-.064a1.986,1.986,0,0,1,1.079.121A4.9,4.9,0,0,0,772.648,139.446Z" transform="translate(-678.774 -137.613)"/><ellipse class="g" cx="4.874" cy="0.824" rx="4.874" ry="0.824" transform="translate(22.301 76.506)"/><path class="g" d="M236.142,734.923a1.411,1.411,0,0,0,.464-.7.626.626,0,0,0-.325-.714c-.3-.114-.617.093-.858.3a1.146,1.146,0,0,1-.834.4,1.273,1.273,0,0,0,.393-1.189.5.5,0,0,0-.109-.242c-.166-.177-.465-.1-.664.038a2.476,2.476,0,0,0-.81,2.07,3.889,3.889,0,0,1-.011-.848.874.874,0,0,0-.321-.755.961.961,0,0,0-.485-.114,1.007,1.007,0,0,0-.792.226.781.781,0,0,0,.03.97,3.086,3.086,0,0,0,.821.657,1.818,1.818,0,0,1,.585.559.506.506,0,0,1,.044.1h1.777A4.943,4.943,0,0,0,236.142,734.923Z" transform="translate(-206.952 -658.94)"/><path class="b" d="M713.847,462.907a.551.551,0,0,0-.3-.434.564.564,0,0,0-.747.315l-2.692,5.664-.606,22.3h.97l.364-22.254,2.963-5.244A.576.576,0,0,0,713.847,462.907Z" transform="translate(-626.893 -421.45)"/><path class="h" d="M438.706,717.434a17.55,17.55,0,0,1-2.555,1.856.415.415,0,0,1-.047.056.789.789,0,0,1-.333.167h0a19.952,19.952,0,0,1-9.828,2.524H359.3c-7.636-.785-12.3-1.827-12.3-2.97,0-.886,2.8-1.712,7.615-2.4q.749-.109,1.562-.211.5-.063,1.024-.121l.593-.069q.659-.075,1.354-.147h.038l.485-.049q.615-.064,1.255-.121l.31-.028.792-.07q.771-.069,1.576-.132l1.358-.1c4.662-.345,10.037-.606,15.885-.775l1.67-.057.562-.012,1.188-.027.476-.01.5-.01.356-.006,1.673-.027.859-.012h.176q3.049-.036,6.211-.038c4.167,0,8.209.05,12.06.144h0q3.316.08,6.43.2h.019c5.986.235,11.343.582,15.777,1.012l.081.008c1.138.11,2.216.228,3.227.349.952.114,1.845.234,2.674.356.287.042.566.086.838.129l.069.012C436.843,717.04,437.851,717.229,438.706,717.434Z" transform="translate(-308.333 -643.09)"/><path class="l" d="M771.543,333.455a.43.43,0,0,1-.047.056.788.788,0,0,1-.333.167h0a3.362,3.362,0,0,1-.752.121h-.076a3.253,3.253,0,0,1-.435-.015,2.021,2.021,0,0,0-.319-.021h-.015a2.269,2.269,0,0,0-.455.113,4.029,4.029,0,0,1-1.006.143h-.121c-.381,0-.766-.013-1.148-.011h-.185c-.655.017-1.306.121-1.96.132h-.21a3.084,3.084,0,0,1-1.807-.541.713.713,0,0,1-.242-.272.758.758,0,0,1-.043-.364.856.856,0,0,1,.219-.606.956.956,0,0,1,.349-.168c.222-.071.445-.141.667-.21s.475-.143.714-.213l.046-.015.133-.04.086-.029a1.408,1.408,0,0,0,.3-.136.988.988,0,0,0,.307-.307c.013-.022.028-.045.04-.068s0-.038-.008-.057c-.021-.152-.036-.307-.063-.455a1.818,1.818,0,0,1-.9-.507,2.879,2.879,0,0,1-.523-.707,14.828,14.828,0,0,1-.682-1.8,16.063,16.063,0,0,0-1.355-2.6c-.463-.773-.928-1.549-1.455-2.28-.35-.485-.727-.947-1.074-1.433a12.726,12.726,0,0,1-2.07-4.521,5.976,5.976,0,0,0-.251-.919,9.341,9.341,0,0,0-.886-1.389,4.6,4.6,0,0,1-.641-1.645c-.061-.332-.162-.691-.493-.727h0l-.035.069a15.9,15.9,0,0,1-2.424,3.779,3.994,3.994,0,0,0-.452.52,4.985,4.985,0,0,0-.291.56A3.641,3.641,0,0,1,751,318a1.845,1.845,0,0,1-.255.215,1.371,1.371,0,0,1-.4.2h0a1.178,1.178,0,0,1-.172.039c0,.015.006.028.007.042s.007.032.01.047a5.7,5.7,0,0,1-.222,2.9c-.009.029-.018.057-.029.086q-.075.2-.164.4c-.148.321-.324.629-.462.955-.023.056-.046.112-.066.167a13.543,13.543,0,0,0-.427,4.143,4.569,4.569,0,0,1-.108.907c-.082.336-.214.682-.287,1.029a1.742,1.742,0,0,0-.016.794l-.029.011c-.13.048-.262.092-.394.133v.018c.047.272.093.543.141.813a1.19,1.19,0,0,0,.25.65.892.892,0,0,1,.121.121c.1.15.011.349.029.527.027.252.259.467.223.718a.473.473,0,0,1-.284.337.838.838,0,0,1-.187.059l-.04.009c-.073.013-.145.021-.218.028a10.167,10.167,0,0,1-2.713.027c-.177-.03-.353-.07-.532-.085a3.973,3.973,0,0,0-.679.028,33.341,33.341,0,0,1-4.993.1,1.384,1.384,0,0,1-1.159-.464,1.343,1.343,0,0,1-.025-1.053,1.138,1.138,0,0,1,.147-.364.228.228,0,0,1,.027-.034,1.208,1.208,0,0,1,1-.284l1.181.035a1.105,1.105,0,0,0,.347-.027,3.653,3.653,0,0,0,.516-.295c.225-.108.509-.121.671-.305l.021-.027a1.408,1.408,0,0,0,.08-.121c0-.009.011-.017.017-.025h0a.22.22,0,0,1,.015-.022,1.918,1.918,0,0,1,.622-.387.638.638,0,0,0,.091-.064l.024-.022a2.486,2.486,0,0,1-.589-.593.6.6,0,0,1-.135-.235.341.341,0,0,1,.015-.2.307.307,0,0,1,.019-.045l.006-.012c.082-.162.252-.309.345-.475a.07.07,0,0,0,.008-.017.748.748,0,0,0-.036-.813c.1-1.6.536-3.152.633-4.753.039-.634.023-1.27.052-1.907s.1-1.253.168-1.878a28.65,28.65,0,0,0,.493-4.257,2.607,2.607,0,0,1,.017-.4.232.232,0,0,1,0-.029,2.461,2.461,0,0,1,.27-.839,6.45,6.45,0,0,1,.6-.839,8.619,8.619,0,0,0,1.907-3.132,6.785,6.785,0,0,1,.742-1.733,3.056,3.056,0,0,1,.649-.91,2.854,2.854,0,0,0,.428-.364,3.421,3.421,0,0,0,.324-.918c.061-.159.154-.3.2-.468a.249.249,0,0,1,.012-.05,3.284,3.284,0,0,0,.042-.5,1.146,1.146,0,0,1,.013-.143h0a5.069,5.069,0,0,1,.413-1.385c.026-.056.05-.113.074-.168a5.193,5.193,0,0,1-1.455-1.262,2.968,2.968,0,0,1-.353-.532,6.585,6.585,0,0,1-.424-1.6,27.313,27.313,0,0,1-1.015-3.838,4.246,4.246,0,0,0-.141-1.2,2.424,2.424,0,0,0-.137-.3c-.022-.041-.043-.082-.064-.121l-.024-.046-.062-.121-.1.078a72.61,72.61,0,0,1-7.794,5.324l-.233.138a.847.847,0,0,0-.308.252c-.01.016-.018.032-.027.047h0c-.056.115-.07.242-.121.364a.993.993,0,0,1-.675.537,2.084,2.084,0,0,1-1.533-.2,1.875,1.875,0,0,1-.175-.1,2.363,2.363,0,0,1-.446.19,5.284,5.284,0,0,1-1.495.133,4.489,4.489,0,0,0-1.49.165,3.723,3.723,0,0,1-.955.3.892.892,0,0,1-.114,0,1.651,1.651,0,0,1-.541-.159l-.1-.045a1.629,1.629,0,0,1-.15-.081.831.831,0,0,1-.147-.115.535.535,0,0,1-.136-.231.383.383,0,0,1,0-.193.12.12,0,0,1,.041-.073.13.13,0,0,1,.071-.018,2.179,2.179,0,0,1,.414.035,1.5,1.5,0,0,0,.243.013h.044a.525.525,0,0,0,.364-.206.225.225,0,0,0,.032-.058h0a.267.267,0,0,0,.022-.108.236.236,0,0,0,0-.028c-.051-.023-.1-.046-.151-.074-.025-.013-.05-.028-.074-.042l-.015-.01a.826.826,0,0,1-.121-.1.425.425,0,0,1-.062-.078.467.467,0,0,1-.072-.145h0a.651.651,0,0,0-.3.008c-.132.036-.266.114-.4.141a.352.352,0,0,1-.2-.008c-.189-.068-.256-.3-.3-.5-.007-.038-.016-.076-.022-.115h0a.619.619,0,0,1,0-.225.83.83,0,0,1,.319-.416l.4-.333.029-.024a.692.692,0,0,0-.018-.1.62.62,0,0,1,0-.227.826.826,0,0,1,.319-.415l.88-.741a1.034,1.034,0,0,1,.559-.3c.319-.022.573.242.812.455a1.843,1.843,0,0,0,1.067.512,1.565,1.565,0,0,0,.564-.078l.1-.034c-.022-.045-.044-.09-.064-.135-.035-.074-.07-.149-.1-.224a2.407,2.407,0,0,0,1.377-.656c.391-.339.727-.741,1.122-1.074.427-.364.917-.634,1.349-.984,1.006-.816,1.674-2.015,2.75-2.733a3.572,3.572,0,0,0,1.059-.824c.079-.121.138-.242.219-.364a3.838,3.838,0,0,1,1.066-.783,5.3,5.3,0,0,0,.979-.977c.211-.253.423-.507.624-.767.185-.346.342-.707.536-1.047a5.138,5.138,0,0,1,.573-.81c.05-.1.1-.194.155-.288s.094-.159.145-.242c.035-.055.072-.107.109-.16-.11-.2-.216-.364-.265-.438l-.024-.033a3.637,3.637,0,0,0-.342-.32,3.212,3.212,0,0,1-.376-.08,3.536,3.536,0,0,1-2.6-3.415.027.027,0,0,1,0-.011,3.515,3.515,0,0,1,.386-1.6c.051-.1.105-.2.165-.288a1.093,1.093,0,0,1-.161-.065.639.639,0,0,1-.226-.185.536.536,0,0,1-.093-.235,1.2,1.2,0,0,1,.087-.587,2.757,2.757,0,0,1,.113-.262.114.114,0,0,0,.008-.016,3.369,3.369,0,0,1,2.851-1.809,5.133,5.133,0,0,1,3.439,1.371,4.6,4.6,0,0,1,.781.821,4.966,4.966,0,0,1,.812,2.527,3.874,3.874,0,0,1-.014.839,1.978,1.978,0,0,1-.061.293c-.016.057-.036.114-.058.171a1.11,1.11,0,0,1-.055.121v.006c-.018.039-.039.075-.059.112l-.011.016-.016.025c.01.023.021.047.032.07s.021.045.033.067h.015c.242.019.467.053.714.073a1.643,1.643,0,0,1,.344.053,2.3,2.3,0,0,1,.629.393c.5.356,1.125.522,1.621.891a6.492,6.492,0,0,1,1.532,2.244,25.552,25.552,0,0,1,1.948,3.144q.284.784.57,1.566a24.425,24.425,0,0,0,1.25,3.012,44.3,44.3,0,0,1,2.218,3.954.63.63,0,0,0,.3.327,25.737,25.737,0,0,1,2.043,3.417,6.408,6.408,0,0,1,.7,1.979,4.775,4.775,0,0,1-.152,1.85,8.984,8.984,0,0,1-.355,1.05,1.731,1.731,0,0,0-.121.375v.04a3.424,3.424,0,0,0,.089.7,1.288,1.288,0,0,1-.062.555c-.01.028-.021.056-.032.084a3,3,0,0,0-.19.441.432.432,0,0,0-.01.056,2.247,2.247,0,0,0,.121.792,10.627,10.627,0,0,1,.121,2.909c-.028.485.364.874.691,1.232a13.264,13.264,0,0,1,1.537,2.235,7.15,7.15,0,0,1,.627,1.253,10.478,10.478,0,0,1,.338,1.546c.309,1.6,1.319,3.013,1.593,4.617a4.121,4.121,0,0,0,.937,1.986,4.2,4.2,0,0,1,.4.485,1.937,1.937,0,0,1,.2.436,3.238,3.238,0,0,1,.166,1.107,1.665,1.665,0,0,0,.03.538c.114.372.521.577.69.927s.052.8.121,1.2a1.292,1.292,0,0,0,.485.807c-.1.085-.2.162-.3.242a1.214,1.214,0,0,1,.251.264,1.188,1.188,0,0,1,.121.215c.16.372.165.815.3,1.212a.87.87,0,0,1,.086.507.56.56,0,0,0-.041.15c0,.109.114.181.158.28A.3.3,0,0,1,771.543,333.455Z" transform="translate(-643.725 -257.256)"/><path class="f" d="M860.924,325.1a7.574,7.574,0,0,0,2.05-1.032l2.256-1.436a1.962,1.962,0,0,1-1.455-1.013,5.116,5.116,0,0,1-.55-1.747,9.14,9.14,0,0,0-2.593,1.7c-.31.268-.97.673-1.065,1.091s.515.758.752,1.038C860.4,323.789,861.164,325.031,860.924,325.1Z" transform="translate(-758.76 -296.172)"/><path class="k" d="M860.924,325.1a7.574,7.574,0,0,0,2.05-1.032l2.256-1.436a1.962,1.962,0,0,1-1.455-1.013,5.116,5.116,0,0,1-.55-1.747,9.14,9.14,0,0,0-2.593,1.7c-.31.268-.97.673-1.065,1.091s.515.758.752,1.038C860.4,323.789,861.164,325.031,860.924,325.1Z" transform="translate(-758.76 -296.172)"/><path class="f" d="M733.58,456.688a2.508,2.508,0,0,1-1.266.383,1.839,1.839,0,0,1-1.065-.508c-.243-.211-.492-.474-.811-.452a1.039,1.039,0,0,0-.558.3l-.879.736a.827.827,0,0,0-.319.412.816.816,0,0,0,.021.342c.04.2.107.425.3.492s.4-.076.6-.131a.7.7,0,0,1,.687.2.409.409,0,0,1,.121.264c0,.219-.242.364-.466.374s-.436-.062-.657-.048a.1.1,0,0,0-.113.09.463.463,0,0,0,.142.422,1.23,1.23,0,0,0,.4.242,1.614,1.614,0,0,0,.541.158,2.87,2.87,0,0,0,1.067-.3,4.617,4.617,0,0,1,1.489-.164,5.252,5.252,0,0,0,1.492-.132,1.692,1.692,0,0,0,1.126-.916.22.22,0,0,0,.021-.141.232.232,0,0,0-.1-.121c-.676-.5-.95-1.109-1.712-1.469Z" transform="translate(-643.742 -415.898)"/><path class="k" d="M733.58,456.688a2.508,2.508,0,0,1-1.266.383,1.839,1.839,0,0,1-1.065-.508c-.243-.211-.492-.474-.811-.452a1.039,1.039,0,0,0-.558.3l-.879.736a.827.827,0,0,0-.319.412.816.816,0,0,0,.021.342c.04.2.107.425.3.492s.4-.076.6-.131a.7.7,0,0,1,.687.2.409.409,0,0,1,.121.264c0,.219-.242.364-.466.374s-.436-.062-.657-.048a.1.1,0,0,0-.113.09.463.463,0,0,0,.142.422,1.23,1.23,0,0,0,.4.242,1.614,1.614,0,0,0,.541.158,2.87,2.87,0,0,0,1.067-.3,4.617,4.617,0,0,1,1.489-.164,5.252,5.252,0,0,0,1.492-.132,1.692,1.692,0,0,0,1.126-.916.22.22,0,0,0,.021-.141.232.232,0,0,0-.1-.121c-.676-.5-.95-1.109-1.712-1.469Z" transform="translate(-643.742 -415.898)"/><path class="g" d="M777.781,352.537a1.461,1.461,0,0,0-1.282-.149,2.768,2.768,0,0,0-1.1.736,5.077,5.077,0,0,0-.779,1.029c-.206.364-.364.744-.57,1.107a11.77,11.77,0,0,1-1.317,1.788,5.074,5.074,0,0,1-.978.97,3.8,3.8,0,0,0-1.064.778c-.081.114-.139.242-.219.358a3.52,3.52,0,0,1-1.058.818c-1.074.715-1.742,1.906-2.746,2.716-.433.349-.921.623-1.347.979-.4.331-.727.727-1.122,1.067a2.4,2.4,0,0,1-1.375.651,7.083,7.083,0,0,0,1.345,2.118,2.4,2.4,0,0,0,2.281.745.991.991,0,0,0,.675-.533,2.284,2.284,0,0,1,.143-.413.849.849,0,0,1,.307-.251,72.466,72.466,0,0,0,9.226-6.392c.779-.635,1.553-1.2,2.353-1.818a5.148,5.148,0,0,0,.792-.693,2.635,2.635,0,0,0,.32-2.9,6.89,6.89,0,0,0-.735-1A8.747,8.747,0,0,0,777.781,352.537Z" transform="translate(-673.75 -324.674)"/><path class="k" d="M777.781,352.537a1.461,1.461,0,0,0-1.282-.149,2.768,2.768,0,0,0-1.1.736,5.077,5.077,0,0,0-.779,1.029c-.206.364-.364.744-.57,1.107a11.77,11.77,0,0,1-1.317,1.788,5.074,5.074,0,0,1-.978.97,3.8,3.8,0,0,0-1.064.778c-.081.114-.139.242-.219.358a3.52,3.52,0,0,1-1.058.818c-1.074.715-1.742,1.906-2.746,2.716-.433.349-.921.623-1.347.979-.4.331-.727.727-1.122,1.067a2.4,2.4,0,0,1-1.375.651,7.083,7.083,0,0,0,1.345,2.118,2.4,2.4,0,0,0,2.281.745.991.991,0,0,0,.675-.533,2.284,2.284,0,0,1,.143-.413.849.849,0,0,1,.307-.251,72.466,72.466,0,0,0,9.226-6.392c.779-.635,1.553-1.2,2.353-1.818a5.148,5.148,0,0,0,.792-.693,2.635,2.635,0,0,0,.32-2.9,6.89,6.89,0,0,0-.735-1A8.747,8.747,0,0,0,777.781,352.537Z" transform="translate(-673.75 -324.674)"/><path class="b" d="M808.936,719.56a1.853,1.853,0,0,0-.622.385c-.048.063-.081.137-.133.2-.161.189-.447.2-.672.305a3.249,3.249,0,0,1-.515.292,1.116,1.116,0,0,1-.348.027l-1.178-.035a1.171,1.171,0,0,0-1.028.313,1.109,1.109,0,0,0-.148.364,1.348,1.348,0,0,0,.026,1.047,1.4,1.4,0,0,0,1.157.462,33.422,33.422,0,0,0,4.987-.1,3.926,3.926,0,0,1,.676-.028c.179.015.355.054.532.085a10.2,10.2,0,0,0,2.709-.027,1.419,1.419,0,0,0,.445-.095.471.471,0,0,0,.282-.336c.038-.25-.2-.462-.222-.713-.018-.177.067-.374-.031-.525a.867.867,0,0,0-.121-.121,1.192,1.192,0,0,1-.25-.645l-.212-1.245a.382.382,0,0,0-.1-.235.349.349,0,0,0-.15-.062,8.046,8.046,0,0,0-2.788.1,7.486,7.486,0,0,1-1.427.071c-.206-.013-.286-.037-.44.1S809.129,719.447,808.936,719.56Z" transform="translate(-710.113 -646.73)"/><path class="b" d="M1009.055,727.271a2.044,2.044,0,0,1-.516.2q-.714.209-1.426.435a.944.944,0,0,0-.348.167.846.846,0,0,0-.219.606.763.763,0,0,0,.042.364.733.733,0,0,0,.242.269,3.183,3.183,0,0,0,1.933.538c.681,0,1.358-.115,2.039-.133a9.664,9.664,0,0,0,2.459-.136,2.1,2.1,0,0,1,.468-.114,1.972,1.972,0,0,1,.318.021,3.369,3.369,0,0,0,1.263-.115.778.778,0,0,0,.334-.166.312.312,0,0,0,.09-.342c-.043-.1-.155-.17-.156-.278a.522.522,0,0,1,.04-.15.851.851,0,0,0-.086-.5,5.329,5.329,0,0,0-.411-1.412,1.79,1.79,0,0,0-1.283-.638,3.564,3.564,0,0,0-1.194.034c-.442.095-.856.292-1.29.418a4.22,4.22,0,0,1-1.552.147c-.347-.029-.228.025-.345.316A1.033,1.033,0,0,1,1009.055,727.271Z" transform="translate(-887.927 -652.943)"/><circle class="f" cx="3.515" cy="3.515" r="3.515" transform="translate(98.244 20.214)"/><path class="m" d="M867.263,375.591a6.229,6.229,0,0,1-4,1.361,3.286,3.286,0,0,1-1.752-.373c-.036-.2-.051-.413-.087-.612a2.235,2.235,0,0,1-1.416-1.206,14.5,14.5,0,0,1-.682-1.792,16.007,16.007,0,0,0-1.353-2.585c-.463-.768-.927-1.539-1.454-2.266-.349-.485-.727-.941-1.073-1.424a12.61,12.61,0,0,1-2.067-4.492,5.855,5.855,0,0,0-.251-.913,9.294,9.294,0,0,0-.885-1.381,4.564,4.564,0,0,1-.641-1.635c-.059-.33-.161-.686-.492-.72h0a15.878,15.878,0,0,1-2.457,3.824,3.964,3.964,0,0,0-.452.516,4.967,4.967,0,0,0-.291.558,3.6,3.6,0,0,1-.642.936,1.5,1.5,0,0,1-.827.451,5.653,5.653,0,0,1-.4,3.455c-.147.32-.322.625-.461.949a12.134,12.134,0,0,0-.493,4.284,4.491,4.491,0,0,1-.107.9,3.942,3.942,0,0,0-.3,1.812,9.522,9.522,0,0,1-4.818.3,2.321,2.321,0,0,1-.9-.273,2.47,2.47,0,0,1-.589-.589.593.593,0,0,1-.135-.234c-.063-.276.242-.485.384-.727a.735.735,0,0,0-.028-.825c.1-1.587.536-3.136.633-4.727.039-.63.023-1.263.052-1.895s.1-1.246.167-1.867a28.3,28.3,0,0,0,.493-4.23,2.463,2.463,0,0,1,.292-1.259,6.373,6.373,0,0,1,.594-.834,8.529,8.529,0,0,0,1.9-3.112,6.737,6.737,0,0,1,.741-1.722,3.048,3.048,0,0,1,.647-.906,2.842,2.842,0,0,0,.428-.364,3.36,3.36,0,0,0,.324-.912c.061-.158.154-.3.2-.465a2.659,2.659,0,0,0,.055-.546,5.1,5.1,0,0,1,.5-1.691,5.182,5.182,0,0,1-1.455-1.253,3.074,3.074,0,0,1-.351-.53,6.5,6.5,0,0,1-.424-1.593,27.212,27.212,0,0,1-1.013-3.813,4.232,4.232,0,0,0-.139-1.2,3.713,3.713,0,0,0-.225-.467,1.9,1.9,0,0,1-.191-.47,8.155,8.155,0,0,1,0-1.091,7.886,7.886,0,0,0-.234-.936,4.45,4.45,0,0,1-.035-1.236,10.131,10.131,0,0,0,.095-1.464,5.657,5.657,0,0,1,1.521-4.356l.028-.028c.231-.242.485-.457.693-.714.284-.344.485-.749.784-1.084.131-.149.279-.282.408-.433a3.6,3.6,0,0,1,.394-.441.606.606,0,0,1,.548-.147,1.515,1.515,0,0,0,.167.516c.252.019.476.055.727.074a1.641,1.641,0,0,1,.344.053,2.242,2.242,0,0,1,.628.389c.5.355,1.124.52,1.619.886a6.4,6.4,0,0,1,1.53,2.229,24.8,24.8,0,0,1,1.94,3.125l.568,1.556a24.288,24.288,0,0,0,1.248,2.993,45.109,45.109,0,0,1,2.216,3.93.633.633,0,0,0,.295.325,25.36,25.36,0,0,1,2.04,3.394,6.319,6.319,0,0,1,.7,1.967,5.725,5.725,0,0,1-.505,2.881,1.5,1.5,0,0,0-.121.412,3.362,3.362,0,0,0,.089.691,1.279,1.279,0,0,1-.093.635,2.931,2.931,0,0,0-.19.439,1.915,1.915,0,0,0,.114.841,10.469,10.469,0,0,1,.121,2.89c-.028.485.364.869.69,1.224a13.1,13.1,0,0,1,1.536,2.221,7.191,7.191,0,0,1,.625,1.246,10.321,10.321,0,0,1,.338,1.536c.308,1.589,1.316,2.994,1.59,4.588a4.077,4.077,0,0,0,.936,1.972,4.3,4.3,0,0,1,.4.485,1.958,1.958,0,0,1,.2.434,3.2,3.2,0,0,1,.166,1.1,1.641,1.641,0,0,0,.03.535c.114.37.521.573.688.921s.052.794.121,1.189A1.28,1.28,0,0,0,867.263,375.591Z" transform="translate(-740.019 -302.52)"/><path class="f" d="M739.58,447.688a2.507,2.507,0,0,1-1.265.383,1.838,1.838,0,0,1-1.066-.508c-.242-.211-.492-.474-.811-.452a1.039,1.039,0,0,0-.558.3l-.879.736a.826.826,0,0,0-.319.412.815.815,0,0,0,.021.342c.04.2.107.426.3.492s.4-.076.6-.131a.7.7,0,0,1,.687.2.409.409,0,0,1,.121.264c0,.219-.242.364-.465.375s-.437-.062-.657-.049a.1.1,0,0,0-.113.09.462.462,0,0,0,.142.422,1.225,1.225,0,0,0,.4.242,1.609,1.609,0,0,0,.54.158,2.869,2.869,0,0,0,1.067-.3,4.611,4.611,0,0,1,1.489-.164,5.253,5.253,0,0,0,1.492-.132,1.692,1.692,0,0,0,1.126-.916.221.221,0,0,0,.021-.141.232.232,0,0,0-.1-.121c-.676-.5-.95-1.109-1.711-1.469Z" transform="translate(-649.015 -407.989)"/><path class="b" d="M840.742,281.532a3.006,3.006,0,0,0-.587.255,1.011,1.011,0,0,1-.829-.044.64.64,0,0,1-.227-.184.9.9,0,0,1-.006-.817,3.332,3.332,0,0,1,2.97-2.073,5.141,5.141,0,0,1,3.434,1.361,4.693,4.693,0,0,1,.779.816,4.926,4.926,0,0,1,.811,2.512,3.272,3.272,0,0,1-.074,1.125,1.367,1.367,0,0,1-.638.859,1.259,1.259,0,0,1-1.113-.048,4.691,4.691,0,0,1-.952-.693,1.412,1.412,0,0,0-.474-.3.484.484,0,0,0-.513.121c-.163.2-.121.515-.269.727a.846.846,0,0,1-.715.242.788.788,0,0,1-.678-.228.852.852,0,0,1-.068-.695,2.277,2.277,0,0,0,.121-.709c-.05-.485-.474-.783-.606-1.229-.086-.292.1-.416.084-.68A.381.381,0,0,0,840.742,281.532Z" transform="translate(-740.693 -259.962)"/><path class="k" d="M910.28,518.373v.03h0a15.878,15.878,0,0,1-2.457,3.824,3.96,3.96,0,0,0-.452.516,4.953,4.953,0,0,0-.291.557,3.592,3.592,0,0,1-.642.936l-.878.439,2.788-14.546Z" transform="translate(-799.188 -463.37)"/><path class="k" d="M870.922,354.118a5.146,5.146,0,0,1-.792.693c-.8.606-1.576,1.178-2.353,1.818q-.939.765-1.905,1.5a1.9,1.9,0,0,1-.191-.47,8.186,8.186,0,0,1,0-1.091,7.892,7.892,0,0,0-.234-.936,4.438,4.438,0,0,1-.035-1.236,10.148,10.148,0,0,0,.095-1.464,5.657,5.657,0,0,1,1.529-4.365l.028-.028a2.122,2.122,0,0,1,.412-.184,1.462,1.462,0,0,1,1.282.155,8.744,8.744,0,0,1,1.746,1.712,6.888,6.888,0,0,1,.735,1A2.635,2.635,0,0,1,870.922,354.118Z" transform="translate(-763.881 -321.13)"/><path class="n" d="M783.781,343.537a1.462,1.462,0,0,0-1.282-.149,2.768,2.768,0,0,0-1.1.736,5.074,5.074,0,0,0-.779,1.029c-.206.364-.364.744-.57,1.107a11.768,11.768,0,0,1-1.317,1.788,5.067,5.067,0,0,1-.978.97,3.8,3.8,0,0,0-1.064.778c-.081.114-.14.242-.22.358a3.514,3.514,0,0,1-1.058.818c-1.074.715-1.742,1.905-2.746,2.716-.433.349-.921.623-1.347.979-.4.331-.727.727-1.122,1.067a2.4,2.4,0,0,1-1.375.651,7.078,7.078,0,0,0,1.345,2.118,2.4,2.4,0,0,0,2.281.745.991.991,0,0,0,.675-.533,2.272,2.272,0,0,1,.143-.413.847.847,0,0,1,.307-.251,72.457,72.457,0,0,0,9.226-6.392c.78-.635,1.553-1.2,2.353-1.818a5.149,5.149,0,0,0,.792-.693,2.635,2.635,0,0,0,.32-2.9,6.889,6.889,0,0,0-.734-1A8.746,8.746,0,0,0,783.781,343.537Z" transform="translate(-679.022 -316.765)"/><g class="o" transform="translate(98.303 20.266)"><path d="M842.575,296.232A.8.8,0,0,1,841.9,296a.857.857,0,0,1-.068-.695,2.274,2.274,0,0,0,.121-.709c-.05-.485-.474-.783-.606-1.229-.086-.292.1-.416.083-.68a.384.384,0,0,0-.453-.313,3,3,0,0,0-.587.254,1.011,1.011,0,0,1-.829-.044.64.64,0,0,1-.227-.184.9.9,0,0,1-.006-.817c0-.01.008-.018.012-.028a2.932,2.932,0,0,0-.255.513.9.9,0,0,0,.006.817.64.64,0,0,0,.227.184,1.011,1.011,0,0,0,.829.044,3.006,3.006,0,0,1,.587-.255.384.384,0,0,1,.453.313c.019.264-.17.388-.084.68.13.446.554.749.606,1.229a2.133,2.133,0,0,1-.121.709.844.844,0,0,0,.068.695,1.149,1.149,0,0,0,1.393-.015,1.019,1.019,0,0,0,.13-.372A1.026,1.026,0,0,1,842.575,296.232Z" transform="translate(-838.987 -291.56)"/><path d="M878.652,321.97a1.259,1.259,0,0,1-1.113-.048,4.7,4.7,0,0,1-.952-.693,1.414,1.414,0,0,0-.474-.3.485.485,0,0,0-.513.121.916.916,0,0,0-.151.407.513.513,0,0,1,.422-.045,1.412,1.412,0,0,1,.474.3,4.79,4.79,0,0,0,.952.693,1.263,1.263,0,0,0,1.113.048,1.349,1.349,0,0,0,.622-.816A1.121,1.121,0,0,1,878.652,321.97Z" transform="translate(-871.03 -317.342)"/></g><circle class="b" cx="3.636" cy="3.636" r="3.636" transform="translate(72.122 69.73)"/><circle class="k" cx="3.636" cy="3.636" r="3.636" transform="translate(72.122 69.73)"/><circle class="j" cx="2.303" cy="2.303" r="2.303" transform="translate(73.456 71.063)"/><circle class="k" cx="2.303" cy="2.303" r="2.303" transform="translate(73.456 71.063)"/><path class="b" d="M630,679.994l2.385,5.394a.463.463,0,0,0,.84.017l2.835-5.775Z" transform="translate(-557.029 -612.324)"/><path class="k" d="M630,679.994l2.385,5.394a.463.463,0,0,0,.84.017l2.835-5.775Z" transform="translate(-557.029 -612.324)"/><circle class="b" cx="3.636" cy="3.636" r="3.636" transform="translate(49.455 69.73)"/><circle class="k" cx="3.636" cy="3.636" r="3.636" transform="translate(49.455 69.73)"/><circle class="j" cx="2.303" cy="2.303" r="2.303" transform="translate(50.788 71.063)"/><circle class="k" cx="2.303" cy="2.303" r="2.303" transform="translate(50.788 71.063)"/><path class="b" d="M443,679.994l2.385,5.394a.463.463,0,0,0,.84.017l2.835-5.775Z" transform="translate(-392.696 -612.324)"/><path class="k" d="M443,679.994l2.385,5.394a.463.463,0,0,0,.84.017l2.835-5.775Z" transform="translate(-392.696 -612.324)"/><path class="b" d="M723.241,464.907a.552.552,0,0,0-.3-.434.564.564,0,0,0-.747.315l-2.086,5.179-.606,23.273h.97l.364-23.223,2.356-4.759A.576.576,0,0,0,723.241,464.907Z" transform="translate(-635.681 -423.208)"/><path class="g" d="M368.5,545.624l3.273-2.061,35.334-.3.909,2.364Z" transform="translate(-323.833 -477.409)"/><path class="b" d="M368.5,562.13v-2.182l40.156-.388-.039,1.479h-39.39v1.091Z" transform="translate(-323.833 -491.733)"/><circle class="b" cx="3.636" cy="3.636" r="3.636" transform="translate(46.122 71.003)"/><circle class="j" cx="2.303" cy="2.303" r="2.303" transform="translate(47.455 72.336)"/><path class="b" d="M415.5,690.494l2.386,5.394a.463.463,0,0,0,.84.017l2.835-5.775Z" transform="translate(-368.53 -621.552)"/><circle class="b" cx="3.636" cy="3.636" r="3.636" transform="translate(74.365 71.003)"/><circle class="j" cx="2.303" cy="2.303" r="2.303" transform="translate(75.698 72.336)"/><path class="b" d="M648.5,690.494l2.386,5.394a.463.463,0,0,0,.84.017l2.835-5.775Z" transform="translate(-573.287 -621.552)"/><rect class="j" width="15.152" height="8.364" transform="translate(49.213 58.7)"/><rect class="k" width="4.606" height="0.97" transform="translate(54.546 60.154)"/><rect class="k" width="3.455" height="0.727" transform="translate(55.122 60.275)"/><rect class="j" width="15.152" height="8.364" transform="translate(64.607 58.7)"/><rect class="k" width="4.606" height="0.97" transform="translate(69.94 60.154)"/><rect class="k" width="3.455" height="0.727" transform="translate(70.516 60.275)"/><rect class="j" width="15.152" height="8.364" transform="translate(49.213 50.093)"/><rect class="k" width="4.606" height="0.97" transform="translate(54.546 51.548)"/><rect class="k" width="3.455" height="0.727" transform="translate(55.122 51.669)"/><rect class="j" width="15.152" height="8.364" transform="translate(64.607 50.093)"/><rect class="k" width="4.606" height="0.97" transform="translate(69.94 51.548)"/><rect class="k" width="3.455" height="0.727" transform="translate(70.516 51.669)"/><rect class="j" width="15.152" height="8.364" transform="translate(49.213 41.366)"/><rect class="k" width="4.606" height="0.97" transform="translate(54.546 42.821)"/><rect class="k" width="3.455" height="0.727" transform="translate(55.122 42.942)"/><rect class="j" width="15.152" height="8.364" transform="translate(64.607 41.366)"/><rect class="k" width="4.606" height="0.97" transform="translate(69.94 42.821)"/><rect class="k" width="3.455" height="0.727" transform="translate(70.516 42.942)"/><rect class="j" width="15.152" height="8.364" transform="translate(64.607 32.639)"/><rect class="k" width="4.606" height="0.97" transform="translate(69.94 34.093)"/><rect class="k" width="3.455" height="0.727" transform="translate(70.516 34.214)"/></g><g transform="translate(891.938 1005.295)"><ellipse class="k" cx="89.47" cy="25.564" rx="89.47" ry="25.564" transform="translate(8.123 42.052)"/><path class="p" d="M251.911,298.478l-8.89-.657H126.14V280.7H251.911Z" transform="translate(-102.709 -228.578)"/><path class="q" d="M182.337,210.337H174.66v-4.52a3.157,3.157,0,0,1,3.157-3.157h1.363a3.157,3.157,0,0,1,3.157,3.157Z" transform="translate(-160.117 -202.009)"/><path class="d" d="M285.172,294.016v26.121l-8.573-.111c0-.186.013-.371.013-.546a16.9,16.9,0,1,0-33.8,0v.11l-8.556-.111H189.912a16.9,16.9,0,0,0-.1-1.857c-.032-.3-.071-.589-.121-.878a16.6,16.6,0,0,0-.509-2.2c-.089-.3-.186-.589-.293-.878a17.006,17.006,0,0,0-.988-2.2c-.16-.3-.331-.591-.509-.878a16.933,16.933,0,0,0-1.618-2.2q-.4-.455-.819-.878a16.9,16.9,0,0,0-23.881,0q-.425.425-.819.878a16.934,16.934,0,0,0-1.618,2.2c-.186.288-.349.579-.509.878a17.006,17.006,0,0,0-.988,2.2c-.106.29-.2.581-.293.878a16.6,16.6,0,0,0-.509,2.2c-.05.29-.089.581-.121.878a16.9,16.9,0,0,0-.1,1.857h-16.9V261.75H258.4l11.824,25.783,14.7,6.374Z" transform="translate(-131.25 -250.125)"/><path class="p" d="M45.453,33.09H157.365a4.643,4.643,0,0,1,4.643,4.643v.845H42.82V35.722a2.632,2.632,0,0,1,2.633-2.632Z" transform="translate(-34.862 -26.953)"/><path class="q" d="M517.438,205.247H490.22v-1.025a5.122,5.122,0,0,1,5.122-5.122h15.73Z" transform="translate(-417.073 -199.11)"/><rect class="k" width="15.364" height="10.536" rx="5.268" transform="translate(5.543 60.791)"/><rect class="p" width="15.364" height="10.536" rx="5.268" transform="translate(5.324 61.231)"/><rect class="k" width="8.34" height="12.292" rx="4.17" transform="translate(149.312 60.353)"/><rect class="p" width="8.34" height="12.292" rx="4.17" transform="translate(149.75 60.572)"/><rect class="p" width="18.438" height="25.461" rx="9.219" transform="translate(93.78 15.796)"/><rect class="r" width="2.414" height="5.269" transform="translate(108.706 43.451)"/><path class="p" d="M740.78,299.209V317.39a1.025,1.025,0,0,0,1.025,1.025h11.189a1.025,1.025,0,0,0,.873-1.562l-11.189-18.181a1.025,1.025,0,0,0-1.9.537Z" transform="translate(-621.1 -279.793)"/><path class="c" d="M510.866,85.1l-5.926,5.267v2.745l8.45-8.012Z" transform="translate(-411.16 -69.304)"/><path class="c" d="M504.94,96.291v3.185L518.987,85.1h-2.745Z" transform="translate(-411.16 -69.304)"/><path class="c" d="M648.114,117.6l-3.714,5.155v1.978l4.931-5.157Z" transform="translate(-524.72 -95.768)"/><path class="c" d="M651.021,145.36l-6.621,5.655v1.592l8.1-5.269Z" transform="translate(-524.72 -118.373)"/><circle class="r" cx="11.852" cy="11.852" r="11.852" transform="translate(29.907 57.5)"/><circle class="c" cx="6.585" cy="6.585" r="6.585" transform="translate(35.174 62.767)"/><circle class="r" cx="1.757" cy="1.757" r="1.757" transform="translate(39.893 67.486)"/><circle class="r" cx="11.852" cy="11.852" r="11.852" transform="translate(116.608 57.5)"/><circle class="c" cx="6.585" cy="6.585" r="6.585" transform="translate(121.875 62.767)"/><circle class="r" cx="1.757" cy="1.757" r="1.757" transform="translate(126.813 67.486)"/><rect class="k" width="89.739" height="0.878" transform="translate(7.848 51.243)"/><path class="k" d="M655.452,276.848H617.81l.438-.659v-.219h37.2" transform="translate(-503.069 -224.727)"/><path class="k" d="M657.374,256.758h-37.2v-.878h37.2" transform="translate(-504.99 -208.368)"/><path class="k" d="M657.374,236.667h-37.2v-.877h36.951" transform="translate(-504.99 -192.009)"/><path class="k" d="M164.794,491.63a16.814,16.814,0,0,0-1.506.878H138.61v-.878Z" transform="translate(-130.762 -437.313)"/><path class="k" d="M414.83,491.63v.878H364.756q-.933-.478-1.926-.878Z" transform="translate(-313.341 -437.313)"/><path class="k" d="M160.582,508.18q-.425.425-.819.878H138.61v-.878Z" transform="translate(-130.762 -450.789)"/><path class="k" d="M435.653,508.18v.878H386.636q-.544-.455-1.126-.878Z" transform="translate(-331.809 -450.789)"/><path class="k" d="M158.145,524.72c-.186.288-.349.579-.509.878H138.61v-.878Z" transform="translate(-130.762 -464.258)"/><path class="k" d="M448.773,524.72v.878H399.38c-.235-.3-.487-.591-.75-.878Z" transform="translate(-342.492 -464.258)"/><path class="k" d="M214.389,541.27c-.106.29-.2.581-.293.878H209.52v-.878Z" transform="translate(-188.503 -477.734)"/><path class="k" d="M456.833,541.27v.878h-49.69c-.137-.3-.286-.589-.452-.878Z" transform="translate(-349.056 -477.734)"/><path class="k" d="M213.585,557.82c-.05.29-.089.581-.121.878H209.52v-.878Z" transform="translate(-188.503 -491.211)"/><path class="k" d="M461.153,557.82v.878H411.2a8.909,8.909,0,0,0-.191-.878Z" transform="translate(-352.573 -491.211)"/><rect class="k" width="1.317" height="0.132" transform="translate(70.623 37.861)"/><rect class="k" width="1.317" height="0.132" transform="translate(72.599 37.861)"/><rect class="k" width="72.568" height="0.878" transform="translate(22.224 46.086)"/><path class="s" d="M96.528,387.454a1.909,1.909,0,0,0,.509,1.506s1.892,2.492,2.834,3.9c-.054.383-.091.615-.091.615h0v.052H99.8l-.024.156h.026a29.787,29.787,0,0,0-.743,4.725v.2s.219,3.205.227,5.69a8.392,8.392,0,0,1-.227,2.541,21.31,21.31,0,0,0-.279,4.734c0,3.332.156,7.33.279,7.813a.5.5,0,0,0,.145.232c-.186.743-.54,1.785-1.06,1.976a1,1,0,0,0-.648.862v.163a.083.083,0,0,0,.013.054v.019a.146.146,0,0,0,.019.052v.017c0,.019.017.035.026.052v.013a.626.626,0,0,0,.093.121h0l.05.045.02.015.046.032.028.017.048.026.033.015.052.02.037.013.058.017.041.011.065.013h.286c1.322,0,2.034-.3,2.44-.9l.813-.2v-.022h0v-.208h0l.019-.1v-.006l.009-.054h0c.009-.058.02-.119.032-.186v-.011c.011-.067.02-.137.032-.212h0c.011-.074.02-.15.03-.23v-.009c0-.078.017-.158.024-.24v-.1a1.1,1.1,0,0,1,.011-.156v-.254h.08l.711-11.241,2.541-10.029,1.218,8.418v1.551c0,2.4.046,6.816.414,7.4a2.72,2.72,0,0,1,.225,1.263,19.114,19.114,0,0,1-.225,2.451h.03c-.019.128-.03.2-.03.2h.093c-.067.657-.085,1.371-.091,1.71h0v.2s1.729.2,2.034.2c1.7,0,3.863.8,4.574.3l.061-.048.013-.011.037-.035.009-.011.028-.035v-.009a.283.283,0,0,0,.02-.037h0a.221.221,0,0,0,.011-.039h0a.2.2,0,0,0,0-.041h0a.213.213,0,0,0,0-.043h0c-.1-.355-1.1-.665-1.811-.975a3.97,3.97,0,0,1-1.406-1.944.459.459,0,0,0,.1-.4.473.473,0,0,0-.017-.264c-.371-1.114-.49-10.511-.507-11.958l.914-6.511a4.234,4.234,0,0,0,.1-1.187,48.36,48.36,0,0,0-.474-5.434h.267l-.033-.2h.033l-.407-2.414v-3.148l.509-5.521.609.4c.046,0,.134-.067.247-.186,1.3.57,2.971,1.3,3.92,1.683,1.729.7,1.829,0,1.829,0l3.354-6.524s5.9-2.414,3.965-3.413-4.676,1-5.083,2.008a36.325,36.325,0,0,1-3.254,4.817c-.509.6-.813.2-1.322-.3a14.4,14.4,0,0,0-1.358-1.055l.037-.05a1.52,1.52,0,0,1-.535-.4c-.806-.908-2.541-2.734-3.529-2.808a7.137,7.137,0,0,1-3.025-1.486,4.792,4.792,0,0,1,.011-.888h.009a.32.32,0,0,1,.011-.1,3.122,3.122,0,0,0,2.485-3.042,1.976,1.976,0,0,0-.009-.234.092.092,0,0,0,.056,0,4.8,4.8,0,0,0,.2-1.439,1.062,1.062,0,0,1,.076-.334c.043-.093.113-.173.154-.267a.542.542,0,0,0,.035-.258,1.237,1.237,0,0,0-.145-.57,9.933,9.933,0,0,0-1.088-2.009.667.667,0,0,0-.247-.225.905.905,0,0,0-.355-.039,5.249,5.249,0,0,1-1.606-.444,1.846,1.846,0,0,0-1.612.058c-.457.316-.63.942-1.114,1.192-.134.067-.282.1-.414.175a1.6,1.6,0,0,0-.344.442,3.342,3.342,0,0,0-.652,1.072,2.81,2.81,0,0,0-.089.834v.28a1.8,1.8,0,0,0,.514,1.525,1.069,1.069,0,0,1,.264.273.828.828,0,0,1,.123.451c.022.31.145.62.167.929a.628.628,0,0,0,.089.336.223.223,0,0,0,.31.059l.019-.078c.033.048.067.1.1.143a5.629,5.629,0,0,1-.594,1.857H103a2.327,2.327,0,0,0-1.346.442,14.524,14.524,0,0,1-3.493,1.465,1.075,1.075,0,0,0-.321.631,19.191,19.191,0,0,0-1.047,3.083h0a7.378,7.378,0,0,0-.3,1.614v.041h.015l-.017.089.36.087C96.571,383.769,96.17,386.462,96.528,387.454Zm2.229-.5a20.961,20.961,0,0,0,.693-2.028,5.049,5.049,0,0,0,.63,1.426,2.678,2.678,0,0,1,.253,1.463,23.967,23.967,0,0,1-.149,2.4,21.786,21.786,0,0,1-1.419-3.265Z" transform="translate(-96.38 -334.29)"/><path class="t" d="M156.79,651.909s.693,2.078,1.582,2.474,2.275.791,1.582,1.285-2.786-.3-4.457-.3c-.3,0-1.978-.2-1.978-.2s0-2.671.4-3.157S156.79,651.909,156.79,651.909Z" transform="translate(-142.903 -567.71)"/><path class="t" d="M106.169,652.53s-.4,2.373-1.187,2.671-.99,1.582.3,1.582,1.978-.3,2.373-.89l.791-.2s.494-2.275,0-2.869Z" transform="translate(-102.866 -568.332)"/><path class="t" d="M156.79,651.909s.693,2.078,1.582,2.474,2.275.791,1.582,1.285-2.786-.3-4.457-.3c-.3,0-1.978-.2-1.978-.2s0-2.671.4-3.157S156.79,651.909,156.79,651.909Z" transform="translate(-142.903 -567.71)"/><path class="t" d="M106.169,652.53s-.4,2.373-1.187,2.671-.99,1.582.3,1.582,1.978-.3,2.373-.89l.791-.2s.494-2.275,0-2.869Z" transform="translate(-102.866 -568.332)"/><path class="u" d="M172.3,420.029a28.436,28.436,0,0,1,2.373,1.781c.494.5.791.89,1.285.3a35.184,35.184,0,0,0,3.157-4.749c.388-.99,3.066-2.971,4.946-1.978s-3.857,3.363-3.857,3.363l-3.256,6.429s-.1.693-1.781,0-5.638-2.47-5.638-2.47Z" transform="translate(-155.94 -375.003)"/><path class="k" d="M122.441,510.7s.89,6.129.494,7.321l-.89,6.429s.1,10.783.494,11.969-3.562,1.287-3.562,1.287.494-3.066,0-3.857-.4-8.8-.4-8.8l-1.192-8.311-2.474,9.891-.683,11.082s-2.671-.1-2.869-.89-.494-11.178,0-12.168,0-8.309,0-8.309.4-5.638,1.582-6.331S122.441,510.7,122.441,510.7Z" transform="translate(-108.355 -452.121)"/><path class="v" d="M122.441,509.622s.89,6.129.494,7.321l-.89,6.429s.1,10.782.494,11.969-3.562,1.285-3.562,1.285.494-3.066,0-3.857-.4-8.8-.4-8.8l-1.192-8.309-2.474,9.891-.683,11.08s-2.671-.1-2.869-.89-.494-11.178,0-12.168,0-8.309,0-8.309.4-5.638,1.582-6.331S122.441,509.622,122.441,509.622Z" transform="translate(-108.355 -451.242)"/><path class="u" d="M129.329,400.06s-.2,4.749-1.879,3.857l1.486,4.457,3.363-.2,1.978-2.671-1.486-.89s-1.088.4-.3-3.265Z" transform="translate(-121.674 -362.749)"/><path class="k" d="M114.6,420.057a7.1,7.1,0,0,0,2.971,1.486c.964.074,2.652,1.874,3.436,2.769a1.485,1.485,0,0,0,.52.4s-1.978,2.769-2.275,2.769l-.594-.4-.494,5.441v3.265l.4,2.373s-6.233.1-6.825-.4-3.958.4-3.958.4.99-6.429.3-7.221-1.879-6.331-1.879-6.331-.791-2.275,0-2.971a14,14,0,0,0,3.4-1.443,2.245,2.245,0,0,1,1.309-.436h.072a1.945,1.945,0,0,0,1.551,1.781C114.013,421.836,114.953,421.29,114.6,420.057Z" transform="translate(-104.083 -378.79)"/><path class="w" d="M114.6,418.989a7.1,7.1,0,0,0,2.971,1.486c.964.074,2.652,1.874,3.436,2.769a1.487,1.487,0,0,0,.52.4s-1.978,2.769-2.275,2.769l-.594-.4-.494,5.441v3.263l.4,2.373s-6.233.1-6.825-.4-3.958.4-3.958.4.99-6.429.3-7.221-1.879-6.331-1.879-6.331-.791-2.275,0-2.971a14,14,0,0,0,3.4-1.443,2.245,2.245,0,0,1,1.309-.436h.072a1.945,1.945,0,0,0,1.551,1.781C114.013,420.766,114.953,420.233,114.6,418.989Z" transform="translate(-104.083 -377.919)"/><path class="w" d="M102.3,434.249s-2.971-.4-3.265-.4.99-4.847,1.681-5.341,1.582,1.781,1.582,1.781Z" transform="translate(-98.499 -385.86)"/><g class="o" transform="translate(2.117 41.116)"><path d="M148.178,420.819c.121.884-.509,1.339-1.538,1.291.943-.052,1.456-.594,1.185-1.56C147.821,420.552,147.959,420.661,148.178,420.819Z" transform="translate(-139.418 -420.55)"/><path d="M176.387,458.38l.451.3a.325.325,0,0,1-.154.095l-.314-.21Z" transform="translate(-163.626 -451.354)"/><path d="M107.75,445.07s1.486,5.54,2.177,6.331c.648.743-.176,6.415-.284,7.144l-.308.078s.99-6.43.3-7.221S107.75,445.07,107.75,445.07Z" transform="translate(-107.75 -440.516)"/><path d="M135.343,515.242c.414.345,3.562.4,5.436.4-1.816,0-5.3-.041-5.731-.4a1.02,1.02,0,0,0-.578-.147A1.385,1.385,0,0,1,135.343,515.242Z" transform="translate(-129.508 -497.533)"/></g><path class="u" d="M99.114,452.51s-.99,4.749-.494,6.129a1.906,1.906,0,0,0,.494,1.486,49.349,49.349,0,0,1,3.265,4.749,1.483,1.483,0,0,0,2.671.693s.791-1.088-.99-1.978-3.265-5.441-3.265-5.441,1.486-3.66.89-4.847S99.114,452.51,99.114,452.51Z" transform="translate(-98.086 -405.406)"/><path class="k" d="M6.23,251.389l-3.66-.89.3-1.632,1.58-.247,2.078.691Z" transform="translate(-2.087 -202.456)"/><path class="w" d="M6.23,250.851l-3.66-.891.3-1.632,1.58-.247,2.078.693Z" transform="translate(-2.087 -202.016)"/><path class="k" d="M136.739,400.59l3.157,1.285a13.892,13.892,0,0,0-.253,1.515,3.068,3.068,0,0,1-3.094-1.164A14.374,14.374,0,0,0,136.739,400.59Z" transform="translate(-129.084 -363.18)"/><circle class="u" cx="3.066" cy="3.066" r="3.066" transform="translate(6.864 34.046)"/><path class="k" d="M135.5,371.983a1.058,1.058,0,0,1,.072-.329c.043-.091.111-.171.149-.264a.917.917,0,0,0-.106-.717,9.83,9.83,0,0,0-1.06-1.98.653.653,0,0,0-.24-.221.871.871,0,0,0-.345-.039,5.06,5.06,0,0,1-1.562-.436,1.786,1.786,0,0,0-1.569.056c-.455.31-.611.929-1.092,1.176-.13.067-.275.1-.4.173a1.563,1.563,0,0,0-.435.425,2.474,2.474,0,0,0-.719,2.054,1.786,1.786,0,0,0,.5,1.5,1.048,1.048,0,0,1,.256.269.824.824,0,0,1,.119.444c.022.306.141.611.163.917a.624.624,0,0,0,.087.332.215.215,0,0,0,.3.059l.31-1.276a1.741,1.741,0,0,1,.288-.709c.23-.282.641-.423.763-.769.087-.247.011-.566.2-.743a.629.629,0,0,1,.284-.123,6.728,6.728,0,0,1,2.713-.084.776.776,0,0,1,.277.087.832.832,0,0,1,.293.461c.065.186.3,1.224.557,1.153A4.991,4.991,0,0,0,135.5,371.983Z" transform="translate(-122.266 -336.516)"/><path class="x" d="M135.507,371.443a1.059,1.059,0,0,1,.072-.329c.043-.091.111-.171.149-.264a.918.918,0,0,0-.106-.717,9.829,9.829,0,0,0-1.06-1.98.652.652,0,0,0-.24-.221.87.87,0,0,0-.345-.039,5.062,5.062,0,0,1-1.562-.436,1.786,1.786,0,0,0-1.569.056c-.455.31-.611.929-1.092,1.176-.13.067-.275.1-.4.173a1.563,1.563,0,0,0-.435.425,2.474,2.474,0,0,0-.719,2.047,1.786,1.786,0,0,0,.5,1.5,1.049,1.049,0,0,1,.256.269.825.825,0,0,1,.123.457c.022.306.141.611.163.917a.624.624,0,0,0,.087.332.215.215,0,0,0,.306.05l.31-1.276a1.741,1.741,0,0,1,.288-.709c.23-.282.641-.423.763-.769.087-.247.011-.566.2-.743a.63.63,0,0,1,.284-.123,6.728,6.728,0,0,1,2.713-.083.776.776,0,0,1,.277.087.832.832,0,0,1,.293.461c.065.186.3,1.224.557,1.153A5.225,5.225,0,0,0,135.507,371.443Z" transform="translate(-122.269 -336.076)"/><ellipse class="u" cx="0.297" cy="0.693" rx="0.297" ry="0.693" transform="translate(7.605 36.271)"/><path class="k" d="M155.538,669.255c1.658,0,3.759.791,4.457.3a.5.5,0,0,0,.162-.171c.058.117.019.24-.162.371-.693.494-2.786-.3-4.457-.3-.3,0-1.978-.2-1.978-.2v-.2C153.6,669.062,155.244,669.255,155.538,669.255Z" transform="translate(-142.935 -581.792)"/><path class="k" d="M105.247,661.871c1.285,0,1.978-.3,2.373-.889l.791-.2a10.722,10.722,0,0,0,.219-1.762,10.116,10.116,0,0,1-.219,1.961l-.791.2c-.4.594-1.088.89-2.373.89-.717,0-.973-.4-.929-.806C104.372,661.59,104.649,661.871,105.247,661.871Z" transform="translate(-102.835 -573.616)"/><rect class="v" width="3.562" height="1.385" transform="translate(7.934 60.279) rotate(160.92)"/><rect class="k" width="3.562" height="1.385" transform="translate(7.934 60.279) rotate(160.92)"/><text class="y" transform="translate(21.131 17.612)"><tspan x="5.828" y="22">RELO</tspan></text></g><path class="z" d="M0,0S1.472,21.916,57.391,37,148,37,148,37" transform="translate(944.5 1094.5)"/><path class="z" d="M15.762.331s14.726,26.2,54.1,36.38,57.289-19.564,57.289-19.564" transform="matrix(0.695, -0.719, 0.719, 0.695, 1222.876, 1143.404)"/><path class="z" d="M11.39,13.977s-8.274,4.1,1.986,27.607S52.336,76.651,52.336,76.651" transform="translate(1346.53 998.446) rotate(-160)"/><path class="z" d="M-14.172,52.272s49.656,6.442,78.122.41,46.726-37.838,46.726-37.838" transform="translate(987.349 936.469) rotate(129)"/></g><g transform="translate(1115.837 2121.383)"><path class="b" d="M203.9,616h-.5a23.511,23.511,0,1,0-47.022,0h-.5a24.011,24.011,0,1,1,48.022,0Z" transform="translate(-155.878 -496.603)"/><path class="b" d="M899.9,616h-.5a23.511,23.511,0,1,0-47.022,0h-.5a24.011,24.011,0,1,1,48.022,0Z" transform="translate(-677.799 -496.603)"/><path class="b" d="M547.918,328.5h-.5a43.02,43.02,0,1,0-86.039,0h-.5a43.52,43.52,0,0,1,87.04,0Z" transform="translate(-384.593 -266.388)"/><ellipse class="d" cx="9.827" cy="10.373" rx="9.827" ry="10.373" transform="translate(26.453 -0.491)"/><path class="b" d="M153.891,250.781l16.973-20.214h33.37l20.393,19.863-.412.265h.147V292.01H153.914V250.7Z" transform="translate(-115.401 -172.812)"/><rect class="b" width="3.847" height="13.318" transform="translate(52.55 69.181) rotate(180)"/><path class="aa" d="M170.669,229.508l20.922,24.53v37.179H153.984V249.371Z" transform="translate(-115.47 -172.018)"/><rect class="b" width="7.68" height="7.853" transform="translate(63.606 86.888)"/><rect class="b" width="7.68" height="7.853" transform="translate(63.606 97.573)"/><rect class="c" width="7.68" height="7.853" transform="translate(63.606 86.888)"/><rect class="c" width="7.68" height="7.853" transform="translate(63.606 97.573)"/><rect class="b" width="7.68" height="7.853" transform="translate(52.984 86.888)"/><rect class="b" width="7.68" height="7.853" transform="translate(52.984 97.573)"/><rect class="c" width="7.68" height="7.853" transform="translate(52.984 86.888)"/><rect class="c" width="7.68" height="7.853" transform="translate(52.984 97.573)"/><rect class="b" width="7.68" height="7.853" transform="translate(42.362 86.888)"/><rect class="b" width="7.68" height="7.853" transform="translate(42.362 97.573)"/><rect class="c" width="7.68" height="7.853" transform="translate(42.362 86.888)"/><rect class="c" width="7.68" height="7.853" transform="translate(42.362 97.573)"/><rect class="g" width="3.276" height="8.735" transform="translate(121.445 10.428)"/><rect class="ab" width="30.572" height="101.543" transform="translate(94.148 18.071)"/><rect class="b" width="12.011" height="101.543" transform="translate(124.721 18.071)"/><rect class="c" width="4.502" height="4.502" transform="translate(100.171 26.849)"/><rect class="c" width="4.502" height="4.502" transform="translate(107.424 26.849)"/><rect class="c" width="4.502" height="4.502" transform="translate(114.678 26.849)"/><rect class="c" width="5.459" height="4.367" transform="translate(100.7 36.632)"/><rect class="c" width="5.459" height="4.367" transform="translate(107.251 36.632)"/><rect class="c" width="5.459" height="4.367" transform="translate(114.894 36.632)"/><rect class="c" width="4.502" height="4.502" transform="translate(100.421 47.359)"/><rect class="c" width="4.502" height="4.502" transform="translate(107.674 47.359)"/><rect class="c" width="4.502" height="4.502" transform="translate(114.928 47.359)"/><rect class="c" width="5.459" height="4.367" transform="translate(100.7 57.378)"/><rect class="c" width="4.367" height="4.367" transform="translate(108.343 57.378)"/><rect class="c" width="5.459" height="4.367" transform="translate(114.894 57.378)"/><rect class="c" width="4.502" height="4.502" transform="translate(100.671 67.868)"/><rect class="c" width="4.502" height="4.502" transform="translate(107.925 67.868)"/><rect class="c" width="4.502" height="4.502" transform="translate(115.178 67.868)"/><rect class="c" width="5.459" height="3.276" transform="translate(100.7 79.215)"/><rect class="c" width="5.459" height="3.276" transform="translate(108.343 79.215)"/><rect class="c" width="5.459" height="3.276" transform="translate(114.894 79.215)"/><rect class="c" width="4.502" height="4.502" transform="translate(100.921 88.377)"/><rect class="c" width="4.502" height="4.502" transform="translate(108.175 88.377)"/><rect class="c" width="4.502" height="4.502" transform="translate(115.428 88.377)"/><rect class="c" width="4.367" height="4.367" transform="translate(101.791 98.869)"/><rect class="c" width="5.459" height="4.367" transform="translate(108.343 98.869)"/><rect class="c" width="5.459" height="8.735" transform="translate(108.343 110.879)"/><rect class="c" width="4.367" height="4.367" transform="translate(115.986 98.869)"/><rect class="b" width="1.092" height="7.643" transform="translate(124.721 10.428)"/><rect class="g" width="3.502" height="5.188" transform="translate(158.823 54.612)"/><rect class="ac" width="29.764" height="60.036" transform="translate(132.311 59.356)"/><rect class="b" width="12.006" height="60.036" transform="translate(162.074 59.356)"/><rect class="c" width="4.502" height="4.502" transform="translate(138.189 67.868)"/><rect class="c" width="4.502" height="4.502" transform="translate(145.442 67.868)"/><rect class="c" width="4.502" height="4.502" transform="translate(152.695 67.868)"/><rect class="c" width="4.367" height="3.276" transform="translate(138.915 79.215)"/><rect class="c" width="5.459" height="3.276" transform="translate(145.466 79.215)"/><rect class="c" width="3.276" height="3.276" transform="translate(153.109 79.215)"/><rect class="c" width="4.502" height="4.502" transform="translate(138.439 88.377)"/><rect class="c" width="4.502" height="4.502" transform="translate(145.692 88.377)"/><rect class="c" width="4.502" height="4.502" transform="translate(152.945 88.377)"/><rect class="c" width="5.459" height="4.367" transform="translate(138.915 98.869)"/><rect class="c" width="5.459" height="4.367" transform="translate(145.466 98.869)"/><rect class="c" width="5.459" height="8.735" transform="translate(145.466 110.879)"/><rect class="c" width="5.459" height="4.367" transform="translate(153.109 98.869)"/><rect class="b" width="2.001" height="5.04" transform="translate(162.074 54.612)"/><rect class="b" width="222.102" height="0.56" transform="translate(0.061 119.09)"/><circle class="ad" cx="6.513" cy="6.513" r="6.513" transform="translate(176.736 94.63)"/><path class="ae" d="M875.37,597.631a6.514,6.514,0,0,1-10.853,6.893,6.514,6.514,0,1,0,10.853-6.893Z" transform="translate(-687.276 -500.838)"/><path class="b" d="M731.712,404.041h.018l.322,18.466h-.68Z" transform="translate(-548.445 -302.897)"/><rect class="b" width="0.322" height="1.217" transform="translate(184.303 110.917) rotate(62.234)"/><circle class="ad" cx="9.904" cy="9.904" r="9.904" transform="translate(192.493 81.624)"/><path class="ae" d="M945.072,550.134a9.905,9.905,0,0,1-16.5,10.482,9.905,9.905,0,1,0,16.5-10.482Z" transform="translate(-735.307 -465.221)"/><path class="b" d="M807.777,365.6h.027l.49,28.081H807.26Z" transform="translate(-605.352 -274.07)"/><rect class="b" width="0.49" height="1.85" transform="translate(204 106.391) rotate(62.234)"/><circle class="ad" cx="6.513" cy="6.513" r="6.513" transform="translate(0.155 94.38)"/><path class="ae" d="M169.37,596.631a6.514,6.514,0,0,1-10.853,6.893,6.514,6.514,0,1,0,10.853-6.893Z" transform="translate(-157.857 -500.088)"/><path class="b" d="M25.712,403.041h.018l.322,18.466h-.68Z" transform="translate(-19.026 -302.148)"/><rect class="b" width="0.322" height="1.217" transform="translate(7.722 110.667) rotate(62.234)"/><path class="b" d="M751.976,242.72l2.3-1.842a2.44,2.44,0,0,0-2.824,1.55,3.922,3.922,0,0,0-2.919.18l4.607,1.672A3.487,3.487,0,0,0,751.976,242.72Z" transform="translate(-600.303 -233.295)"/><path class="b" d="M289.976,279.72l2.3-1.842a2.44,2.44,0,0,0-2.824,1.55,3.922,3.922,0,0,0-2.919.18l4.607,1.672A3.486,3.486,0,0,0,289.976,279.72Z" transform="translate(-253.856 -261.041)"/><path class="b" d="M891.976,317.72l2.3-1.842a2.44,2.44,0,0,0-2.824,1.55,3.922,3.922,0,0,0-2.919.18l4.607,1.672A3.486,3.486,0,0,0,891.976,317.72Z" transform="translate(-705.287 -289.537)"/><path class="b" d="M365.976,259.72l2.3-1.842a2.44,2.44,0,0,0-2.824,1.55,3.922,3.922,0,0,0-2.919.18l4.607,1.672A3.486,3.486,0,0,0,365.976,259.72Z" transform="translate(-310.847 -246.043)"/><path class="b" d="M382.976,339.72l2.3-1.842a2.44,2.44,0,0,0-2.824,1.55,3.922,3.922,0,0,0-2.919.18l4.607,1.672A3.485,3.485,0,0,0,382.976,339.72Z" transform="translate(-323.595 -306.034)"/><path class="b" d="M740.976,381.72l2.3-1.841a2.44,2.44,0,0,0-2.824,1.55,3.922,3.922,0,0,0-2.919.18l4.607,1.672A3.486,3.486,0,0,0,740.976,381.72Z" transform="translate(-592.054 -337.529)"/><path class="b" d="M59.507,456H44v.5h2.418v4.752h.5V456.5h9.42v4.752h.5V456.5h2.668Z" transform="translate(-32.995 -341.861)"/><path class="b" d="M300.882,673.486a3.481,3.481,0,0,0-1.744.468,3.747,3.747,0,0,0-6.26,2.784h11.493A3.5,3.5,0,0,0,300.882,673.486Z" transform="translate(-258.612 -557.345)"/><path class="b" d="M537.882,673.486a3.48,3.48,0,0,0-1.743.468,3.747,3.747,0,0,0-6.26,2.784h11.493a3.5,3.5,0,0,0-3.489-3.252Z" transform="translate(-436.335 -557.345)"/><path class="b" d="M692.882,673.486a3.481,3.481,0,0,0-1.744.468,3.747,3.747,0,0,0-6.26,2.784h11.493a3.5,3.5,0,0,0-3.489-3.252Z" transform="translate(-552.567 -557.345)"/><path class="b" d="M896.882,673.486a3.482,3.482,0,0,0-1.744.468,3.747,3.747,0,0,0-6.26,2.784h11.493a3.5,3.5,0,0,0-3.489-3.252Z" transform="translate(-705.544 -557.345)"/><path class="b" d="M994.882,673.484a3.48,3.48,0,0,0-1.743.468,3.747,3.747,0,0,0-6.261,2.784h11.493A3.5,3.5,0,0,0,994.882,673.484Z" transform="translate(-779.032 -557.344)"/><path class="b" d="M117,407h-4v4h1.855v13.484h.5V411H117Z" transform="translate(-84.737 -305.116)"/><rect class="b" width="15.507" height="0.5" transform="translate(11.036 112.643)"/><rect class="b" width="15.507" height="0.5" transform="translate(11.036 111.392)"/><rect class="b" width="15.507" height="0.5" transform="translate(11.036 110.141)"/></g><g transform="translate(866 2108.849)"><rect class="b" width="5.186" height="17.95" transform="translate(191.22 70.338)"/><path class="b" d="M667.582,309.478l-12.908-15.517h-25.13l-15.357,14.958.31.2h-.111v31.113h53.052V309.119Z" transform="translate(-467.643 -223.822)"/><path class="af" d="M951.39,438.692c0,.023,0,.045,0,.068a15.08,15.08,0,0,0,1.1,2.522,6.285,6.285,0,0,0-.321,2.017c0,2.364,1.219,4.28,2.724,4.28s2.724-1.916,2.724-4.28a6.478,6.478,0,0,0-.178-1.52,3.186,3.186,0,0,1,4.722-4.142,3.112,3.112,0,0,0-.354-4.387,3.113,3.113,0,1,0-4.191-2.921c0,.046,0,.091,0,.136a7.9,7.9,0,0,1-7.388,2.648,3.113,3.113,0,0,0,1.161,5.579Z" transform="translate(-761.172 -374.233)"/><path class="ag" d="M734.43,293.125,718.674,311.6v28h28.321V308.083Z" transform="translate(-547.199 -223.186)"/><rect class="b" width="5.784" height="5.112" transform="translate(182.843 100.926)"/><rect class="b" width="5.784" height="5.031" transform="translate(182.843 92.078)"/><rect class="c" width="5.784" height="5.112" transform="translate(182.843 100.926)"/><rect class="c" width="5.784" height="5.031" transform="translate(182.843 92.078)"/><path class="b" d="M183.745,168.059,160.87,140.816H115.895L88.41,167.587l.555.357h-.2v55.683h94.947V167.944Z" transform="translate(-67.316 -107.217)"/><path class="b" d="M518.66,207.66l3.087-2.469a3.271,3.271,0,0,0-3.787,2.079,5.258,5.258,0,0,0-3.913.242l6.177,2.242A4.674,4.674,0,0,0,518.66,207.66Z" transform="translate(-430.056 -205.156)"/><path class="b" d="M750.817,235.207l3.087-2.469a3.271,3.271,0,0,0-3.787,2.079,5.258,5.258,0,0,0-3.913.242l6.177,2.242A4.673,4.673,0,0,0,750.817,235.207Z" transform="translate(-606.821 -226.13)"/><path class="b" d="M695.33,314.033l3.087-2.469a3.271,3.271,0,0,0-3.787,2.079,5.258,5.258,0,0,0-3.913.242l6.177,2.242A4.674,4.674,0,0,0,695.33,314.033Z" transform="translate(-564.572 -286.149)"/><rect class="b" width="5.186" height="17.95" transform="translate(97.481 31.048)"/><rect class="b" width="5.186" height="17.95" transform="translate(149.935 52.388)"/><rect class="b" width="5.186" height="17.95" transform="translate(149.935 50.593)"/><path class="b" d="M447.938,240.908l-17.7-21.023H395.509l-21.223,20.672.429.276h-.153v43h73.316v-43Z" transform="translate(-284.982 -167.421)"/><path class="ag" d="M540.458,218.73l-21.774,25.528v38.693h39.139V239.4Z" transform="translate(-394.927 -166.541)"/><path class="ag" d="M303.609,139.32l-28.2,33.06v50.108H326.1v-56.4Z" transform="translate(-209.698 -106.078)"/><path class="a" d="M341.806,681.816a2.335,2.335,0,0,1,2.666-2.3" transform="translate(-298.911 -566.318)"/><circle class="g" cx="1.272" cy="1.272" r="1.272" transform="translate(40.904 110.481)"/><rect class="a" width="0.359" height="2.514" transform="translate(41.97 113.895)"/><path class="a" d="M389.452,681.816a2.335,2.335,0,0,1,2.666-2.3" transform="translate(-335.189 -566.318)"/><circle class="g" cx="1.272" cy="1.272" r="1.272" transform="translate(52.273 110.481)"/><rect class="a" width="0.359" height="2.514" transform="translate(53.338 113.895)"/><path class="a" d="M662.789,681.816a2.335,2.335,0,0,1,2.666-2.3" transform="translate(-543.308 -566.318)"/><circle class="g" cx="1.272" cy="1.272" r="1.272" transform="translate(117.491 110.481)"/><rect class="a" width="0.359" height="2.514" transform="translate(118.556 113.895)"/><path class="a" d="M864.24,681.816a2.335,2.335,0,0,1,2.666-2.3" transform="translate(-696.693 -566.318)"/><circle class="g" cx="1.272" cy="1.272" r="1.272" transform="translate(165.557 110.481)"/><rect class="a" width="0.359" height="2.514" transform="translate(166.622 113.895)"/><path class="a" d="M276.606,681.816a2.335,2.335,0,0,1,2.666-2.3" transform="translate(-249.268 -566.318)"/><circle class="g" cx="1.272" cy="1.272" r="1.272" transform="translate(25.348 110.481)"/><rect class="a" width="0.359" height="2.514" transform="translate(26.413 113.895)"/><path class="af" d="M776.831,344.052c0,.026,0,.052,0,.078a17.268,17.268,0,0,0,1.26,2.89,7.2,7.2,0,0,0-.368,2.311c0,2.708,1.4,4.9,3.12,4.9s3.12-2.2,3.12-4.9a7.42,7.42,0,0,0-.2-1.742,3.563,3.563,0,0,0,.384-4.34,3.565,3.565,0,1,0,4.621-5.431,3.566,3.566,0,1,0-4.8-3.346c0,.052,0,.1,0,.156a9.053,9.053,0,0,1-8.464,3.033,3.566,3.566,0,0,0,1.33,6.391Z" transform="translate(-627.989 -300.902)"/><path class="af" d="M138.612,221.47l-4.465,6.178-.432-12.252-.534,18.089-4.115-5.693,4.078,6.943-1.35,45.742h4.215l-1.814-51.485Z" transform="translate(-98.272 -164.003)"/><path class="b" d="M45.163,138.74l-5.85,8.094-.566-16.052-.7,23.7-5.391-7.459L38,156.12,36.23,216.052h5.522l-2.377-67.457Z" transform="translate(-24.865 -99.577)"/><path class="ah" d="M371.026,387.089h-209V290.648h209Zm-208.193-.806H370.221V291.454H162.833Z" transform="translate(-162.027 -270.25)"/><path class="af" d="M551.668,244.788c0,.03,0,.061,0,.091a20.292,20.292,0,0,0,1.478,3.392,8.449,8.449,0,0,0-.432,2.712c0,3.179,1.64,5.755,3.662,5.755s3.662-2.577,3.662-5.755a8.709,8.709,0,0,0-.239-2.044,4.182,4.182,0,0,0,.45-5.094,4.185,4.185,0,1,0,5.424-6.375,4.186,4.186,0,1,0-5.635-3.927c0,.061,0,.122,0,.183a4.188,4.188,0,0,0-5.364,3.371,4.186,4.186,0,1,0-3.01,7.691Z" transform="translate(-456.175 -223.583)"/><rect class="b" width="10.351" height="10.584" transform="translate(72.229 72.862)"/><rect class="b" width="10.351" height="10.584" transform="translate(72.229 87.264)"/><rect class="c" width="10.351" height="10.584" transform="translate(72.229 72.862)"/><rect class="c" width="10.351" height="10.584" transform="translate(72.229 87.264)"/><rect class="b" width="10.351" height="10.584" transform="translate(86.545 72.862)"/><rect class="b" width="10.351" height="10.584" transform="translate(86.545 87.264)"/><rect class="c" width="10.351" height="10.584" transform="translate(86.545 72.862)"/><rect class="c" width="10.351" height="10.584" transform="translate(86.545 87.264)"/><rect class="b" width="10.351" height="10.584" transform="translate(100.861 72.862)"/><rect class="b" width="10.351" height="10.584" transform="translate(100.861 87.264)"/><rect class="c" width="10.351" height="10.584" transform="translate(100.861 72.862)"/><rect class="c" width="10.351" height="10.584" transform="translate(100.861 87.264)"/><rect class="b" width="7.993" height="7.738" transform="translate(133.951 94.339)"/><rect class="b" width="7.993" height="7.738" transform="translate(133.951 82.783)"/><rect class="c" width="7.993" height="7.738" transform="translate(133.951 94.339)"/><rect class="c" width="7.993" height="7.738" transform="translate(133.951 82.783)"/><rect class="b" width="7.993" height="7.738" transform="translate(145.642 94.339)"/><rect class="b" width="7.993" height="7.738" transform="translate(145.642 82.783)"/><rect class="c" width="7.993" height="7.738" transform="translate(145.642 94.339)"/><rect class="c" width="7.993" height="7.738" transform="translate(145.642 82.783)"/></g><g transform="translate(941 2190)"><path class="ai" d="M217.544,627.322H184.925s-.661-9.7,3.251-9.808,3.471,4.3,8.375-1.763,10.855-5.73,11.626-2.149-1.488,6.447,2.645,5.565S220.9,620.6,217.544,627.322Z" transform="translate(-94.069 -560.211)"/><path class="aj" d="M313.365,626.915l-.11,0a33.586,33.586,0,0,1,2.67-12.8,11.625,11.625,0,0,1,2.306-3.544l.073.082a11.542,11.542,0,0,0-2.284,3.517A33.495,33.495,0,0,0,313.365,626.915Z" transform="translate(-292.751 -554.802)"/><path class="aj" d="M409.982,692.817l-.106-.031a17.1,17.1,0,0,1,4.3-7.16l.074.082A16.98,16.98,0,0,0,409.982,692.817Z" transform="translate(-377.562 -620.691)"/><path class="aj" d="M206.489,675.483l-.109-.015a12,12,0,0,0-1.08-7.015,9.66,9.66,0,0,0-1.7-2.486l.076-.08A9.781,9.781,0,0,1,205.4,668.4,12.113,12.113,0,0,1,206.489,675.483Z" transform="translate(-196.496 -603.364)"/><path class="ak" d="M196.534,598.775H155.97l-.009-.137c-.023-.342-.541-8.4,2.072-11.282a2.861,2.861,0,0,1,2.091-1,6.223,6.223,0,0,1,3.636,1.1c1.627.965,2.7,1.6,6.61-3.227,4.233-5.232,8.8-6.358,11.427-5.732A4.076,4.076,0,0,1,185,581.632a13.919,13.919,0,0,1,.138,4.054c-.089,1.215-.159,2.175.34,2.61.417.363,1.248.4,2.617.1,2.784-.594,6.669-.086,8.62,2.434,1.049,1.355,1.876,3.819-.145,7.86Zm-40.287-.295h40.1c1.505-3.054,1.552-5.635.135-7.466-1.789-2.311-5.542-2.92-8.325-2.326-1.487.317-2.373.265-2.872-.17-.61-.532-.535-1.557-.441-2.854a13.674,13.674,0,0,0-.132-3.971,3.791,3.791,0,0,0-2.988-2.912c-2.542-.607-6.982.505-11.129,5.631-4.068,5.028-5.293,4.3-6.989,3.3a5.911,5.911,0,0,0-3.478-1.06,2.577,2.577,0,0,0-1.881.907C155.9,590.14,156.19,597.39,156.247,598.48Z" transform="translate(-68.633 -531.517)"/><path class="aj" d="M731.492,467.892l-11.8-2.052c2.109-4.375,3.073-8.7,2.25-12.939l11.8,2.052a26.22,26.22,0,0,0-2.25,12.939Z" transform="translate(-649.508 -416.412)"/><rect class="b" width="6.206" height="0.289" transform="translate(74.868 39.331) rotate(9.864)"/><rect class="b" width="6.206" height="0.289" transform="translate(74.67 40.468) rotate(9.864)"/><rect class="b" width="6.206" height="0.289" transform="translate(74.473 41.606) rotate(9.864)"/><rect class="b" width="6.206" height="0.289" transform="translate(74.275 42.743) rotate(9.864)"/><rect class="b" width="6.206" height="0.289" transform="translate(74.077 43.881) rotate(9.864)"/><rect class="b" width="6.206" height="0.289" transform="translate(73.879 45.018) rotate(9.864)"/><rect class="b" width="6.206" height="0.289" transform="translate(73.681 46.155) rotate(9.864)"/><rect class="b" width="6.206" height="0.289" transform="translate(73.484 47.293) rotate(9.864)"/><path class="aj" d="M774.492,501.892l-11.8-2.052c2.109-4.375,3.073-8.7,2.25-12.939l11.8,2.052A26.22,26.22,0,0,0,774.492,501.892Z" transform="translate(-687.252 -446.256)"/><rect class="b" width="6.206" height="0.289" transform="translate(80.124 43.487) rotate(9.864)"/><rect class="b" width="6.206" height="0.289" transform="translate(79.926 44.624) rotate(9.864)"/><rect class="b" width="6.206" height="0.289" transform="translate(79.728 45.761) rotate(9.864)"/><rect class="b" width="6.206" height="0.289" transform="translate(79.531 46.899) rotate(9.864)"/><rect class="b" width="6.206" height="0.289" transform="translate(79.333 48.036) rotate(9.864)"/><rect class="b" width="6.206" height="0.289" transform="translate(79.135 49.174) rotate(9.864)"/><rect class="b" width="6.206" height="0.289" transform="translate(78.937 50.311) rotate(9.864)"/><rect class="b" width="6.206" height="0.289" transform="translate(78.739 51.449) rotate(9.864)"/><path class="b" d="M727.145,536.967H706.1l0-.118L705.086,508.1h23.068Zm-20.814-.244h20.577l.992-28.374H705.339Z" transform="translate(-636.689 -464.867)"/><path class="b" d="M589.545,392.151H570.8l-.9-25.773h20.547Z" transform="translate(-500.241 -321.596)"/><g class="al" transform="translate(72.827 48.563)"><rect class="c" width="1.601" height="19.813"/><rect class="c" width="1.601" height="19.813" transform="translate(6.304)"/><rect class="c" width="1.601" height="19.813" transform="translate(12.608)"/></g><rect class="b" width="4.003" height="30.82" transform="matrix(0.534, -0.845, 0.845, 0.534, 78.149, 35.418)"/><path class="b" d="M878.792,444.315a4.7,4.7,0,0,0-7.165,4.653l1.246.788A3.709,3.709,0,1,1,876.416,452l1.246.788a4.7,4.7,0,0,0,1.13-8.468Z" transform="translate(-782.83 -408.235)"/><rect class="b" width="42.106" height="1.244" transform="translate(69 70.932)"/><path class="am" d="M614.935,402.865s4.767,3.545,2.811,4.156-4.4-2.078-4.278-2.811S614.935,402.865,614.935,402.865Z" transform="translate(-556.265 -372.491)"/><path class="an" d="M443.367,211.5l4.889,4.522L446.3,218.1l-3.3-2.445Z" transform="translate(-388.853 -185.649)"/><path class="ao" d="M608.62,391.97,598.54,385.5c3.642-3.214,6.208-6.823,7.094-11.052l10.08,6.471A26.22,26.22,0,0,0,608.62,391.97Z" transform="translate(-543.165 -347.547)"/><rect class="b" width="6.206" height="0.289" transform="translate(63.611 30.464) rotate(32.698)"/><rect class="b" width="6.206" height="0.289" transform="translate(62.988 31.435) rotate(32.698)"/><rect class="b" width="6.206" height="0.289" transform="translate(62.364 32.407) rotate(32.698)"/><rect class="b" width="6.206" height="0.289" transform="translate(61.74 33.378) rotate(32.698)"/><rect class="b" width="6.206" height="0.289" transform="translate(61.117 34.35) rotate(32.698)"/><rect class="b" width="6.206" height="0.289" transform="translate(60.493 35.322) rotate(32.698)"/><rect class="b" width="6.206" height="0.289" transform="translate(59.869 36.293) rotate(32.698)"/><rect class="b" width="6.206" height="0.289" transform="translate(59.246 37.265) rotate(32.698)"/><path class="am" d="M289.842,490.416l-1.855,3.9,5.19,1.242-.145-3.763Z" transform="translate(-252.787 -430.473)"/><path class="am" d="M455,529.111l.611,4.278,5.011-1.833-2.2-3.056Z" transform="translate(-399.386 -463.902)"/><path class="e" d="M449.94,358.271a42.99,42.99,0,0,0-.559,7.256c.209,2.339-.615,12.206-.615,12.206s-3.686,4.009-4.522,8.588a38.218,38.218,0,0,1-2.624,8.38l4.343,1.413,8.606-16.293s6.171-13.507,5.558-14.794a49.514,49.514,0,0,1-1.575-6.471Z" transform="translate(-405.426 -333.348)"/><path class="e" d="M420.6,657.665s-.005-2.2-.783-1.252S416.5,659.2,418,660.485s10.224,8.247,10.693,6.212c.261-1.13-4.093-8.756-4.093-8.756s-1.454.091-1.555.464S420.6,657.665,420.6,657.665Z" transform="translate(-384.283 -594.839)"/><path class="am" d="M400.3,40.5,397,44.289l3.3,3.422,3.056-4.645Z" transform="translate(-348.475 -35.55)"/><path class="am" d="M568.079,173.163a3.3,3.3,0,1,1-.06-.625A3.3,3.3,0,0,1,568.079,173.163Z" transform="translate(-510.631 -167.968)"/><path class="e" d="M559.031,173.652a5.24,5.24,0,0,1,3.7-.1,4,4,0,0,1,1.841,1.056,2.017,2.017,0,0,1,.477,1.988l-1-.755-.092.666a5.416,5.416,0,0,0-3.073-1.854c-.363-.119-.845-.2-1.055.12-.088.135-.1.31-.192.441-.176.245-.544.224-.813.36a1.424,1.424,0,0,0-.541.635c-.136.248-.076.595-.322.733-.988.555-.406-1.582-.244-1.956A2.151,2.151,0,0,1,559.031,173.652Z" transform="translate(-507.057 -170.956)"/><path class="ap" d="M493,382.887a42.989,42.989,0,0,0,3.545,6.356c1.467,1.833,6.234,10.512,6.234,10.512s-.856,5.378.978,9.656a38.219,38.219,0,0,1,2.445,8.434l4.4-1.222-1.833-18.334s-2.322-14.667-3.545-15.4a49.506,49.506,0,0,1-4.889-4.522Z" transform="translate(-450.526 -350.986)"/><path class="d" d="M497.208,222.284s-2.078-5.5-4.889-3.789-5.011,16.99-5.011,16.99-2.567,6.967,0,7.7,4.645,1.711,5.011.367.122-3.667.733-2.445.367,2.689,1.589,2.689,5.989-.611,5.867-1.467S497.208,222.284,497.208,222.284Z" transform="translate(-444.527 -210.367)"/><path class="am" d="M489.516,428.537s-1.589,4.767.611,4.767,1.882-4.813,1.882-4.813Z" transform="translate(-446.98 -394.985)"/><path class="e" d="M595.841,696.65s-1.222-1.833-1.344-.611-1.222,4.156.733,4.4,13.078,1.222,12.345-.733c-.407-1.086-8.25-5.035-8.25-5.035s-1.161.879-1.039,1.246S595.841,696.65,595.841,696.65Z" transform="translate(-539.249 -628.63)"/><path class="an" d="M569.8,160.354s-.579.5-1.331-.486a4.768,4.768,0,0,1-.5-.858,3.356,3.356,0,0,0-2.269-.974q-.086,0-.176,0a1.911,1.911,0,0,1-1.956-1.1l-2.567.856a3.855,3.855,0,0,1,3.911-3.422c3.545,0,3.667,2.933,3.667,2.933S571.389,158.4,569.8,160.354Z" transform="translate(-510.214 -154.365)"/><path class="ae" d="M602.211,184.056a4.768,4.768,0,0,1-.5-.858,3.357,3.357,0,0,0-2.269-.974c.893-.28,2.447-.605,3.124.241C603.187,183.243,602.669,183.774,602.211,184.056Z" transform="translate(-543.955 -178.553)"/><path class="an" d="M488.345,228.485s-3.3-.611-4.156,2.322-2.689,11.612-2.689,11.612l1.1,8.923-.122,2.2h3.545V251.22c0-.244.489-9.778.489-9.778l4.034-9.167A2.993,2.993,0,0,0,488.345,228.485Z" transform="translate(-440.431 -219.379)"/><path class="ae" d="M377.979,116l-4.034,7.945-.495,11.383,1.351-11.5Z" transform="translate(-327.805 -101.821)"/><path class="ae" d="M450.525,215.686l.916,4.695-.458-4.271Z" transform="translate(-395.458 -189.323)"/><path class="ae" d="M365.5,305.5l5.256,7.456-.55,1.1Z" transform="translate(-320.825 -268.159)"/><path class="ai" d="M205,621.066H184.909s-.407-5.974,2-6.042,2.138,2.648,5.159-1.086,6.687-3.53,7.162-1.324-.916,3.971,1.629,3.428S207.074,616.925,205,621.066Z" transform="translate(-95.429 -549.898)"/><path class="ak" d="M180.934,590.929H155.945l-.006-.085c-.014-.211-.333-5.178,1.276-6.95a1.763,1.763,0,0,1,1.288-.618,3.834,3.834,0,0,1,2.24.679c1,.595,1.664.987,4.072-1.988,2.608-3.223,5.422-3.917,7.039-3.531a2.511,2.511,0,0,1,1.976,1.932,8.575,8.575,0,0,1,.085,2.5c-.055.749-.1,1.34.21,1.608.257.224.769.244,1.612.064,1.715-.366,4.109-.053,5.31,1.5.646.835,1.155,2.353-.089,4.842Zm-24.819-.182h24.706c.927-1.882.956-3.471.083-4.6-1.1-1.424-3.414-1.8-5.129-1.433-.916.2-1.462.163-1.77-.1-.376-.328-.33-.959-.271-1.758a8.424,8.424,0,0,0-.081-2.446,2.335,2.335,0,0,0-1.841-1.794c-1.566-.374-4.3.311-6.856,3.469-2.506,3.1-3.261,2.65-4.306,2.03a3.641,3.641,0,0,0-2.142-.653,1.588,1.588,0,0,0-1.159.559C155.9,585.609,156.08,590.075,156.116,590.747Z" transform="translate(-68.633 -519.67)"/></g></g></svg>