<svg xmlns="http://www.w3.org/2000/svg" xmlns:xlink="http://www.w3.org/1999/xlink" width="482.429" height="350.732" viewBox="0 0 482.429 350.732"><defs><style>.a{fill:#3f3d56;}.b{fill:#ffc107;}.c{fill:#37a500;}.d,.n,.t{opacity:0.1;}.e,.f,.n{fill:#6c63ff;}.e{opacity:0.4;}.g{fill:#ccc;}.h{fill:#f2f2f2;}.i{fill:#7a7a7a;}.j{fill:#e6e6e6;}.ad,.k{fill:#fff;}.l{fill:#2f2e41;}.m{fill:#fbbebe;}.o{opacity:0.7;}.p{fill:#65617d;}.q{fill:url(#a);}.r{fill:#e1e100;}.s{fill:#9291a1;}.u{fill:#f5f5f5;}.v{fill:#ededf4;}.w{fill:#1a2246;}.x{fill:url(#b);}.y{fill:#59495d;}.z{fill:#f0b9bb;}.aa{fill:#524d64;}.ab{fill:#e2e8f0;}.ac{fill:#575168;}.ad{font-size:20px;font-family:SegoeUI-Bold, Segoe UI;font-weight:700;}.ae{fill:none;stroke:#707070;}</style><linearGradient id="a" x1="0.5" y1="1" x2="0.5" gradientUnits="objectBoundingBox"><stop offset="0" stop-color="gray" stop-opacity="0.251"/><stop offset="0.54" stop-color="gray" stop-opacity="0.122"/><stop offset="1" stop-color="gray" stop-opacity="0.102"/></linearGradient><linearGradient id="b" x1="-5.321" y1="1" x2="-5.321" y2="0" xlink:href="#a"/></defs><g transform="translate(-891.571 -809)"><g transform="translate(937.417 809)"><path class="a" d="M174.344,449.346l-.531-.12a120.926,120.926,0,0,1,235.824-.321l-.531.121a119.686,119.686,0,0,0-117.345-93.51C235.951,355.516,186.57,394.977,174.344,449.346Z" transform="translate(-135.064 -310.317)"/><circle class="b" cx="14.789" cy="14.789" r="14.789" transform="translate(230.164 45.087)"/><rect class="a" width="0.545" height="21.51" transform="translate(238.79 119.002)"/><path class="c" d="M900.521,601.762c.035,7.521-5.257,13.643-5.257,13.643s-5.348-6.073-5.383-13.595,5.257-13.643,5.257-13.643S900.486,594.241,900.521,601.762Z" transform="translate(-656.16 -480.019)"/><path class="d" d="M900.521,601.762c.035,7.521-5.257,13.643-5.257,13.643s-5.348-6.073-5.383-13.595,5.257-13.643,5.257-13.643S900.486,594.241,900.521,601.762Z" transform="translate(-656.16 -480.019)"/><circle class="e" cx="8.508" cy="8.508" r="8.508" transform="translate(127.91 59.22)"/><circle class="e" cx="5.968" cy="5.968" r="5.968" transform="translate(114.704 65.823)"/><circle class="e" cx="5.968" cy="5.968" r="5.968" transform="translate(50.718 82.977)"/><circle class="e" cx="8.508" cy="8.508" r="8.508" transform="translate(224.649 58.52)"/><path class="a" d="M87.758,689.121a5.48,5.48,0,0,0,2.041,2.761,4.718,4.718,0,0,0-1.67-6.174A5.48,5.48,0,0,0,87.758,689.121Z" transform="translate(-72.339 -551.001)"/><path class="f" d="M82.166,693.328a5.48,5.48,0,0,1,1.42,3.126A4.718,4.718,0,0,1,79,691.993,5.482,5.482,0,0,1,82.166,693.328Z" transform="translate(-66.069 -555.574)"/><path class="a" d="M699.759,689.121a5.48,5.48,0,0,0,2.041,2.761,4.718,4.718,0,0,0-1.67-6.174A5.48,5.48,0,0,0,699.759,689.121Z" transform="translate(-517.704 -551.001)"/><path class="f" d="M694.166,693.328A1.843,1.843,0,1,1,691,691.993,5.48,5.48,0,0,1,694.166,693.328Z" transform="translate(-511.433 -555.574)"/><path class="a" d="M65.126,431.1,64,429.222l10.514-9.012H101.55v2.628l-9.763,10.514-11.265,2.253Z" transform="translate(-46.574 -305.795)"/><path class="g" d="M173.443,423.931v-5.875H169.9v1.853l-1.114-1.266-9.012,9.012-1.5,1.5-1.877,7.51,3.38,8.261H177.05v-16.9Z" transform="translate(-113.814 -304.227)"/><rect class="h" width="28.538" height="17.273" transform="translate(17.426 123.427)"/><rect class="a" width="6.008" height="5.257" transform="translate(36.013 128.872)"/><rect class="g" width="5.257" height="12.016" transform="translate(28.315 128.684)"/><path class="a" d="M75.907,474.492v-1.877H73.654v1.877h2.253Z" transform="translate(-53.599 -343.931)"/><path class="a" d="M75.719,485.026H73.654V486.9h2.253v-1.878Z" transform="translate(-53.599 -352.963)"/><rect class="a" width="2.253" height="1.877" transform="translate(23.809 128.684)"/><rect class="a" width="2.253" height="1.877" transform="translate(23.809 132.063)"/><path class="a" d="M192.438,475.182V473.3h-2.253v1.878h2.253Z" transform="translate(-138.401 -344.432)"/><path class="a" d="M192.25,485.716h-2.065v1.877h2.253v-1.877Z" transform="translate(-138.401 -353.465)"/><rect class="a" width="2.253" height="1.877" transform="translate(55.539 128.872)"/><rect class="a" width="2.253" height="1.877" transform="translate(55.539 132.251)"/><path class="a" d="M464.126,431.1,463,429.222l10.514-9.012H500.55v2.628l-9.763,10.514-11.265,2.253Z" transform="translate(-336.934 -305.795)"/><path class="g" d="M572.443,423.931v-5.875H568.9v1.853l-1.114-1.266-9.012,9.012-1.5,1.5-1.877,7.51,3.379,8.261H576.05v-16.9Z" transform="translate(-404.174 -304.227)"/><rect class="h" width="28.538" height="17.273" transform="translate(126.066 123.427)"/><rect class="a" width="6.008" height="5.257" transform="translate(144.653 128.872)"/><rect class="g" width="5.257" height="12.016" transform="translate(136.955 128.684)"/><path class="a" d="M474.907,474.492v-1.877h-2.253v1.877h2.253Z" transform="translate(-343.96 -343.931)"/><path class="a" d="M474.719,485.026h-2.065V486.9h2.253v-1.878Z" transform="translate(-343.96 -352.963)"/><rect class="a" width="2.253" height="1.877" transform="translate(132.449 128.684)"/><rect class="a" width="2.253" height="1.877" transform="translate(132.449 132.063)"/><path class="a" d="M591.438,475.182V473.3h-2.253v1.878h2.253Z" transform="translate(-428.761 -344.432)"/><path class="a" d="M591.25,485.716h-2.065v1.877h2.253v-1.877Z" transform="translate(-428.761 -353.465)"/><rect class="a" width="2.253" height="1.877" transform="translate(164.179 128.872)"/><rect class="a" width="2.253" height="1.877" transform="translate(164.179 132.251)"/><path class="a" d="M275.5,315.257l-1.877-1.5,10.514-9.387h26.66v8.261l-17.273,11.641Z" transform="translate(-199.119 -221.494)"/><path class="g" d="M368.89,309.633v-5.078h-3.54V305.8l-1.321-1.431-8.636,9.387-3.379,2.253-5.24,38.283,7.9,7.9h18.365V314.13Z" transform="translate(-252.354 -221.494)"/><rect class="h" width="28.538" height="48.439" transform="translate(74.501 92.261)"/><rect class="g" width="5.257" height="11.828" transform="translate(85.578 128.872)"/><path class="a" d="M287.595,480.7v-1.877h-2.253V480.7h2.253Z" transform="translate(-207.649 -348.447)"/><path class="a" d="M287.407,491.232h-2.065v1.878h2.253v-1.878Z" transform="translate(-207.649 -357.479)"/><rect class="a" width="2.253" height="1.877" transform="translate(81.448 130.374)"/><rect class="a" width="2.253" height="1.877" transform="translate(81.448 133.753)"/><path class="a" d="M344.137,480.7v-1.877h-2.253V480.7h2.253Z" transform="translate(-248.796 -348.447)"/><path class="a" d="M343.949,491.232h-2.065v1.878h2.253v-1.878Z" transform="translate(-248.796 -357.479)"/><rect class="a" width="2.253" height="1.877" transform="translate(96.843 130.374)"/><rect class="a" width="2.253" height="1.877" transform="translate(96.843 133.753)"/><path class="a" d="M402.058,342.79v-1.877H399.8v1.877h2.253Z" transform="translate(-290.946 -248.089)"/><path class="a" d="M401.87,353.325H399.8V355.2h2.253v-1.877Z" transform="translate(-290.946 -257.121)"/><rect class="a" width="2.253" height="1.877" transform="translate(112.614 92.824)"/><rect class="a" width="2.253" height="1.877" transform="translate(112.614 96.204)"/><path class="a" d="M402.058,381.4v-1.878H399.8V381.4h2.253Z" transform="translate(-290.946 -276.189)"/><path class="a" d="M401.87,391.939H399.8v1.877h2.253v-1.877Z" transform="translate(-290.946 -285.221)"/><rect class="a" width="2.253" height="1.877" transform="translate(112.614 103.338)"/><rect class="a" width="2.253" height="1.877" transform="translate(112.614 106.718)"/><path class="a" d="M402.058,420.019v-1.878H399.8v1.878h2.253Z" transform="translate(-290.946 -304.289)"/><path class="a" d="M401.87,430.553H399.8v1.877h2.253v-1.877Z" transform="translate(-290.946 -313.322)"/><rect class="a" width="2.253" height="1.877" transform="translate(112.614 113.852)"/><rect class="a" width="2.253" height="1.877" transform="translate(112.614 117.231)"/><path class="a" d="M402.058,458.633v-1.878H399.8v1.878h2.253Z" transform="translate(-290.946 -332.389)"/><path class="a" d="M401.87,469.167H399.8v1.877h2.253v-1.877Z" transform="translate(-290.946 -341.422)"/><rect class="a" width="2.253" height="1.877" transform="translate(112.614 124.366)"/><rect class="a" width="2.253" height="1.877" transform="translate(112.614 127.745)"/><rect class="a" width="21.779" height="4.506" transform="translate(77.693 94.702)"/><rect class="a" width="21.779" height="4.506" transform="translate(77.693 103.713)"/><rect class="a" width="21.779" height="4.506" transform="translate(77.693 112.725)"/><rect class="a" width="21.779" height="4.506" transform="translate(77.693 121.737)"/><path class="a" d="M678.5,315.257l-1.877-1.5,10.514-9.387h26.66v8.261l-17.273,11.641Z" transform="translate(-492.39 -221.494)"/><path class="g" d="M771.89,309.633v-5.078h-3.54V305.8l-1.321-1.431-8.636,9.387-3.379,2.253-5.24,38.283,7.9,7.9h18.365V314.13Z" transform="translate(-545.624 -221.494)"/><rect class="h" width="28.538" height="48.439" transform="translate(184.23 92.261)"/><rect class="g" width="5.257" height="11.828" transform="translate(195.307 128.872)"/><path class="a" d="M690.595,480.7v-1.877h-2.253V480.7h2.253Z" transform="translate(-500.92 -348.447)"/><path class="a" d="M690.407,491.232h-2.065v1.878h2.253v-1.878Z" transform="translate(-500.92 -357.479)"/><rect class="a" width="2.253" height="1.877" transform="translate(191.177 130.374)"/><rect class="a" width="2.253" height="1.877" transform="translate(191.177 133.753)"/><path class="a" d="M747.137,480.7v-1.877h-2.253V480.7h2.253Z" transform="translate(-542.067 -348.447)"/><path class="a" d="M746.949,491.232h-2.065v1.878h2.253v-1.878Z" transform="translate(-542.067 -357.479)"/><rect class="a" width="2.253" height="1.877" transform="translate(206.572 130.374)"/><rect class="a" width="2.253" height="1.877" transform="translate(206.572 133.753)"/><path class="a" d="M805.058,342.79v-1.877H802.8v1.877h2.253Z" transform="translate(-584.217 -248.089)"/><path class="a" d="M804.87,353.325H802.8V355.2h2.253v-1.877Z" transform="translate(-584.217 -257.121)"/><rect class="a" width="2.253" height="1.877" transform="translate(222.343 92.824)"/><rect class="a" width="2.253" height="1.877" transform="translate(222.343 96.204)"/><path class="a" d="M805.058,381.4v-1.878H802.8V381.4h2.253Z" transform="translate(-584.217 -276.189)"/><path class="a" d="M804.87,391.939H802.8v1.877h2.253v-1.877Z" transform="translate(-584.217 -285.221)"/><rect class="a" width="2.253" height="1.877" transform="translate(222.343 103.338)"/><rect class="a" width="2.253" height="1.877" transform="translate(222.343 106.718)"/><path class="a" d="M805.058,420.019v-1.878H802.8v1.878h2.253Z" transform="translate(-584.217 -304.289)"/><path class="a" d="M804.87,430.553H802.8v1.877h2.253v-1.877Z" transform="translate(-584.217 -313.322)"/><rect class="a" width="2.253" height="1.877" transform="translate(222.343 113.852)"/><rect class="a" width="2.253" height="1.877" transform="translate(222.343 117.231)"/><path class="a" d="M805.058,458.633v-1.878H802.8v1.878h2.253Z" transform="translate(-584.217 -332.389)"/><path class="a" d="M804.87,469.167H802.8v1.877h2.253v-1.877Z" transform="translate(-584.217 -341.422)"/><rect class="a" width="2.253" height="1.877" transform="translate(222.343 124.366)"/><rect class="a" width="2.253" height="1.877" transform="translate(222.343 127.745)"/><rect class="a" width="21.779" height="4.506" transform="translate(187.422 94.702)"/><rect class="a" width="21.779" height="4.506" transform="translate(187.422 103.713)"/><rect class="a" width="21.779" height="4.506" transform="translate(187.422 112.725)"/><rect class="a" width="21.779" height="4.506" transform="translate(187.422 121.737)"/><path class="a" d="M899.5,315.257l-1.877-1.5,10.514-9.387h26.661v8.261l-17.273,11.641Z" transform="translate(-653.216 -221.494)"/><path class="g" d="M992.889,309.633v-5.078h-3.54V305.8l-1.321-1.431-8.637,9.387-3.38,2.253-5.24,38.283,7.9,7.9h18.366V314.13Z" transform="translate(-706.451 -221.494)"/><rect class="h" width="28.538" height="48.439" transform="translate(244.404 92.261)"/><rect class="g" width="5.257" height="11.828" transform="translate(255.481 128.872)"/><path class="a" d="M911.595,480.7v-1.877h-2.253V480.7h2.253Z" transform="translate(-661.746 -348.447)"/><path class="a" d="M911.407,491.232h-2.065v1.878h2.253v-1.878Z" transform="translate(-661.746 -357.479)"/><rect class="a" width="2.253" height="1.877" transform="translate(251.351 130.374)"/><rect class="a" width="2.253" height="1.877" transform="translate(251.351 133.753)"/><path class="a" d="M968.137,480.7v-1.877h-2.253V480.7h2.253Z" transform="translate(-702.893 -348.447)"/><path class="a" d="M967.949,491.232h-2.065v1.878h2.253v-1.878Z" transform="translate(-702.893 -357.479)"/><rect class="a" width="2.253" height="1.877" transform="translate(266.746 130.374)"/><rect class="a" width="2.253" height="1.877" transform="translate(266.746 133.753)"/><path class="a" d="M1026.054,342.79v-1.877H1023.8v1.877h2.255Z" transform="translate(-745.039 -248.089)"/><path class="a" d="M1025.867,353.325H1023.8V355.2h2.255v-1.877Z" transform="translate(-745.039 -257.121)"/><rect class="a" width="2.253" height="1.877" transform="translate(282.518 92.824)"/><rect class="a" width="2.253" height="1.877" transform="translate(282.518 96.204)"/><path class="a" d="M1026.054,381.4v-1.878H1023.8V381.4h2.255Z" transform="translate(-745.039 -276.189)"/><path class="a" d="M1025.867,391.939H1023.8v1.877h2.255v-1.877Z" transform="translate(-745.039 -285.221)"/><rect class="a" width="2.253" height="1.877" transform="translate(282.518 103.338)"/><rect class="a" width="2.253" height="1.877" transform="translate(282.518 106.718)"/><path class="a" d="M1026.054,420.019v-1.878H1023.8v1.878h2.255Z" transform="translate(-745.039 -304.289)"/><path class="a" d="M1025.867,430.553H1023.8v1.877h2.255v-1.877Z" transform="translate(-745.039 -313.322)"/><rect class="a" width="2.253" height="1.877" transform="translate(282.518 113.852)"/><rect class="a" width="2.253" height="1.877" transform="translate(282.518 117.231)"/><path class="a" d="M1026.054,458.633v-1.878H1023.8v1.878h2.255Z" transform="translate(-745.039 -332.389)"/><path class="a" d="M1025.867,469.167H1023.8v1.877h2.255v-1.877Z" transform="translate(-745.039 -341.422)"/><rect class="a" width="2.253" height="1.877" transform="translate(282.518 124.366)"/><rect class="a" width="2.253" height="1.877" transform="translate(282.518 127.745)"/><rect class="a" width="21.779" height="4.506" transform="translate(247.596 94.702)"/><rect class="a" width="21.779" height="4.506" transform="translate(247.596 103.713)"/><rect class="a" width="21.779" height="4.506" transform="translate(247.596 112.725)"/><rect class="a" width="21.779" height="4.506" transform="translate(247.596 121.737)"/><rect class="a" width="309.583" height="0.545" transform="translate(0 140.512)"/><rect class="a" width="0.545" height="21.51" transform="translate(68.615 119.002)"/><path class="c" d="M275.521,601.762c.035,7.521-5.257,13.643-5.257,13.643s-5.348-6.073-5.383-13.595,5.257-13.643,5.257-13.643S275.486,594.241,275.521,601.762Z" transform="translate(-201.336 -480.019)"/><rect class="a" width="0.545" height="21.51" transform="translate(123.071 119.002)"/><path class="c" d="M475.521,601.762c.035,7.521-5.257,13.643-5.257,13.643s-5.348-6.073-5.383-13.595,5.257-13.643,5.257-13.643S475.486,594.241,475.521,601.762Z" transform="translate(-346.88 -480.019)"/><rect class="a" width="0.545" height="21.51" transform="translate(231.711 119.002)"/><path class="c" d="M874.52,601.762c.035,7.521-5.257,13.643-5.257,13.643s-5.348-6.073-5.383-13.595,5.257-13.643,5.257-13.643S874.486,594.241,874.52,601.762Z" transform="translate(-637.24 -480.019)"/><ellipse class="b" cx="10.347" cy="2.328" rx="10.347" ry="2.328" transform="translate(149.618 42.19)"/><path class="i" d="M597.961,202.952c0,6.617-11.98,25.322-11.98,25.322S574,209.569,574,202.952a11.98,11.98,0,1,1,23.961,0Z" transform="translate(-426.288 -190.972)"/><circle class="h" cx="6.807" cy="6.807" r="6.807" transform="translate(152.885 5.174)"/></g><g transform="translate(1223 949.979)"><path class="j" d="M460.892,524.6h-1.263l.421-24.689h.421Z" transform="translate(-381.471 -414.903)"/><path class="j" d="M589.951,475.65l2.035-3.144a47.13,47.13,0,0,0-2.087-4.886l-1.316,1.063,1.042-1.61c-.993-1.954-1.774-3.185-1.774-3.185a45.179,45.179,0,0,0-5.444,13.238l2.611,4.035-2.89-2.334a19.071,19.071,0,0,0-.159,2.391c0,8.063,2.633,14.6,5.882,14.6s5.882-6.536,5.882-14.6a25.11,25.11,0,0,0-1.346-7.534Z" transform="translate(-509.535 -406.208)"/><path class="j" d="M272.854,524.6h-1.262l.421-24.689h.421Z" transform="translate(-225.409 -414.903)"/><path class="j" d="M404.7,475.65l2.035-3.144a47.132,47.132,0,0,0-2.087-4.886l-1.316,1.063,1.042-1.61c-.993-1.954-1.774-3.185-1.774-3.185a45.176,45.176,0,0,0-5.444,13.238l2.611,4.035-2.89-2.334a19.059,19.059,0,0,0-.159,2.391c0,8.063,2.633,14.6,5.882,14.6s5.882-6.536,5.882-14.6a25.108,25.108,0,0,0-1.346-7.534Z" transform="translate(-355.783 -406.208)"/><path class="j" d="M358.961,396.8h-2.525l.842-50.781h.842Z" transform="translate(-295.826 -287.183)"/><path class="j" d="M459.863,164.049l4.2-6.483a97.2,97.2,0,0,0-4.3-10.075l-2.713,2.191,2.148-3.319c-2.047-4.029-3.658-6.568-3.658-6.568s-8.413,13.258-11.224,27.3l5.383,8.32-5.96-4.813a39.325,39.325,0,0,0-.327,4.931c0,16.625,5.43,30.1,12.127,30.1s12.127-13.477,12.127-30.1a51.772,51.772,0,0,0-2.774-15.534Z" transform="translate(-394.532 -137.227)"/><circle class="j" cx="11.643" cy="11.643" r="11.643" transform="translate(39.234 0)"/><rect class="a" width="151" height="0.381" transform="translate(0 109.55)"/><path class="a" d="M683.591,351.547a.48.48,0,0,0,.48-.48V345.95a.475.475,0,0,0-.64-.45v-5.787a1.6,1.6,0,0,0-1.6-1.6h-52.3a1.6,1.6,0,0,0-1.6,1.6v70.209a1.6,1.6,0,0,0,1.6,1.6h52.3a1.6,1.6,0,0,0,1.6-1.6V358.715a.475.475,0,0,0,.64-.45v-5.118a.475.475,0,0,0-.64-.45v-1.178A.474.474,0,0,0,683.591,351.547Z" transform="translate(-547.686 -301.822)"/><path class="k" d="M694.245,356.453a1.6,1.6,0,0,1,1.6,1.6v63.971a1.6,1.6,0,0,1-1.6,1.6h-45.9a1.6,1.6,0,0,1-1.6-1.6V358.052a1.6,1.6,0,0,1,1.6-1.6h45.9" transform="translate(-563.297 -317.043)"/><circle class="k" cx="0.64" cy="0.64" r="0.64" transform="translate(107.358 37.25)"/><rect class="b" width="39.309" height="3.906" transform="translate(87.682 47.801)"/><rect class="j" width="39.309" height="1.48" transform="translate(87.682 57.003)"/><rect class="j" width="39.309" height="1.48" transform="translate(87.682 61.519)"/><rect class="j" width="20.311" height="1.48" transform="translate(87.682 66.093)"/><rect class="j" width="39.309" height="1.48" transform="translate(87.682 70.747)"/><rect class="j" width="39.309" height="1.48" transform="translate(87.682 75.402)"/><rect class="j" width="19.631" height="1.48" transform="translate(87.682 80.056)"/><rect class="j" width="39.309" height="1.48" transform="translate(87.682 84.711)"/><rect class="j" width="39.309" height="1.48" transform="translate(87.682 89.365)"/><rect class="b" width="12.413" height="4.081" transform="translate(114.625 95.074)"/><path class="a" d="M272.894,418.89h-.28v-9.314a5.414,5.414,0,0,0-5.414-5.414H247.36a5.414,5.414,0,0,0-5.414,5.414v51.348a5.414,5.414,0,0,0,5.414,5.414H267.2a5.414,5.414,0,0,0,5.414-5.414V425.509h.28Z" transform="translate(-227.331 -356.64)"/><path class="k" d="M278.682,416.029v51.6a4.043,4.043,0,0,1-4.043,4.043H254.76a4.043,4.043,0,0,1-4.043-4.043v-51.6a3.644,3.644,0,0,1,3.644-3.644h2.807a1.973,1.973,0,0,0,.086,1.651,1.929,1.929,0,0,0,1.578.959H270.4a1.928,1.928,0,0,0,1.578-.959,1.973,1.973,0,0,0,.086-1.651h2.977a3.644,3.644,0,0,1,3.644,3.644Z" transform="translate(-234.611 -363.464)"/><path class="l" d="M516.812,348.926s-2.109-.753-3.465,2.26a59.412,59.412,0,0,1-3.465,6.327l1.205.3s.3-2.109,1.054-2.41l-.3,2.711s9.038,3.163,13.105-.3l-.151-1.054s.6.151.6,1.054l.452-.452a8.1,8.1,0,0,0-1.808-2.109,5.315,5.315,0,0,1-1.3-3.237,4.018,4.018,0,0,0-5.93-3.09Z" transform="translate(-449.706 -310.366)"/><path class="m" d="M321.794,375.252l1.972,2.51,1.255-1.434-1.076-1.793Z" transform="translate(-267.075 -310.847)"/><path class="m" d="M314.077,605.429l-.717,3.765,1.793.9,1.255-.9v-3.765Z" transform="translate(-260.075 -502.479)"/><path class="m" d="M380,605.429l.717,3.765-1.793.9-1.255-.9v-3.765Z" transform="translate(-313.451 -502.479)"/><path class="l" d="M318.4,406.165l-2.51,17.928L312.3,440.408l4.3.538,3.406-15.239,4.3-12.908-.538,15.418-.9,12.729h3.227l2.331-17.211,2.577-12.8-.067-4.773Z" transform="translate(-259.199 -337.099)"/><path class="l" d="M453.91,746.795s-.9-1.076-1.434-.538a22.681,22.681,0,0,0-1.793,2.689s-2.868,1.613-.538,1.972,3.048,0,3.048-.179a2.627,2.627,0,0,1,.359-.717l.9.179,1.255-.359s.538-3.3,0-3.175S454.089,747.333,453.91,746.795Z" transform="translate(-399.369 -640.438)"/><path class="l" d="M534.3,746.795s.9-1.076,1.434-.538a22.679,22.679,0,0,1,1.793,2.689s2.868,1.613.538,1.972-3.048,0-3.048-.179a2.627,2.627,0,0,0-.359-.717l-.9.179-1.255-.359s-.538-3.3,0-3.175S534.12,747.333,534.3,746.795Z" transform="translate(-468.285 -640.438)"/><circle class="m" cx="3.586" cy="3.586" r="3.586" transform="translate(64.132 40.65)"/><path class="m" d="M542.214,398.016a21.816,21.816,0,0,0-.179,3.765c.179.717.538,1.793.538,1.793l-5.737-1.076s1.614-3.406,1.255-3.944S542.214,398.016,542.214,398.016Z" transform="translate(-472.076 -351.539)"/><path class="f" d="M526.127,417.194l-5.916-1.255-3.406,20.8a7.767,7.767,0,0,1,4.661.179c2.51.9,5.916,0,5.916,0l-.717-19.542Z" transform="translate(-455.451 -366.414)"/><path class="l" d="M491.664,406.253l-2.1,1.109-2.689.538-2.868,6.813.359,4.841s-3.048,5.558-3.406,8.605c0,0,.359,4.661,6.275,4.482l3.944-10.936s1.614-8.247,0-10.578C491.176,411.127,492.331,406.757,491.664,406.253Z" transform="translate(-425.7 -358.375)"/><path class="l" d="M470.413,415.456l-.581-.1-.5.1a5.79,5.79,0,0,0-2.689,1.434c-1.434,1.255-6.275,5.2-6.633,6.275a6.023,6.023,0,0,0,.359,3.944,20.915,20.915,0,0,0,1.613,2.51l.538,1.255,3.048-.9s-1.972-3.765-1.793-5.378l3.586-2.868Z" transform="translate(-408.164 -365.931)"/><path class="l" d="M562.911,411.019l2.708,3.346,1.434,1.793-1.793,6.1-.9,5.2s2.151,8.247.359,10.757c0,0-1.076,1.255-1.434-.179a75.478,75.478,0,0,1-.359-8.247s-1.434-8.964-.717-11.295S562.174,411.438,562.911,411.019Z" transform="translate(-492.972 -362.331)"/><path class="m" d="M582.028,562.667v1.793s-.359,5.916,1.434,5.2.538-5.2.538-5.2l-.179-1.972Z" transform="translate(-509.56 -488.043)"/><path class="l" d="M530.047,363.569a10.547,10.547,0,0,0,3.2-3.476s2.5,2.78,4.032,2.919.139-3.336.139-3.336l-2.78-.7-2.641.278-2.085,1.39Z" transform="translate(-466.327 -319.142)"/><path class="l" d="M417.6,313.385l1.434.538.179,1.793.717,10.936-.359,8.247-2.689.179-.9-9.143-.358-10.04Z" transform="translate(-344.952 -260.095)"/><rect class="b" width="21.792" height="2.166" transform="translate(19.154 63.544)"/><rect class="j" width="21.792" height="0.82" transform="translate(19.154 68.645)"/><rect class="j" width="21.792" height="0.82" transform="translate(19.154 71.149)"/><rect class="j" width="11.26" height="0.82" transform="translate(19.154 73.684)"/><rect class="j" width="21.792" height="0.82" transform="translate(19.154 76.264)"/><rect class="j" width="21.792" height="0.82" transform="translate(19.154 78.845)"/><rect class="j" width="10.883" height="0.82" transform="translate(19.154 81.425)"/><rect class="j" width="21.792" height="0.82" transform="translate(19.154 84.005)"/><rect class="j" width="21.792" height="0.82" transform="translate(19.154 86.586)"/><rect class="b" width="6.882" height="2.262" transform="translate(34.09 89.751)"/></g><g transform="translate(1092.679 1072.8)"><path class="n" d="M166.669,206.739a21.887,21.887,0,0,1-3.166,11.38,14.3,14.3,0,0,1-5.13,10.772,17.55,17.55,0,0,1-2.555,1.856c-.036.023-.074.045-.112.067l-.2.121-.064.038h0a19.954,19.954,0,0,1-9.828,2.524H54.324A24.75,24.75,0,0,1,38.2,227.762a18.246,18.246,0,0,1-6.673-13.85A21.879,21.879,0,0,1,28,201.952a21.608,21.608,0,0,1,21.455-21.759c.419,0,.835.015,1.249.038,7.435-12.679,24.207-21.52,43.691-21.52,11.978,0,22.928,3.339,31.314,8.857a21.113,21.113,0,0,1,10.415-2.733,21.61,21.61,0,0,1,21.455,21.759,22.423,22.423,0,0,1-.121,2.276A21.818,21.818,0,0,1,166.669,206.739Z" transform="translate(-28 -154.547)"/><ellipse class="n" cx="47.516" cy="1.273" rx="47.516" ry="1.273" transform="translate(2.545 56.518)"/><g class="o" transform="translate(17.212 22.335)"><rect class="p" width="15.152" height="8.364" transform="translate(0 26.061)"/><rect class="d" width="4.606" height="0.97" transform="translate(5.333 27.516)"/><rect class="d" width="3.455" height="0.727" transform="translate(5.909 27.637)"/><rect class="p" width="15.152" height="8.364" transform="translate(15.394 26.061)"/><rect class="d" width="4.606" height="0.97" transform="translate(20.728 27.516)"/><rect class="d" width="3.455" height="0.727" transform="translate(21.303 27.637)"/><rect class="p" width="15.152" height="8.364" transform="translate(0 17.455)"/><rect class="d" width="4.606" height="0.97" transform="translate(5.333 18.909)"/><rect class="d" width="3.455" height="0.727" transform="translate(5.909 19.031)"/><rect class="p" width="15.152" height="8.364" transform="translate(15.394 17.455)"/><rect class="d" width="4.606" height="0.97" transform="translate(20.728 18.909)"/><rect class="d" width="3.455" height="0.727" transform="translate(21.303 19.031)"/><rect class="p" width="15.152" height="8.364" transform="translate(0 8.727)"/><rect class="d" width="4.606" height="0.97" transform="translate(5.333 10.182)"/><rect class="d" width="3.455" height="0.727" transform="translate(5.909 10.303)"/><rect class="p" width="15.152" height="8.364" transform="translate(15.394 8.727)"/><rect class="d" width="4.606" height="0.97" transform="translate(20.728 10.182)"/><rect class="d" width="3.455" height="0.727" transform="translate(21.303 10.303)"/><rect class="p" width="15.152" height="8.364" transform="translate(15.394)"/><rect class="d" width="4.606" height="0.97" transform="translate(20.728 1.455)"/><rect class="d" width="3.455" height="0.727" transform="translate(21.303 1.576)"/></g><g class="o" transform="translate(48.001 22.214)"><rect class="p" width="15.152" height="8.364" transform="translate(0 26.061)"/><rect class="d" width="4.606" height="0.97" transform="translate(5.333 27.516)"/><rect class="d" width="3.455" height="0.727" transform="translate(5.909 27.637)"/><rect class="p" width="15.152" height="8.364" transform="translate(15.394 26.061)"/><rect class="d" width="4.606" height="0.97" transform="translate(20.728 27.516)"/><rect class="d" width="3.455" height="0.727" transform="translate(21.303 27.637)"/><rect class="p" width="15.152" height="8.364" transform="translate(0 17.455)"/><rect class="d" width="4.606" height="0.97" transform="translate(5.333 18.909)"/><rect class="d" width="3.455" height="0.727" transform="translate(5.909 19.031)"/><rect class="p" width="15.152" height="8.364" transform="translate(15.394 17.455)"/><rect class="d" width="4.606" height="0.97" transform="translate(20.728 18.909)"/><rect class="d" width="3.455" height="0.727" transform="translate(21.303 19.031)"/><rect class="p" width="15.152" height="8.364" transform="translate(0 8.727)"/><rect class="d" width="4.606" height="0.97" transform="translate(5.333 10.182)"/><rect class="d" width="3.455" height="0.727" transform="translate(5.909 10.303)"/><rect class="p" width="15.152" height="8.364" transform="translate(15.394 8.727)"/><rect class="d" width="4.606" height="0.97" transform="translate(20.728 10.182)"/><rect class="d" width="3.455" height="0.727" transform="translate(21.303 10.303)"/><rect class="p" width="15.152" height="8.364" transform="translate(15.394)"/><rect class="d" width="4.606" height="0.97" transform="translate(20.728 1.455)"/><rect class="d" width="3.455" height="0.727" transform="translate(21.303 1.576)"/></g><path class="n" d="M840.294,124.384s-10.205-.616-9.005,6.536a1.738,1.738,0,0,0,.907,1.838s.018-.53,1.047-.349a4.79,4.79,0,0,0,1.109.053,2.311,2.311,0,0,0,1.355-.56h0s2.869-1.185,3.984-5.874c0,0,.825-1.023.793-1.286l-1.723.736a3.072,3.072,0,0,1,.121,2.275s-.056-2.23-.387-2.182c-.067.011-.895.43-.895.43s1.012,2.164.248,3.737c0,0,.29-2.667-.565-3.581l-1.212.708s1.183,2.235.381,4.059c0,0,.206-2.8-.636-3.887l-1.1.857s1.112,2.2.434,3.716c0,0-.089-3.257-.672-3.5a6.755,6.755,0,0,0-1.108,1.2s.761,1.6.288,2.444c0,0-.29-2.17-.527-2.182a7.2,7.2,0,0,0-1.057,2.424,5.227,5.227,0,0,1,.826-2.561,2.882,2.882,0,0,0-1.467.76s.149-1.017,1.7-1.105a6.713,6.713,0,0,1,1-1.158,6.308,6.308,0,0,0-2.481.286,2.786,2.786,0,0,1,2.765-.522l1.085-.886a8.978,8.978,0,0,0-2.9.029s.993-.848,3.189-.229l1.183-.7a10.831,10.831,0,0,0-2.767-.242,4.244,4.244,0,0,1,3.114.05l.849-.379s-1.27-.25-1.643-.29-.391-.142-.391-.142a4.406,4.406,0,0,1,2.387.265A10.69,10.69,0,0,0,840.294,124.384Z" transform="translate(-733.833 -124.37)"/><path class="n" d="M772.648,139.446s-4.606-.279-4.067,2.954a.789.789,0,0,0,.409.83s.008-.242.474-.159a2.12,2.12,0,0,0,.5.024,1.039,1.039,0,0,0,.612-.253h0a3.656,3.656,0,0,0,1.8-2.653s.372-.463.358-.582l-.778.332a1.4,1.4,0,0,1,.057,1.029s-.026-1.009-.175-.984c-.03,0-.4.194-.4.194a2.3,2.3,0,0,1,.113,1.69s.131-1.2-.256-1.618l-.548.32a2.411,2.411,0,0,1,.172,1.834,3.437,3.437,0,0,0-.287-1.756l-.5.387a2.372,2.372,0,0,1,.2,1.68s-.04-1.473-.3-1.583a3.03,3.03,0,0,0-.5.541s.344.727.131,1.1c0,0-.131-.981-.242-.984a3.288,3.288,0,0,0-.478,1.091,2.37,2.37,0,0,1,.373-1.158,1.3,1.3,0,0,0-.663.343s.068-.458.77-.5a3.309,3.309,0,0,1,.453-.522,2.842,2.842,0,0,0-1.121.13,1.258,1.258,0,0,1,1.25-.236l.485-.4a4.185,4.185,0,0,0-1.309.013,1.594,1.594,0,0,1,1.441-.1l.533-.319a4.793,4.793,0,0,0-1.251-.108,1.913,1.913,0,0,1,1.407.022l.382-.171s-.574-.114-.743-.131-.177-.064-.177-.064a1.986,1.986,0,0,1,1.079.121A4.9,4.9,0,0,0,772.648,139.446Z" transform="translate(-678.774 -137.613)"/><ellipse class="f" cx="4.874" cy="0.824" rx="4.874" ry="0.824" transform="translate(22.301 76.506)"/><path class="f" d="M236.142,734.923a1.411,1.411,0,0,0,.464-.7.626.626,0,0,0-.325-.714c-.3-.114-.617.093-.858.3a1.146,1.146,0,0,1-.834.4,1.273,1.273,0,0,0,.393-1.189.5.5,0,0,0-.109-.242c-.166-.177-.465-.1-.664.038a2.476,2.476,0,0,0-.81,2.07,3.889,3.889,0,0,1-.011-.848.874.874,0,0,0-.321-.755.961.961,0,0,0-.485-.114,1.007,1.007,0,0,0-.792.226.781.781,0,0,0,.03.97,3.086,3.086,0,0,0,.821.657,1.818,1.818,0,0,1,.585.559.506.506,0,0,1,.044.1h1.777A4.943,4.943,0,0,0,236.142,734.923Z" transform="translate(-206.952 -658.94)"/><path class="a" d="M713.847,462.907a.551.551,0,0,0-.3-.434.564.564,0,0,0-.747.315l-2.692,5.664-.606,22.3h.97l.364-22.254,2.963-5.244A.576.576,0,0,0,713.847,462.907Z" transform="translate(-626.893 -421.45)"/><path class="n" d="M438.706,717.434a17.55,17.55,0,0,1-2.555,1.856.415.415,0,0,1-.047.056.789.789,0,0,1-.333.167h0a19.952,19.952,0,0,1-9.828,2.524H359.3c-7.636-.785-12.3-1.827-12.3-2.97,0-.886,2.8-1.712,7.615-2.4q.749-.109,1.562-.211.5-.063,1.024-.121l.593-.069q.659-.075,1.354-.147h.038l.485-.049q.615-.064,1.255-.121l.31-.028.792-.07q.771-.069,1.576-.132l1.358-.1c4.662-.345,10.037-.606,15.885-.775l1.67-.057.562-.012,1.188-.027.476-.01.5-.01.356-.006,1.673-.027.859-.012h.176q3.049-.036,6.211-.038c4.167,0,8.209.05,12.06.144h0q3.316.08,6.43.2h.019c5.986.235,11.343.582,15.777,1.012l.081.008c1.138.11,2.216.228,3.227.349.952.114,1.845.234,2.674.356.287.042.566.086.838.129l.069.012C436.843,717.04,437.851,717.229,438.706,717.434Z" transform="translate(-308.333 -643.09)"/><path class="q" d="M771.543,333.455a.43.43,0,0,1-.047.056.788.788,0,0,1-.333.167h0a3.362,3.362,0,0,1-.752.121h-.076a3.253,3.253,0,0,1-.435-.015,2.021,2.021,0,0,0-.319-.021h-.015a2.269,2.269,0,0,0-.455.113,4.029,4.029,0,0,1-1.006.143h-.121c-.381,0-.766-.013-1.148-.011h-.185c-.655.017-1.306.121-1.96.132h-.21a3.084,3.084,0,0,1-1.807-.541.713.713,0,0,1-.242-.272.758.758,0,0,1-.043-.364.856.856,0,0,1,.219-.606.956.956,0,0,1,.349-.168c.222-.071.445-.141.667-.21s.475-.143.714-.213l.046-.015.133-.04.086-.029a1.408,1.408,0,0,0,.3-.136.988.988,0,0,0,.307-.307c.013-.022.028-.045.04-.068s0-.038-.008-.057c-.021-.152-.036-.307-.063-.455a1.818,1.818,0,0,1-.9-.507,2.879,2.879,0,0,1-.523-.707,14.828,14.828,0,0,1-.682-1.8,16.063,16.063,0,0,0-1.355-2.6c-.463-.773-.928-1.549-1.455-2.28-.35-.485-.727-.947-1.074-1.433a12.726,12.726,0,0,1-2.07-4.521,5.976,5.976,0,0,0-.251-.919,9.341,9.341,0,0,0-.886-1.389,4.6,4.6,0,0,1-.641-1.645c-.061-.332-.162-.691-.493-.727h0l-.035.069a15.9,15.9,0,0,1-2.424,3.779,3.994,3.994,0,0,0-.452.52,4.985,4.985,0,0,0-.291.56A3.641,3.641,0,0,1,751,318a1.845,1.845,0,0,1-.255.215,1.371,1.371,0,0,1-.4.2h0a1.178,1.178,0,0,1-.172.039c0,.015.006.028.007.042s.007.032.01.047a5.7,5.7,0,0,1-.222,2.9c-.009.029-.018.057-.029.086q-.075.2-.164.4c-.148.321-.324.629-.462.955-.023.056-.046.112-.066.167a13.543,13.543,0,0,0-.427,4.143,4.569,4.569,0,0,1-.108.907c-.082.336-.214.682-.287,1.029a1.742,1.742,0,0,0-.016.794l-.029.011c-.13.048-.262.092-.394.133v.018c.047.272.093.543.141.813a1.19,1.19,0,0,0,.25.65.892.892,0,0,1,.121.121c.1.15.011.349.029.527.027.252.259.467.223.718a.473.473,0,0,1-.284.337.838.838,0,0,1-.187.059l-.04.009c-.073.013-.145.021-.218.028a10.167,10.167,0,0,1-2.713.027c-.177-.03-.353-.07-.532-.085a3.973,3.973,0,0,0-.679.028,33.341,33.341,0,0,1-4.993.1,1.384,1.384,0,0,1-1.159-.464,1.343,1.343,0,0,1-.025-1.053,1.138,1.138,0,0,1,.147-.364.228.228,0,0,1,.027-.034,1.208,1.208,0,0,1,1-.284l1.181.035a1.105,1.105,0,0,0,.347-.027,3.653,3.653,0,0,0,.516-.295c.225-.108.509-.121.671-.305l.021-.027a1.408,1.408,0,0,0,.08-.121c0-.009.011-.017.017-.025h0a.22.22,0,0,1,.015-.022,1.918,1.918,0,0,1,.622-.387.638.638,0,0,0,.091-.064l.024-.022a2.486,2.486,0,0,1-.589-.593.6.6,0,0,1-.135-.235.341.341,0,0,1,.015-.2.307.307,0,0,1,.019-.045l.006-.012c.082-.162.252-.309.345-.475a.07.07,0,0,0,.008-.017.748.748,0,0,0-.036-.813c.1-1.6.536-3.152.633-4.753.039-.634.023-1.27.052-1.907s.1-1.253.168-1.878a28.65,28.65,0,0,0,.493-4.257,2.607,2.607,0,0,1,.017-.4.232.232,0,0,1,0-.029,2.461,2.461,0,0,1,.27-.839,6.45,6.45,0,0,1,.6-.839,8.619,8.619,0,0,0,1.907-3.132,6.785,6.785,0,0,1,.742-1.733,3.056,3.056,0,0,1,.649-.91,2.854,2.854,0,0,0,.428-.364,3.421,3.421,0,0,0,.324-.918c.061-.159.154-.3.2-.468a.249.249,0,0,1,.012-.05,3.284,3.284,0,0,0,.042-.5,1.146,1.146,0,0,1,.013-.143h0a5.069,5.069,0,0,1,.413-1.385c.026-.056.05-.113.074-.168a5.193,5.193,0,0,1-1.455-1.262,2.968,2.968,0,0,1-.353-.532,6.585,6.585,0,0,1-.424-1.6,27.313,27.313,0,0,1-1.015-3.838,4.246,4.246,0,0,0-.141-1.2,2.424,2.424,0,0,0-.137-.3c-.022-.041-.043-.082-.064-.121l-.024-.046-.062-.121-.1.078a72.61,72.61,0,0,1-7.794,5.324l-.233.138a.847.847,0,0,0-.308.252c-.01.016-.018.032-.027.047h0c-.056.115-.07.242-.121.364a.993.993,0,0,1-.675.537,2.084,2.084,0,0,1-1.533-.2,1.875,1.875,0,0,1-.175-.1,2.363,2.363,0,0,1-.446.19,5.284,5.284,0,0,1-1.495.133,4.489,4.489,0,0,0-1.49.165,3.723,3.723,0,0,1-.955.3.892.892,0,0,1-.114,0,1.651,1.651,0,0,1-.541-.159l-.1-.045a1.629,1.629,0,0,1-.15-.081.831.831,0,0,1-.147-.115.535.535,0,0,1-.136-.231.383.383,0,0,1,0-.193.12.12,0,0,1,.041-.073.13.13,0,0,1,.071-.018,2.179,2.179,0,0,1,.414.035,1.5,1.5,0,0,0,.243.013h.044a.525.525,0,0,0,.364-.206.225.225,0,0,0,.032-.058h0a.267.267,0,0,0,.022-.108.236.236,0,0,0,0-.028c-.051-.023-.1-.046-.151-.074-.025-.013-.05-.028-.074-.042l-.015-.01a.826.826,0,0,1-.121-.1.425.425,0,0,1-.062-.078.467.467,0,0,1-.072-.145h0a.651.651,0,0,0-.3.008c-.132.036-.266.114-.4.141a.352.352,0,0,1-.2-.008c-.189-.068-.256-.3-.3-.5-.007-.038-.016-.076-.022-.115h0a.619.619,0,0,1,0-.225.83.83,0,0,1,.319-.416l.4-.333.029-.024a.692.692,0,0,0-.018-.1.62.62,0,0,1,0-.227.826.826,0,0,1,.319-.415l.88-.741a1.034,1.034,0,0,1,.559-.3c.319-.022.573.242.812.455a1.843,1.843,0,0,0,1.067.512,1.565,1.565,0,0,0,.564-.078l.1-.034c-.022-.045-.044-.09-.064-.135-.035-.074-.07-.149-.1-.224a2.407,2.407,0,0,0,1.377-.656c.391-.339.727-.741,1.122-1.074.427-.364.917-.634,1.349-.984,1.006-.816,1.674-2.015,2.75-2.733a3.572,3.572,0,0,0,1.059-.824c.079-.121.138-.242.219-.364a3.838,3.838,0,0,1,1.066-.783,5.3,5.3,0,0,0,.979-.977c.211-.253.423-.507.624-.767.185-.346.342-.707.536-1.047a5.138,5.138,0,0,1,.573-.81c.05-.1.1-.194.155-.288s.094-.159.145-.242c.035-.055.072-.107.109-.16-.11-.2-.216-.364-.265-.438l-.024-.033a3.637,3.637,0,0,0-.342-.32,3.212,3.212,0,0,1-.376-.08,3.536,3.536,0,0,1-2.6-3.415.027.027,0,0,1,0-.011,3.515,3.515,0,0,1,.386-1.6c.051-.1.105-.2.165-.288a1.093,1.093,0,0,1-.161-.065.639.639,0,0,1-.226-.185.536.536,0,0,1-.093-.235,1.2,1.2,0,0,1,.087-.587,2.757,2.757,0,0,1,.113-.262.114.114,0,0,0,.008-.016,3.369,3.369,0,0,1,2.851-1.809,5.133,5.133,0,0,1,3.439,1.371,4.6,4.6,0,0,1,.781.821,4.966,4.966,0,0,1,.812,2.527,3.874,3.874,0,0,1-.014.839,1.978,1.978,0,0,1-.061.293c-.016.057-.036.114-.058.171a1.11,1.11,0,0,1-.055.121v.006c-.018.039-.039.075-.059.112l-.011.016-.016.025c.01.023.021.047.032.07s.021.045.033.067h.015c.242.019.467.053.714.073a1.643,1.643,0,0,1,.344.053,2.3,2.3,0,0,1,.629.393c.5.356,1.125.522,1.621.891a6.492,6.492,0,0,1,1.532,2.244,25.552,25.552,0,0,1,1.948,3.144q.284.784.57,1.566a24.425,24.425,0,0,0,1.25,3.012,44.3,44.3,0,0,1,2.218,3.954.63.63,0,0,0,.3.327,25.737,25.737,0,0,1,2.043,3.417,6.408,6.408,0,0,1,.7,1.979,4.775,4.775,0,0,1-.152,1.85,8.984,8.984,0,0,1-.355,1.05,1.731,1.731,0,0,0-.121.375v.04a3.424,3.424,0,0,0,.089.7,1.288,1.288,0,0,1-.062.555c-.01.028-.021.056-.032.084a3,3,0,0,0-.19.441.432.432,0,0,0-.01.056,2.247,2.247,0,0,0,.121.792,10.627,10.627,0,0,1,.121,2.909c-.028.485.364.874.691,1.232a13.264,13.264,0,0,1,1.537,2.235,7.15,7.15,0,0,1,.627,1.253,10.478,10.478,0,0,1,.338,1.546c.309,1.6,1.319,3.013,1.593,4.617a4.121,4.121,0,0,0,.937,1.986,4.2,4.2,0,0,1,.4.485,1.937,1.937,0,0,1,.2.436,3.238,3.238,0,0,1,.166,1.107,1.665,1.665,0,0,0,.03.538c.114.372.521.577.69.927s.052.8.121,1.2a1.292,1.292,0,0,0,.485.807c-.1.085-.2.162-.3.242a1.214,1.214,0,0,1,.251.264,1.188,1.188,0,0,1,.121.215c.16.372.165.815.3,1.212a.87.87,0,0,1,.086.507.56.56,0,0,0-.041.15c0,.109.114.181.158.28A.3.3,0,0,1,771.543,333.455Z" transform="translate(-643.725 -257.256)"/><path class="m" d="M860.924,325.1a7.574,7.574,0,0,0,2.05-1.032l2.256-1.436a1.962,1.962,0,0,1-1.455-1.013,5.116,5.116,0,0,1-.55-1.747,9.14,9.14,0,0,0-2.593,1.7c-.31.268-.97.673-1.065,1.091s.515.758.752,1.038C860.4,323.789,861.164,325.031,860.924,325.1Z" transform="translate(-758.76 -296.172)"/><path class="d" d="M860.924,325.1a7.574,7.574,0,0,0,2.05-1.032l2.256-1.436a1.962,1.962,0,0,1-1.455-1.013,5.116,5.116,0,0,1-.55-1.747,9.14,9.14,0,0,0-2.593,1.7c-.31.268-.97.673-1.065,1.091s.515.758.752,1.038C860.4,323.789,861.164,325.031,860.924,325.1Z" transform="translate(-758.76 -296.172)"/><path class="m" d="M733.58,456.688a2.508,2.508,0,0,1-1.266.383,1.839,1.839,0,0,1-1.065-.508c-.243-.211-.492-.474-.811-.452a1.039,1.039,0,0,0-.558.3l-.879.736a.827.827,0,0,0-.319.412.816.816,0,0,0,.021.342c.04.2.107.425.3.492s.4-.076.6-.131a.7.7,0,0,1,.687.2.409.409,0,0,1,.121.264c0,.219-.242.364-.466.374s-.436-.062-.657-.048a.1.1,0,0,0-.113.09.463.463,0,0,0,.142.422,1.23,1.23,0,0,0,.4.242,1.614,1.614,0,0,0,.541.158,2.87,2.87,0,0,0,1.067-.3,4.617,4.617,0,0,1,1.489-.164,5.252,5.252,0,0,0,1.492-.132,1.692,1.692,0,0,0,1.126-.916.22.22,0,0,0,.021-.141.232.232,0,0,0-.1-.121c-.676-.5-.95-1.109-1.712-1.469Z" transform="translate(-643.742 -415.898)"/><path class="d" d="M733.58,456.688a2.508,2.508,0,0,1-1.266.383,1.839,1.839,0,0,1-1.065-.508c-.243-.211-.492-.474-.811-.452a1.039,1.039,0,0,0-.558.3l-.879.736a.827.827,0,0,0-.319.412.816.816,0,0,0,.021.342c.04.2.107.425.3.492s.4-.076.6-.131a.7.7,0,0,1,.687.2.409.409,0,0,1,.121.264c0,.219-.242.364-.466.374s-.436-.062-.657-.048a.1.1,0,0,0-.113.09.463.463,0,0,0,.142.422,1.23,1.23,0,0,0,.4.242,1.614,1.614,0,0,0,.541.158,2.87,2.87,0,0,0,1.067-.3,4.617,4.617,0,0,1,1.489-.164,5.252,5.252,0,0,0,1.492-.132,1.692,1.692,0,0,0,1.126-.916.22.22,0,0,0,.021-.141.232.232,0,0,0-.1-.121c-.676-.5-.95-1.109-1.712-1.469Z" transform="translate(-643.742 -415.898)"/><path class="f" d="M777.781,352.537a1.461,1.461,0,0,0-1.282-.149,2.768,2.768,0,0,0-1.1.736,5.077,5.077,0,0,0-.779,1.029c-.206.364-.364.744-.57,1.107a11.77,11.77,0,0,1-1.317,1.788,5.074,5.074,0,0,1-.978.97,3.8,3.8,0,0,0-1.064.778c-.081.114-.139.242-.219.358a3.52,3.52,0,0,1-1.058.818c-1.074.715-1.742,1.906-2.746,2.716-.433.349-.921.623-1.347.979-.4.331-.727.727-1.122,1.067a2.4,2.4,0,0,1-1.375.651,7.083,7.083,0,0,0,1.345,2.118,2.4,2.4,0,0,0,2.281.745.991.991,0,0,0,.675-.533,2.284,2.284,0,0,1,.143-.413.849.849,0,0,1,.307-.251,72.466,72.466,0,0,0,9.226-6.392c.779-.635,1.553-1.2,2.353-1.818a5.148,5.148,0,0,0,.792-.693,2.635,2.635,0,0,0,.32-2.9,6.89,6.89,0,0,0-.735-1A8.747,8.747,0,0,0,777.781,352.537Z" transform="translate(-673.75 -324.674)"/><path class="d" d="M777.781,352.537a1.461,1.461,0,0,0-1.282-.149,2.768,2.768,0,0,0-1.1.736,5.077,5.077,0,0,0-.779,1.029c-.206.364-.364.744-.57,1.107a11.77,11.77,0,0,1-1.317,1.788,5.074,5.074,0,0,1-.978.97,3.8,3.8,0,0,0-1.064.778c-.081.114-.139.242-.219.358a3.52,3.52,0,0,1-1.058.818c-1.074.715-1.742,1.906-2.746,2.716-.433.349-.921.623-1.347.979-.4.331-.727.727-1.122,1.067a2.4,2.4,0,0,1-1.375.651,7.083,7.083,0,0,0,1.345,2.118,2.4,2.4,0,0,0,2.281.745.991.991,0,0,0,.675-.533,2.284,2.284,0,0,1,.143-.413.849.849,0,0,1,.307-.251,72.466,72.466,0,0,0,9.226-6.392c.779-.635,1.553-1.2,2.353-1.818a5.148,5.148,0,0,0,.792-.693,2.635,2.635,0,0,0,.32-2.9,6.89,6.89,0,0,0-.735-1A8.747,8.747,0,0,0,777.781,352.537Z" transform="translate(-673.75 -324.674)"/><path class="a" d="M808.936,719.56a1.853,1.853,0,0,0-.622.385c-.048.063-.081.137-.133.2-.161.189-.447.2-.672.305a3.249,3.249,0,0,1-.515.292,1.116,1.116,0,0,1-.348.027l-1.178-.035a1.171,1.171,0,0,0-1.028.313,1.109,1.109,0,0,0-.148.364,1.348,1.348,0,0,0,.026,1.047,1.4,1.4,0,0,0,1.157.462,33.422,33.422,0,0,0,4.987-.1,3.926,3.926,0,0,1,.676-.028c.179.015.355.054.532.085a10.2,10.2,0,0,0,2.709-.027,1.419,1.419,0,0,0,.445-.095.471.471,0,0,0,.282-.336c.038-.25-.2-.462-.222-.713-.018-.177.067-.374-.031-.525a.867.867,0,0,0-.121-.121,1.192,1.192,0,0,1-.25-.645l-.212-1.245a.382.382,0,0,0-.1-.235.349.349,0,0,0-.15-.062,8.046,8.046,0,0,0-2.788.1,7.486,7.486,0,0,1-1.427.071c-.206-.013-.286-.037-.44.1S809.129,719.447,808.936,719.56Z" transform="translate(-710.113 -646.73)"/><path class="a" d="M1009.055,727.271a2.044,2.044,0,0,1-.516.2q-.714.209-1.426.435a.944.944,0,0,0-.348.167.846.846,0,0,0-.219.606.763.763,0,0,0,.042.364.733.733,0,0,0,.242.269,3.183,3.183,0,0,0,1.933.538c.681,0,1.358-.115,2.039-.133a9.664,9.664,0,0,0,2.459-.136,2.1,2.1,0,0,1,.468-.114,1.972,1.972,0,0,1,.318.021,3.369,3.369,0,0,0,1.263-.115.778.778,0,0,0,.334-.166.312.312,0,0,0,.09-.342c-.043-.1-.155-.17-.156-.278a.522.522,0,0,1,.04-.15.851.851,0,0,0-.086-.5,5.329,5.329,0,0,0-.411-1.412,1.79,1.79,0,0,0-1.283-.638,3.564,3.564,0,0,0-1.194.034c-.442.095-.856.292-1.29.418a4.22,4.22,0,0,1-1.552.147c-.347-.029-.228.025-.345.316A1.033,1.033,0,0,1,1009.055,727.271Z" transform="translate(-887.927 -652.943)"/><circle class="m" cx="3.515" cy="3.515" r="3.515" transform="translate(98.244 20.214)"/><path class="r" d="M867.263,375.591a6.229,6.229,0,0,1-4,1.361,3.286,3.286,0,0,1-1.752-.373c-.036-.2-.051-.413-.087-.612a2.235,2.235,0,0,1-1.416-1.206,14.5,14.5,0,0,1-.682-1.792,16.007,16.007,0,0,0-1.353-2.585c-.463-.768-.927-1.539-1.454-2.266-.349-.485-.727-.941-1.073-1.424a12.61,12.61,0,0,1-2.067-4.492,5.855,5.855,0,0,0-.251-.913,9.294,9.294,0,0,0-.885-1.381,4.564,4.564,0,0,1-.641-1.635c-.059-.33-.161-.686-.492-.72h0a15.878,15.878,0,0,1-2.457,3.824,3.964,3.964,0,0,0-.452.516,4.967,4.967,0,0,0-.291.558,3.6,3.6,0,0,1-.642.936,1.5,1.5,0,0,1-.827.451,5.653,5.653,0,0,1-.4,3.455c-.147.32-.322.625-.461.949a12.134,12.134,0,0,0-.493,4.284,4.491,4.491,0,0,1-.107.9,3.942,3.942,0,0,0-.3,1.812,9.522,9.522,0,0,1-4.818.3,2.321,2.321,0,0,1-.9-.273,2.47,2.47,0,0,1-.589-.589.593.593,0,0,1-.135-.234c-.063-.276.242-.485.384-.727a.735.735,0,0,0-.028-.825c.1-1.587.536-3.136.633-4.727.039-.63.023-1.263.052-1.895s.1-1.246.167-1.867a28.3,28.3,0,0,0,.493-4.23,2.463,2.463,0,0,1,.292-1.259,6.373,6.373,0,0,1,.594-.834,8.529,8.529,0,0,0,1.9-3.112,6.737,6.737,0,0,1,.741-1.722,3.048,3.048,0,0,1,.647-.906,2.842,2.842,0,0,0,.428-.364,3.36,3.36,0,0,0,.324-.912c.061-.158.154-.3.2-.465a2.659,2.659,0,0,0,.055-.546,5.1,5.1,0,0,1,.5-1.691,5.182,5.182,0,0,1-1.455-1.253,3.074,3.074,0,0,1-.351-.53,6.5,6.5,0,0,1-.424-1.593,27.212,27.212,0,0,1-1.013-3.813,4.232,4.232,0,0,0-.139-1.2,3.713,3.713,0,0,0-.225-.467,1.9,1.9,0,0,1-.191-.47,8.155,8.155,0,0,1,0-1.091,7.886,7.886,0,0,0-.234-.936,4.45,4.45,0,0,1-.035-1.236,10.131,10.131,0,0,0,.095-1.464,5.657,5.657,0,0,1,1.521-4.356l.028-.028c.231-.242.485-.457.693-.714.284-.344.485-.749.784-1.084.131-.149.279-.282.408-.433a3.6,3.6,0,0,1,.394-.441.606.606,0,0,1,.548-.147,1.515,1.515,0,0,0,.167.516c.252.019.476.055.727.074a1.641,1.641,0,0,1,.344.053,2.242,2.242,0,0,1,.628.389c.5.355,1.124.52,1.619.886a6.4,6.4,0,0,1,1.53,2.229,24.8,24.8,0,0,1,1.94,3.125l.568,1.556a24.288,24.288,0,0,0,1.248,2.993,45.109,45.109,0,0,1,2.216,3.93.633.633,0,0,0,.295.325,25.36,25.36,0,0,1,2.04,3.394,6.319,6.319,0,0,1,.7,1.967,5.725,5.725,0,0,1-.505,2.881,1.5,1.5,0,0,0-.121.412,3.362,3.362,0,0,0,.089.691,1.279,1.279,0,0,1-.093.635,2.931,2.931,0,0,0-.19.439,1.915,1.915,0,0,0,.114.841,10.469,10.469,0,0,1,.121,2.89c-.028.485.364.869.69,1.224a13.1,13.1,0,0,1,1.536,2.221,7.191,7.191,0,0,1,.625,1.246,10.321,10.321,0,0,1,.338,1.536c.308,1.589,1.316,2.994,1.59,4.588a4.077,4.077,0,0,0,.936,1.972,4.3,4.3,0,0,1,.4.485,1.958,1.958,0,0,1,.2.434,3.2,3.2,0,0,1,.166,1.1,1.641,1.641,0,0,0,.03.535c.114.37.521.573.688.921s.052.794.121,1.189A1.28,1.28,0,0,0,867.263,375.591Z" transform="translate(-740.019 -302.52)"/><path class="m" d="M739.58,447.688a2.507,2.507,0,0,1-1.265.383,1.838,1.838,0,0,1-1.066-.508c-.242-.211-.492-.474-.811-.452a1.039,1.039,0,0,0-.558.3l-.879.736a.826.826,0,0,0-.319.412.815.815,0,0,0,.021.342c.04.2.107.426.3.492s.4-.076.6-.131a.7.7,0,0,1,.687.2.409.409,0,0,1,.121.264c0,.219-.242.364-.465.375s-.437-.062-.657-.049a.1.1,0,0,0-.113.09.462.462,0,0,0,.142.422,1.225,1.225,0,0,0,.4.242,1.609,1.609,0,0,0,.54.158,2.869,2.869,0,0,0,1.067-.3,4.611,4.611,0,0,1,1.489-.164,5.253,5.253,0,0,0,1.492-.132,1.692,1.692,0,0,0,1.126-.916.221.221,0,0,0,.021-.141.232.232,0,0,0-.1-.121c-.676-.5-.95-1.109-1.711-1.469Z" transform="translate(-649.015 -407.989)"/><path class="a" d="M840.742,281.532a3.006,3.006,0,0,0-.587.255,1.011,1.011,0,0,1-.829-.044.64.64,0,0,1-.227-.184.9.9,0,0,1-.006-.817,3.332,3.332,0,0,1,2.97-2.073,5.141,5.141,0,0,1,3.434,1.361,4.693,4.693,0,0,1,.779.816,4.926,4.926,0,0,1,.811,2.512,3.272,3.272,0,0,1-.074,1.125,1.367,1.367,0,0,1-.638.859,1.259,1.259,0,0,1-1.113-.048,4.691,4.691,0,0,1-.952-.693,1.412,1.412,0,0,0-.474-.3.484.484,0,0,0-.513.121c-.163.2-.121.515-.269.727a.846.846,0,0,1-.715.242.788.788,0,0,1-.678-.228.852.852,0,0,1-.068-.695,2.277,2.277,0,0,0,.121-.709c-.05-.485-.474-.783-.606-1.229-.086-.292.1-.416.084-.68A.381.381,0,0,0,840.742,281.532Z" transform="translate(-740.693 -259.962)"/><path class="d" d="M910.28,518.373v.03h0a15.878,15.878,0,0,1-2.457,3.824,3.96,3.96,0,0,0-.452.516,4.953,4.953,0,0,0-.291.557,3.592,3.592,0,0,1-.642.936l-.878.439,2.788-14.546Z" transform="translate(-799.188 -463.37)"/><path class="d" d="M870.922,354.118a5.146,5.146,0,0,1-.792.693c-.8.606-1.576,1.178-2.353,1.818q-.939.765-1.905,1.5a1.9,1.9,0,0,1-.191-.47,8.186,8.186,0,0,1,0-1.091,7.892,7.892,0,0,0-.234-.936,4.438,4.438,0,0,1-.035-1.236,10.148,10.148,0,0,0,.095-1.464,5.657,5.657,0,0,1,1.529-4.365l.028-.028a2.122,2.122,0,0,1,.412-.184,1.462,1.462,0,0,1,1.282.155,8.744,8.744,0,0,1,1.746,1.712,6.888,6.888,0,0,1,.735,1A2.635,2.635,0,0,1,870.922,354.118Z" transform="translate(-763.881 -321.13)"/><path class="s" d="M783.781,343.537a1.462,1.462,0,0,0-1.282-.149,2.768,2.768,0,0,0-1.1.736,5.074,5.074,0,0,0-.779,1.029c-.206.364-.364.744-.57,1.107a11.768,11.768,0,0,1-1.317,1.788,5.067,5.067,0,0,1-.978.97,3.8,3.8,0,0,0-1.064.778c-.081.114-.14.242-.22.358a3.514,3.514,0,0,1-1.058.818c-1.074.715-1.742,1.905-2.746,2.716-.433.349-.921.623-1.347.979-.4.331-.727.727-1.122,1.067a2.4,2.4,0,0,1-1.375.651,7.078,7.078,0,0,0,1.345,2.118,2.4,2.4,0,0,0,2.281.745.991.991,0,0,0,.675-.533,2.272,2.272,0,0,1,.143-.413.847.847,0,0,1,.307-.251,72.457,72.457,0,0,0,9.226-6.392c.78-.635,1.553-1.2,2.353-1.818a5.149,5.149,0,0,0,.792-.693,2.635,2.635,0,0,0,.32-2.9,6.889,6.889,0,0,0-.734-1A8.746,8.746,0,0,0,783.781,343.537Z" transform="translate(-679.022 -316.765)"/><g class="t" transform="translate(98.303 20.266)"><path d="M842.575,296.232A.8.8,0,0,1,841.9,296a.857.857,0,0,1-.068-.695,2.274,2.274,0,0,0,.121-.709c-.05-.485-.474-.783-.606-1.229-.086-.292.1-.416.083-.68a.384.384,0,0,0-.453-.313,3,3,0,0,0-.587.254,1.011,1.011,0,0,1-.829-.044.64.64,0,0,1-.227-.184.9.9,0,0,1-.006-.817c0-.01.008-.018.012-.028a2.932,2.932,0,0,0-.255.513.9.9,0,0,0,.006.817.64.64,0,0,0,.227.184,1.011,1.011,0,0,0,.829.044,3.006,3.006,0,0,1,.587-.255.384.384,0,0,1,.453.313c.019.264-.17.388-.084.68.13.446.554.749.606,1.229a2.133,2.133,0,0,1-.121.709.844.844,0,0,0,.068.695,1.149,1.149,0,0,0,1.393-.015,1.019,1.019,0,0,0,.13-.372A1.026,1.026,0,0,1,842.575,296.232Z" transform="translate(-838.987 -291.56)"/><path d="M878.652,321.97a1.259,1.259,0,0,1-1.113-.048,4.7,4.7,0,0,1-.952-.693,1.414,1.414,0,0,0-.474-.3.485.485,0,0,0-.513.121.916.916,0,0,0-.151.407.513.513,0,0,1,.422-.045,1.412,1.412,0,0,1,.474.3,4.79,4.79,0,0,0,.952.693,1.263,1.263,0,0,0,1.113.048,1.349,1.349,0,0,0,.622-.816A1.121,1.121,0,0,1,878.652,321.97Z" transform="translate(-871.03 -317.342)"/></g><circle class="a" cx="3.636" cy="3.636" r="3.636" transform="translate(72.122 69.73)"/><circle class="d" cx="3.636" cy="3.636" r="3.636" transform="translate(72.122 69.73)"/><circle class="p" cx="2.303" cy="2.303" r="2.303" transform="translate(73.456 71.063)"/><circle class="d" cx="2.303" cy="2.303" r="2.303" transform="translate(73.456 71.063)"/><path class="a" d="M630,679.994l2.385,5.394a.463.463,0,0,0,.84.017l2.835-5.775Z" transform="translate(-557.029 -612.324)"/><path class="d" d="M630,679.994l2.385,5.394a.463.463,0,0,0,.84.017l2.835-5.775Z" transform="translate(-557.029 -612.324)"/><circle class="a" cx="3.636" cy="3.636" r="3.636" transform="translate(49.455 69.73)"/><circle class="d" cx="3.636" cy="3.636" r="3.636" transform="translate(49.455 69.73)"/><circle class="p" cx="2.303" cy="2.303" r="2.303" transform="translate(50.788 71.063)"/><circle class="d" cx="2.303" cy="2.303" r="2.303" transform="translate(50.788 71.063)"/><path class="a" d="M443,679.994l2.385,5.394a.463.463,0,0,0,.84.017l2.835-5.775Z" transform="translate(-392.696 -612.324)"/><path class="d" d="M443,679.994l2.385,5.394a.463.463,0,0,0,.84.017l2.835-5.775Z" transform="translate(-392.696 -612.324)"/><path class="a" d="M723.241,464.907a.552.552,0,0,0-.3-.434.564.564,0,0,0-.747.315l-2.086,5.179-.606,23.273h.97l.364-23.223,2.356-4.759A.576.576,0,0,0,723.241,464.907Z" transform="translate(-635.681 -423.208)"/><path class="f" d="M368.5,545.624l3.273-2.061,35.334-.3.909,2.364Z" transform="translate(-323.833 -477.409)"/><path class="a" d="M368.5,562.13v-2.182l40.156-.388-.039,1.479h-39.39v1.091Z" transform="translate(-323.833 -491.733)"/><circle class="a" cx="3.636" cy="3.636" r="3.636" transform="translate(46.122 71.003)"/><circle class="p" cx="2.303" cy="2.303" r="2.303" transform="translate(47.455 72.336)"/><path class="a" d="M415.5,690.494l2.386,5.394a.463.463,0,0,0,.84.017l2.835-5.775Z" transform="translate(-368.53 -621.552)"/><circle class="a" cx="3.636" cy="3.636" r="3.636" transform="translate(74.365 71.003)"/><circle class="p" cx="2.303" cy="2.303" r="2.303" transform="translate(75.698 72.336)"/><path class="a" d="M648.5,690.494l2.386,5.394a.463.463,0,0,0,.84.017l2.835-5.775Z" transform="translate(-573.287 -621.552)"/><rect class="p" width="15.152" height="8.364" transform="translate(49.213 58.7)"/><rect class="d" width="4.606" height="0.97" transform="translate(54.546 60.154)"/><rect class="d" width="3.455" height="0.727" transform="translate(55.122 60.275)"/><rect class="p" width="15.152" height="8.364" transform="translate(64.607 58.7)"/><rect class="d" width="4.606" height="0.97" transform="translate(69.94 60.154)"/><rect class="d" width="3.455" height="0.727" transform="translate(70.516 60.275)"/><rect class="p" width="15.152" height="8.364" transform="translate(49.213 50.093)"/><rect class="d" width="4.606" height="0.97" transform="translate(54.546 51.548)"/><rect class="d" width="3.455" height="0.727" transform="translate(55.122 51.669)"/><rect class="p" width="15.152" height="8.364" transform="translate(64.607 50.093)"/><rect class="d" width="4.606" height="0.97" transform="translate(69.94 51.548)"/><rect class="d" width="3.455" height="0.727" transform="translate(70.516 51.669)"/><rect class="p" width="15.152" height="8.364" transform="translate(49.213 41.366)"/><rect class="d" width="4.606" height="0.97" transform="translate(54.546 42.821)"/><rect class="d" width="3.455" height="0.727" transform="translate(55.122 42.942)"/><rect class="p" width="15.152" height="8.364" transform="translate(64.607 41.366)"/><rect class="d" width="4.606" height="0.97" transform="translate(69.94 42.821)"/><rect class="d" width="3.455" height="0.727" transform="translate(70.516 42.942)"/><rect class="p" width="15.152" height="8.364" transform="translate(64.607 32.639)"/><rect class="d" width="4.606" height="0.97" transform="translate(69.94 34.093)"/><rect class="d" width="3.455" height="0.727" transform="translate(70.516 34.214)"/></g><g transform="translate(891.938 1005.295)"><ellipse class="d" cx="89.47" cy="25.564" rx="89.47" ry="25.564" transform="translate(8.123 42.052)"/><path class="u" d="M251.911,298.478l-8.89-.657H126.14V280.7H251.911Z" transform="translate(-102.709 -228.578)"/><path class="v" d="M182.337,210.337H174.66v-4.52a3.157,3.157,0,0,1,3.157-3.157h1.363a3.157,3.157,0,0,1,3.157,3.157Z" transform="translate(-160.117 -202.009)"/><path class="b" d="M285.172,294.016v26.121l-8.573-.111c0-.186.013-.371.013-.546a16.9,16.9,0,1,0-33.8,0v.11l-8.556-.111H189.912a16.9,16.9,0,0,0-.1-1.857c-.032-.3-.071-.589-.121-.878a16.6,16.6,0,0,0-.509-2.2c-.089-.3-.186-.589-.293-.878a17.006,17.006,0,0,0-.988-2.2c-.16-.3-.331-.591-.509-.878a16.933,16.933,0,0,0-1.618-2.2q-.4-.455-.819-.878a16.9,16.9,0,0,0-23.881,0q-.425.425-.819.878a16.934,16.934,0,0,0-1.618,2.2c-.186.288-.349.579-.509.878a17.006,17.006,0,0,0-.988,2.2c-.106.29-.2.581-.293.878a16.6,16.6,0,0,0-.509,2.2c-.05.29-.089.581-.121.878a16.9,16.9,0,0,0-.1,1.857h-16.9V261.75H258.4l11.824,25.783,14.7,6.374Z" transform="translate(-131.25 -250.125)"/><path class="u" d="M45.453,33.09H157.365a4.643,4.643,0,0,1,4.643,4.643v.845H42.82V35.722a2.632,2.632,0,0,1,2.633-2.632Z" transform="translate(-34.862 -26.953)"/><path class="v" d="M517.438,205.247H490.22v-1.025a5.122,5.122,0,0,1,5.122-5.122h15.73Z" transform="translate(-417.073 -199.11)"/><rect class="d" width="15.364" height="10.536" rx="5.268" transform="translate(5.543 60.791)"/><rect class="u" width="15.364" height="10.536" rx="5.268" transform="translate(5.324 61.231)"/><rect class="d" width="8.34" height="12.292" rx="4.17" transform="translate(149.312 60.353)"/><rect class="u" width="8.34" height="12.292" rx="4.17" transform="translate(149.75 60.572)"/><rect class="u" width="18.438" height="25.461" rx="9.219" transform="translate(93.78 15.796)"/><rect class="w" width="2.414" height="5.269" transform="translate(108.706 43.451)"/><path class="u" d="M740.78,299.209V317.39a1.025,1.025,0,0,0,1.025,1.025h11.189a1.025,1.025,0,0,0,.873-1.562l-11.189-18.181a1.025,1.025,0,0,0-1.9.537Z" transform="translate(-621.1 -279.793)"/><path class="k" d="M510.866,85.1l-5.926,5.267v2.745l8.45-8.012Z" transform="translate(-411.16 -69.304)"/><path class="k" d="M504.94,96.291v3.185L518.987,85.1h-2.745Z" transform="translate(-411.16 -69.304)"/><path class="k" d="M648.114,117.6l-3.714,5.155v1.978l4.931-5.157Z" transform="translate(-524.72 -95.768)"/><path class="k" d="M651.021,145.36l-6.621,5.655v1.592l8.1-5.269Z" transform="translate(-524.72 -118.373)"/><circle class="w" cx="11.852" cy="11.852" r="11.852" transform="translate(29.907 57.5)"/><circle class="k" cx="6.585" cy="6.585" r="6.585" transform="translate(35.174 62.767)"/><circle class="w" cx="1.757" cy="1.757" r="1.757" transform="translate(39.893 67.486)"/><circle class="w" cx="11.852" cy="11.852" r="11.852" transform="translate(116.608 57.5)"/><circle class="k" cx="6.585" cy="6.585" r="6.585" transform="translate(121.875 62.767)"/><circle class="w" cx="1.757" cy="1.757" r="1.757" transform="translate(126.813 67.486)"/><rect class="d" width="89.739" height="0.878" transform="translate(7.848 51.243)"/><path class="d" d="M655.452,276.848H617.81l.438-.659v-.219h37.2" transform="translate(-503.069 -224.727)"/><path class="d" d="M657.374,256.758h-37.2v-.878h37.2" transform="translate(-504.99 -208.368)"/><path class="d" d="M657.374,236.667h-37.2v-.877h36.951" transform="translate(-504.99 -192.009)"/><path class="d" d="M164.794,491.63a16.814,16.814,0,0,0-1.506.878H138.61v-.878Z" transform="translate(-130.762 -437.313)"/><path class="d" d="M414.83,491.63v.878H364.756q-.933-.478-1.926-.878Z" transform="translate(-313.341 -437.313)"/><path class="d" d="M160.582,508.18q-.425.425-.819.878H138.61v-.878Z" transform="translate(-130.762 -450.789)"/><path class="d" d="M435.653,508.18v.878H386.636q-.544-.455-1.126-.878Z" transform="translate(-331.809 -450.789)"/><path class="d" d="M158.145,524.72c-.186.288-.349.579-.509.878H138.61v-.878Z" transform="translate(-130.762 -464.258)"/><path class="d" d="M448.773,524.72v.878H399.38c-.235-.3-.487-.591-.75-.878Z" transform="translate(-342.492 -464.258)"/><path class="d" d="M214.389,541.27c-.106.29-.2.581-.293.878H209.52v-.878Z" transform="translate(-188.503 -477.734)"/><path class="d" d="M456.833,541.27v.878h-49.69c-.137-.3-.286-.589-.452-.878Z" transform="translate(-349.056 -477.734)"/><path class="d" d="M213.585,557.82c-.05.29-.089.581-.121.878H209.52v-.878Z" transform="translate(-188.503 -491.211)"/><path class="d" d="M461.153,557.82v.878H411.2a8.909,8.909,0,0,0-.191-.878Z" transform="translate(-352.573 -491.211)"/><rect class="d" width="1.317" height="0.132" transform="translate(70.623 37.861)"/><rect class="d" width="1.317" height="0.132" transform="translate(72.599 37.861)"/><rect class="d" width="72.568" height="0.878" transform="translate(22.224 46.086)"/><path class="x" d="M96.528,387.454a1.909,1.909,0,0,0,.509,1.506s1.892,2.492,2.834,3.9c-.054.383-.091.615-.091.615h0v.052H99.8l-.024.156h.026a29.787,29.787,0,0,0-.743,4.725v.2s.219,3.205.227,5.69a8.392,8.392,0,0,1-.227,2.541,21.31,21.31,0,0,0-.279,4.734c0,3.332.156,7.33.279,7.813a.5.5,0,0,0,.145.232c-.186.743-.54,1.785-1.06,1.976a1,1,0,0,0-.648.862v.163a.083.083,0,0,0,.013.054v.019a.146.146,0,0,0,.019.052v.017c0,.019.017.035.026.052v.013a.626.626,0,0,0,.093.121h0l.05.045.02.015.046.032.028.017.048.026.033.015.052.02.037.013.058.017.041.011.065.013h.286c1.322,0,2.034-.3,2.44-.9l.813-.2v-.022h0v-.208h0l.019-.1v-.006l.009-.054h0c.009-.058.02-.119.032-.186v-.011c.011-.067.02-.137.032-.212h0c.011-.074.02-.15.03-.23v-.009c0-.078.017-.158.024-.24v-.1a1.1,1.1,0,0,1,.011-.156v-.254h.08l.711-11.241,2.541-10.029,1.218,8.418v1.551c0,2.4.046,6.816.414,7.4a2.72,2.72,0,0,1,.225,1.263,19.114,19.114,0,0,1-.225,2.451h.03c-.019.128-.03.2-.03.2h.093c-.067.657-.085,1.371-.091,1.71h0v.2s1.729.2,2.034.2c1.7,0,3.863.8,4.574.3l.061-.048.013-.011.037-.035.009-.011.028-.035v-.009a.283.283,0,0,0,.02-.037h0a.221.221,0,0,0,.011-.039h0a.2.2,0,0,0,0-.041h0a.213.213,0,0,0,0-.043h0c-.1-.355-1.1-.665-1.811-.975a3.97,3.97,0,0,1-1.406-1.944.459.459,0,0,0,.1-.4.473.473,0,0,0-.017-.264c-.371-1.114-.49-10.511-.507-11.958l.914-6.511a4.234,4.234,0,0,0,.1-1.187,48.36,48.36,0,0,0-.474-5.434h.267l-.033-.2h.033l-.407-2.414v-3.148l.509-5.521.609.4c.046,0,.134-.067.247-.186,1.3.57,2.971,1.3,3.92,1.683,1.729.7,1.829,0,1.829,0l3.354-6.524s5.9-2.414,3.965-3.413-4.676,1-5.083,2.008a36.325,36.325,0,0,1-3.254,4.817c-.509.6-.813.2-1.322-.3a14.4,14.4,0,0,0-1.358-1.055l.037-.05a1.52,1.52,0,0,1-.535-.4c-.806-.908-2.541-2.734-3.529-2.808a7.137,7.137,0,0,1-3.025-1.486,4.792,4.792,0,0,1,.011-.888h.009a.32.32,0,0,1,.011-.1,3.122,3.122,0,0,0,2.485-3.042,1.976,1.976,0,0,0-.009-.234.092.092,0,0,0,.056,0,4.8,4.8,0,0,0,.2-1.439,1.062,1.062,0,0,1,.076-.334c.043-.093.113-.173.154-.267a.542.542,0,0,0,.035-.258,1.237,1.237,0,0,0-.145-.57,9.933,9.933,0,0,0-1.088-2.009.667.667,0,0,0-.247-.225.905.905,0,0,0-.355-.039,5.249,5.249,0,0,1-1.606-.444,1.846,1.846,0,0,0-1.612.058c-.457.316-.63.942-1.114,1.192-.134.067-.282.1-.414.175a1.6,1.6,0,0,0-.344.442,3.342,3.342,0,0,0-.652,1.072,2.81,2.81,0,0,0-.089.834v.28a1.8,1.8,0,0,0,.514,1.525,1.069,1.069,0,0,1,.264.273.828.828,0,0,1,.123.451c.022.31.145.62.167.929a.628.628,0,0,0,.089.336.223.223,0,0,0,.31.059l.019-.078c.033.048.067.1.1.143a5.629,5.629,0,0,1-.594,1.857H103a2.327,2.327,0,0,0-1.346.442,14.524,14.524,0,0,1-3.493,1.465,1.075,1.075,0,0,0-.321.631,19.191,19.191,0,0,0-1.047,3.083h0a7.378,7.378,0,0,0-.3,1.614v.041h.015l-.017.089.36.087C96.571,383.769,96.17,386.462,96.528,387.454Zm2.229-.5a20.961,20.961,0,0,0,.693-2.028,5.049,5.049,0,0,0,.63,1.426,2.678,2.678,0,0,1,.253,1.463,23.967,23.967,0,0,1-.149,2.4,21.786,21.786,0,0,1-1.419-3.265Z" transform="translate(-96.38 -334.29)"/><path class="y" d="M156.79,651.909s.693,2.078,1.582,2.474,2.275.791,1.582,1.285-2.786-.3-4.457-.3c-.3,0-1.978-.2-1.978-.2s0-2.671.4-3.157S156.79,651.909,156.79,651.909Z" transform="translate(-142.903 -567.71)"/><path class="y" d="M106.169,652.53s-.4,2.373-1.187,2.671-.99,1.582.3,1.582,1.978-.3,2.373-.89l.791-.2s.494-2.275,0-2.869Z" transform="translate(-102.866 -568.332)"/><path class="y" d="M156.79,651.909s.693,2.078,1.582,2.474,2.275.791,1.582,1.285-2.786-.3-4.457-.3c-.3,0-1.978-.2-1.978-.2s0-2.671.4-3.157S156.79,651.909,156.79,651.909Z" transform="translate(-142.903 -567.71)"/><path class="y" d="M106.169,652.53s-.4,2.373-1.187,2.671-.99,1.582.3,1.582,1.978-.3,2.373-.89l.791-.2s.494-2.275,0-2.869Z" transform="translate(-102.866 -568.332)"/><path class="z" d="M172.3,420.029a28.436,28.436,0,0,1,2.373,1.781c.494.5.791.89,1.285.3a35.184,35.184,0,0,0,3.157-4.749c.388-.99,3.066-2.971,4.946-1.978s-3.857,3.363-3.857,3.363l-3.256,6.429s-.1.693-1.781,0-5.638-2.47-5.638-2.47Z" transform="translate(-155.94 -375.003)"/><path class="d" d="M122.441,510.7s.89,6.129.494,7.321l-.89,6.429s.1,10.783.494,11.969-3.562,1.287-3.562,1.287.494-3.066,0-3.857-.4-8.8-.4-8.8l-1.192-8.311-2.474,9.891-.683,11.082s-2.671-.1-2.869-.89-.494-11.178,0-12.168,0-8.309,0-8.309.4-5.638,1.582-6.331S122.441,510.7,122.441,510.7Z" transform="translate(-108.355 -452.121)"/><path class="aa" d="M122.441,509.622s.89,6.129.494,7.321l-.89,6.429s.1,10.782.494,11.969-3.562,1.285-3.562,1.285.494-3.066,0-3.857-.4-8.8-.4-8.8l-1.192-8.309-2.474,9.891-.683,11.08s-2.671-.1-2.869-.89-.494-11.178,0-12.168,0-8.309,0-8.309.4-5.638,1.582-6.331S122.441,509.622,122.441,509.622Z" transform="translate(-108.355 -451.242)"/><path class="z" d="M129.329,400.06s-.2,4.749-1.879,3.857l1.486,4.457,3.363-.2,1.978-2.671-1.486-.89s-1.088.4-.3-3.265Z" transform="translate(-121.674 -362.749)"/><path class="d" d="M114.6,420.057a7.1,7.1,0,0,0,2.971,1.486c.964.074,2.652,1.874,3.436,2.769a1.485,1.485,0,0,0,.52.4s-1.978,2.769-2.275,2.769l-.594-.4-.494,5.441v3.265l.4,2.373s-6.233.1-6.825-.4-3.958.4-3.958.4.99-6.429.3-7.221-1.879-6.331-1.879-6.331-.791-2.275,0-2.971a14,14,0,0,0,3.4-1.443,2.245,2.245,0,0,1,1.309-.436h.072a1.945,1.945,0,0,0,1.551,1.781C114.013,421.836,114.953,421.29,114.6,420.057Z" transform="translate(-104.083 -378.79)"/><path class="ab" d="M114.6,418.989a7.1,7.1,0,0,0,2.971,1.486c.964.074,2.652,1.874,3.436,2.769a1.487,1.487,0,0,0,.52.4s-1.978,2.769-2.275,2.769l-.594-.4-.494,5.441v3.263l.4,2.373s-6.233.1-6.825-.4-3.958.4-3.958.4.99-6.429.3-7.221-1.879-6.331-1.879-6.331-.791-2.275,0-2.971a14,14,0,0,0,3.4-1.443,2.245,2.245,0,0,1,1.309-.436h.072a1.945,1.945,0,0,0,1.551,1.781C114.013,420.766,114.953,420.233,114.6,418.989Z" transform="translate(-104.083 -377.919)"/><path class="ab" d="M102.3,434.249s-2.971-.4-3.265-.4.99-4.847,1.681-5.341,1.582,1.781,1.582,1.781Z" transform="translate(-98.499 -385.86)"/><g class="t" transform="translate(2.117 41.116)"><path d="M148.178,420.819c.121.884-.509,1.339-1.538,1.291.943-.052,1.456-.594,1.185-1.56C147.821,420.552,147.959,420.661,148.178,420.819Z" transform="translate(-139.418 -420.55)"/><path d="M176.387,458.38l.451.3a.325.325,0,0,1-.154.095l-.314-.21Z" transform="translate(-163.626 -451.354)"/><path d="M107.75,445.07s1.486,5.54,2.177,6.331c.648.743-.176,6.415-.284,7.144l-.308.078s.99-6.43.3-7.221S107.75,445.07,107.75,445.07Z" transform="translate(-107.75 -440.516)"/><path d="M135.343,515.242c.414.345,3.562.4,5.436.4-1.816,0-5.3-.041-5.731-.4a1.02,1.02,0,0,0-.578-.147A1.385,1.385,0,0,1,135.343,515.242Z" transform="translate(-129.508 -497.533)"/></g><path class="z" d="M99.114,452.51s-.99,4.749-.494,6.129a1.906,1.906,0,0,0,.494,1.486,49.349,49.349,0,0,1,3.265,4.749,1.483,1.483,0,0,0,2.671.693s.791-1.088-.99-1.978-3.265-5.441-3.265-5.441,1.486-3.66.89-4.847S99.114,452.51,99.114,452.51Z" transform="translate(-98.086 -405.406)"/><path class="d" d="M6.23,251.389l-3.66-.89.3-1.632,1.58-.247,2.078.691Z" transform="translate(-2.087 -202.456)"/><path class="ab" d="M6.23,250.851l-3.66-.891.3-1.632,1.58-.247,2.078.693Z" transform="translate(-2.087 -202.016)"/><path class="d" d="M136.739,400.59l3.157,1.285a13.892,13.892,0,0,0-.253,1.515,3.068,3.068,0,0,1-3.094-1.164A14.374,14.374,0,0,0,136.739,400.59Z" transform="translate(-129.084 -363.18)"/><circle class="z" cx="3.066" cy="3.066" r="3.066" transform="translate(6.864 34.046)"/><path class="d" d="M135.5,371.983a1.058,1.058,0,0,1,.072-.329c.043-.091.111-.171.149-.264a.917.917,0,0,0-.106-.717,9.83,9.83,0,0,0-1.06-1.98.653.653,0,0,0-.24-.221.871.871,0,0,0-.345-.039,5.06,5.06,0,0,1-1.562-.436,1.786,1.786,0,0,0-1.569.056c-.455.31-.611.929-1.092,1.176-.13.067-.275.1-.4.173a1.563,1.563,0,0,0-.435.425,2.474,2.474,0,0,0-.719,2.054,1.786,1.786,0,0,0,.5,1.5,1.048,1.048,0,0,1,.256.269.824.824,0,0,1,.119.444c.022.306.141.611.163.917a.624.624,0,0,0,.087.332.215.215,0,0,0,.3.059l.31-1.276a1.741,1.741,0,0,1,.288-.709c.23-.282.641-.423.763-.769.087-.247.011-.566.2-.743a.629.629,0,0,1,.284-.123,6.728,6.728,0,0,1,2.713-.084.776.776,0,0,1,.277.087.832.832,0,0,1,.293.461c.065.186.3,1.224.557,1.153A4.991,4.991,0,0,0,135.5,371.983Z" transform="translate(-122.266 -336.516)"/><path class="ac" d="M135.507,371.443a1.059,1.059,0,0,1,.072-.329c.043-.091.111-.171.149-.264a.918.918,0,0,0-.106-.717,9.829,9.829,0,0,0-1.06-1.98.652.652,0,0,0-.24-.221.87.87,0,0,0-.345-.039,5.062,5.062,0,0,1-1.562-.436,1.786,1.786,0,0,0-1.569.056c-.455.31-.611.929-1.092,1.176-.13.067-.275.1-.4.173a1.563,1.563,0,0,0-.435.425,2.474,2.474,0,0,0-.719,2.047,1.786,1.786,0,0,0,.5,1.5,1.049,1.049,0,0,1,.256.269.825.825,0,0,1,.123.457c.022.306.141.611.163.917a.624.624,0,0,0,.087.332.215.215,0,0,0,.306.05l.31-1.276a1.741,1.741,0,0,1,.288-.709c.23-.282.641-.423.763-.769.087-.247.011-.566.2-.743a.63.63,0,0,1,.284-.123,6.728,6.728,0,0,1,2.713-.083.776.776,0,0,1,.277.087.832.832,0,0,1,.293.461c.065.186.3,1.224.557,1.153A5.225,5.225,0,0,0,135.507,371.443Z" transform="translate(-122.269 -336.076)"/><ellipse class="z" cx="0.297" cy="0.693" rx="0.297" ry="0.693" transform="translate(7.605 36.271)"/><path class="d" d="M155.538,669.255c1.658,0,3.759.791,4.457.3a.5.5,0,0,0,.162-.171c.058.117.019.24-.162.371-.693.494-2.786-.3-4.457-.3-.3,0-1.978-.2-1.978-.2v-.2C153.6,669.062,155.244,669.255,155.538,669.255Z" transform="translate(-142.935 -581.792)"/><path class="d" d="M105.247,661.871c1.285,0,1.978-.3,2.373-.889l.791-.2a10.722,10.722,0,0,0,.219-1.762,10.116,10.116,0,0,1-.219,1.961l-.791.2c-.4.594-1.088.89-2.373.89-.717,0-.973-.4-.929-.806C104.372,661.59,104.649,661.871,105.247,661.871Z" transform="translate(-102.835 -573.616)"/><rect class="aa" width="3.562" height="1.385" transform="translate(7.934 60.279) rotate(160.92)"/><rect class="d" width="3.562" height="1.385" transform="translate(7.934 60.279) rotate(160.92)"/><text class="ad" transform="translate(21.131 17.612)"><tspan x="5.828" y="22">RELO</tspan></text></g><path class="ae" d="M0,0S1.472,21.916,57.391,37,148,37,148,37" transform="translate(944.5 1094.5)"/><path class="ae" d="M15.762.331s14.726,26.2,54.1,36.38,57.289-19.564,57.289-19.564" transform="matrix(0.695, -0.719, 0.719, 0.695, 1222.876, 1143.404)"/><path class="ae" d="M30.126,12.262s-3.533,6.532,35.836,16.71,61.185-11.825,61.185-11.825" transform="translate(1346.53 998.446) rotate(-160)"/><path class="ae" d="M30.112,12.262S39.1,26.494,71.789,31.875s38.887-17.031,38.887-17.031" transform="translate(987.349 936.469) rotate(129)"/></g></svg>